{"glyphs":{"0":{"ha":3080,"x_min":21,"x_max":3061,"o":"m 1890 349 q 2041 463 1933 413 q 1979 317 2005 364 q 1923 259 1953 269 q 1876 259 1890 249 q 1866 294 1862 269 q 1890 349 1870 319 m 830 725 q 883 713 866 780 q 892 585 897 659 q 890 564 892 571 l 890 563 q 829 635 850 585 q 830 725 808 686 m 3057 743 q 3036 643 3061 688 q 3048 604 3048 626 q 3011 490 3048 530 q 2904 413 2972 446 q 2773 380 2837 380 q 2664 416 2709 380 q 2627 455 2646 429 q 2456 374 2555 374 q 2382 386 2416 374 q 2380 380 2381 384 q 2379 376 2380 377 q 2330 175 2328 203 q 2327 132 2336 153 q 2299 99 2319 111 q 2262 88 2281 88 q 2215 106 2235 88 q 2153 182 2178 140 q 2081 108 2125 140 q 1944 56 2009 56 q 1895 68 1919 56 q 1859 93 1872 80 q 1824 129 1845 105 q 1771 204 1791 165 q 1758 282 1754 239 q 1755 286 1757 283 q 1751 289 1752 288 q 1695 276 1725 276 q 1563 361 1616 276 q 1550 390 1555 374 q 1547 393 1548 391 q 1543 396 1545 394 q 1540 399 1541 398 q 1532 348 1532 363 q 1496 290 1531 310 q 1461 281 1480 281 q 1428 290 1443 281 q 1403 306 1419 294 q 1387 300 1396 302 q 1362 298 1373 298 q 1297 313 1329 298 q 1244 360 1265 328 q 1149 303 1196 305 q 1133 302 1143 302 q 1019 355 1057 302 q 845 254 947 254 q 715 308 772 254 q 722 249 717 276 q 716 209 725 228 q 690 178 707 190 q 652 168 673 168 q 612 180 631 168 q 503 311 547 233 q 460 371 478 341 q 473 239 450 280 q 471 169 492 203 q 411 135 450 135 l 410 135 q 384 137 399 135 q 336 155 368 140 q 281 198 304 171 q 183 385 193 300 q 144 372 165 372 q 119 376 131 372 q 71 408 92 387 q 40 450 50 428 q 25 492 30 473 q 22 525 21 511 q 24 536 23 529 q 32 559 26 543 q 46 593 37 576 q 73 632 55 610 q 112 672 90 653 q 169 708 134 690 q 246 739 204 726 q 293 892 273 833 q 328 977 313 951 q 352 1010 344 1002 q 376 1023 361 1017 q 404 1027 388 1027 q 546 941 461 1027 q 555 930 551 936 q 664 1137 598 1030 q 791 1204 706 1204 q 903 1176 846 1204 q 956 1114 920 1167 q 993 1041 992 1060 q 960 979 995 1002 q 920 939 941 967 q 1003 867 968 913 q 1017 831 1015 851 q 1022 827 1019 830 q 1067 886 1043 863 q 1192 934 1119 934 q 1262 919 1230 934 q 1314 880 1295 905 q 1348 882 1332 882 q 1477 1162 1394 1026 q 1603 1230 1518 1230 q 1716 1201 1658 1230 q 1754 1142 1752 1183 l 1754 1137 q 2025 1143 1834 1143 q 2064 1143 2039 1143 q 2108 1143 2089 1143 q 2144 1143 2128 1143 q 2175 1144 2160 1143 q 2203 1146 2190 1145 q 2228 1149 2216 1147 q 2251 1154 2241 1152 q 2269 1158 2260 1156 q 2284 1162 2278 1160 q 2296 1165 2291 1164 q 2303 1168 2300 1166 l 2305 1168 q 2331 1173 2317 1173 q 2381 1152 2360 1173 q 2411 1111 2390 1143 q 2433 1076 2431 1078 q 2447 1000 2462 1036 q 2429 967 2442 987 q 2491 913 2480 959 q 2493 898 2493 905 q 2522 901 2506 901 q 2620 859 2580 901 q 2678 914 2650 894 q 2822 964 2746 964 q 2926 938 2883 964 q 3011 854 2969 911 q 3046 800 3035 825 q 3057 743 3056 774 m 600 313 q 606 542 584 410 q 673 787 629 673 q 771 993 717 902 q 871 1114 826 1084 q 859 1119 867 1116 q 831 1128 852 1122 q 793 1135 811 1134 q 755 1127 775 1135 q 724 1100 735 1119 q 618 900 661 999 q 558 731 576 801 q 534 598 541 662 q 530 503 528 534 q 536 450 532 473 q 494 562 508 498 q 479 681 479 625 q 481 785 478 736 q 490 863 485 834 l 496 892 q 475 912 488 900 q 436 943 463 924 q 399 957 410 961 q 360 870 389 953 q 302 680 332 787 q 205 648 248 669 q 143 606 163 627 q 110 564 122 584 q 95 530 97 543 l 92 517 q 281 596 123 563 q 256 481 261 513 q 254 384 247 422 q 278 324 261 345 q 314 293 296 303 q 346 282 332 283 l 359 280 q 336 392 336 322 q 350 532 335 462 q 384 666 366 602 q 418 770 403 730 l 434 810 q 462 556 438 671 q 490 466 472 508 q 526 396 508 423 q 562 350 545 370 q 589 321 578 330 l 600 313 m 1238 505 q 1267 457 1246 473 q 1305 444 1288 442 l 1322 444 q 1318 449 1320 446 q 1312 464 1316 452 q 1304 492 1307 476 q 1302 535 1302 507 q 1308 597 1302 564 q 1328 696 1315 643 q 1350 781 1341 750 l 1359 812 q 1337 812 1350 812 q 1296 804 1323 812 q 1261 779 1270 795 q 1201 655 1227 718 q 1146 551 1174 593 q 1111 509 1126 521 q 1086 506 1097 496 q 1088 585 1071 519 q 1138 714 1106 650 q 1163 762 1154 745 q 1184 793 1173 779 q 1205 811 1195 807 q 1229 816 1216 816 q 1261 811 1242 817 q 1239 852 1270 836 q 1158 859 1202 872 q 1115 834 1133 851 q 1060 748 1086 808 q 1019 625 1033 689 q 954 559 991 576 q 969 668 970 628 q 936 789 965 757 q 859 815 907 821 q 947 825 897 840 q 945 828 947 827 q 938 836 943 830 q 927 847 933 842 q 913 860 922 852 q 896 872 905 867 q 876 882 887 878 q 854 889 865 887 q 830 891 843 892 q 806 886 818 890 q 731 799 769 873 q 674 636 692 725 q 673 498 656 547 q 713 433 686 459 q 773 400 740 408 q 843 411 806 393 q 911 472 881 429 q 943 528 931 500 q 1010 568 979 536 q 1011 507 1007 536 q 1038 458 1017 470 q 1093 448 1059 446 q 1165 516 1122 450 q 1235 646 1207 581 l 1263 710 q 1260 703 1262 707 q 1255 683 1259 698 q 1247 652 1251 667 q 1240 617 1244 637 q 1235 578 1236 596 q 1234 540 1233 559 q 1238 505 1234 520 m 1672 429 q 1666 435 1670 431 q 1655 454 1663 439 q 1643 487 1647 469 q 1639 536 1639 505 q 1649 602 1640 566 q 1678 703 1662 654 q 1705 776 1695 753 l 1714 800 l 1649 831 q 1626 829 1636 837 q 1575 789 1602 813 q 1504 715 1548 766 q 1430 608 1460 664 q 1546 939 1468 777 q 1684 1139 1623 1100 q 1672 1145 1680 1141 q 1645 1154 1665 1148 q 1606 1160 1624 1160 q 1568 1153 1588 1161 q 1537 1126 1548 1145 q 1440 933 1475 1025 q 1379 732 1405 842 q 1355 598 1365 671 q 1348 503 1345 525 q 1366 464 1350 483 q 1396 435 1381 444 l 1410 426 q 1413 461 1411 439 q 1434 538 1415 483 q 1486 636 1453 594 q 1554 718 1522 684 q 1599 760 1586 751 l 1612 769 q 1603 745 1609 760 q 1584 689 1596 730 q 1563 612 1571 648 q 1556 536 1556 576 q 1571 474 1556 496 q 1600 439 1585 452 q 1628 424 1616 426 q 1651 422 1640 421 q 1666 426 1661 423 l 1672 429 m 1811 363 q 1795 434 1796 389 q 1806 535 1794 479 q 1836 651 1818 591 q 1879 774 1854 710 q 1926 890 1904 839 q 1971 989 1948 941 q 2190 995 2163 993 q 2242 1009 2218 997 q 2282 1037 2266 1021 q 2309 1067 2298 1053 q 2326 1093 2321 1082 l 2331 1103 q 2307 1095 2323 1100 q 2243 1082 2292 1090 q 2145 1073 2195 1074 q 2031 1072 2108 1072 q 1905 1072 1953 1072 q 1802 1070 1857 1072 q 1718 1064 1747 1068 q 1665 1046 1689 1060 q 1625 1015 1640 1032 q 1599 982 1610 998 q 1584 954 1588 965 l 1579 943 q 1638 966 1590 956 q 1735 980 1686 977 q 1864 985 1776 983 q 1822 873 1852 951 q 1764 716 1791 795 q 1720 569 1736 637 q 1716 490 1710 524 q 1737 432 1721 456 q 1769 393 1752 408 q 1799 370 1786 378 l 1811 363 m 2555 623 q 2590 699 2581 665 q 2597 749 2599 732 q 2585 787 2594 766 q 2483 823 2557 850 q 2410 777 2447 809 q 2355 718 2373 744 l 2336 692 q 2423 897 2419 895 l 2406 899 q 2315 867 2340 899 q 2309 860 2311 864 q 2220 612 2268 745 q 2216 598 2219 607 q 2212 588 2212 590 q 2139 546 2150 551 q 2185 681 2155 600 q 2237 814 2215 761 l 2258 867 q 2235 865 2249 866 q 2192 855 2221 863 q 2153 833 2163 846 q 2102 761 2146 827 q 2017 650 2057 696 q 1962 614 1977 604 q 2005 732 1946 625 q 2081 862 2064 839 q 2070 862 2077 862 q 2044 859 2063 861 q 2009 850 2025 856 q 1976 833 1993 845 q 1951 806 1959 822 q 1884 660 1905 718 q 1882 577 1864 602 q 1920 562 1893 563 q 1980 578 1946 561 q 2041 629 2014 595 l 2142 764 q 2057 509 2094 615 q 1999 474 2035 495 q 1947 443 1963 453 q 1908 412 1931 433 q 1864 363 1885 391 q 1830 299 1839 332 q 1831 244 1822 267 q 1860 209 1840 221 q 1914 204 1879 196 q 1989 240 1949 212 q 2061 327 2035 273 q 2123 492 2087 382 q 2124 498 2123 496 q 2126 503 2125 500 q 2128 509 2127 507 q 2198 549 2168 534 q 2144 372 2159 440 q 2154 310 2137 345 q 2190 255 2170 275 l 2211 234 q 2260 471 2200 270 q 2341 661 2290 575 q 2435 762 2376 720 q 2511 791 2494 804 q 2513 747 2519 781 q 2492 682 2507 713 q 2448 617 2474 644 q 2399 577 2422 590 q 2355 558 2376 565 q 2321 550 2334 551 l 2308 549 q 2317 544 2311 547 q 2339 533 2322 541 q 2372 522 2355 526 q 2414 519 2389 518 q 2460 530 2438 521 q 2508 563 2483 539 q 2555 623 2534 587 m 2797 821 q 2867 857 2833 861 q 2890 831 2889 853 q 2851 765 2890 801 q 2806 742 2831 747 q 2764 739 2780 736 l 2747 742 q 2750 736 2748 740 q 2758 724 2751 733 q 2773 709 2764 715 q 2796 698 2781 703 q 2827 694 2810 693 q 2911 733 2884 699 q 2936 814 2939 768 q 2902 868 2934 844 q 2823 895 2871 892 q 2720 858 2776 897 q 2657 793 2686 832 q 2614 709 2629 753 q 2608 621 2599 665 q 2656 546 2618 576 q 2742 527 2692 518 q 2837 559 2792 535 q 2907 612 2882 584 q 2920 638 2915 621 q 2925 667 2924 655 l 2926 680 q 2875 625 2909 652 q 2806 584 2841 599 q 2741 566 2772 569 q 2700 582 2711 563 q 2711 692 2677 618 q 2797 821 2745 765 m 779 690 q 811 592 783 638 q 882 532 839 547 q 836 439 861 460 q 778 427 810 418 q 753 472 759 433 q 751 558 747 511 q 767 648 756 606 q 779 690 772 670 m 1398 -221 q 1367 -210 1377 -221 q 1355 -181 1355 -199 q 1362 -150 1355 -163 q 1382 -127 1369 -135 q 1413 -119 1396 -119 q 1446 -130 1435 -119 q 1457 -159 1457 -141 q 1450 -190 1457 -175 q 1430 -212 1443 -204 q 1398 -221 1415 -221 m 499 -331 l 564 -2 l 2581 -2 l 2515 -331 l 499 -331 m 2314 -90 l 2308 -120 l 2359 -120 l 2333 -250 l 2370 -250 l 2397 -120 l 2448 -120 l 2454 -90 l 2314 -90 m 2106 -90 l 2074 -250 l 2110 -250 l 2130 -149 l 2190 -250 l 2221 -250 l 2253 -90 l 2216 -90 l 2196 -190 l 2136 -90 l 2106 -90 m 1857 -134 q 1844 -183 1844 -157 q 1853 -219 1844 -202 q 1881 -244 1862 -235 q 1922 -252 1896 -252 q 1974 -240 1952 -252 q 2009 -205 1996 -229 q 2022 -157 2022 -183 q 2012 -120 2022 -137 q 1985 -96 2004 -106 q 1943 -87 1968 -87 q 1891 -99 1914 -87 q 1857 -134 1870 -111 m 1685 -90 l 1653 -250 l 1691 -250 l 1702 -191 l 1776 -191 l 1782 -161 l 1708 -161 l 1716 -119 l 1800 -119 l 1806 -90 l 1685 -90 m 1330 -134 q 1318 -183 1318 -156 q 1326 -219 1318 -203 q 1354 -244 1335 -235 q 1396 -252 1369 -252 q 1447 -240 1425 -252 q 1482 -205 1470 -228 q 1495 -157 1495 -184 q 1485 -120 1495 -137 q 1458 -96 1477 -106 q 1417 -87 1441 -87 q 1365 -99 1388 -87 q 1330 -134 1343 -111 m 1084 -90 l 1053 -250 l 1087 -250 l 1107 -154 l 1139 -233 l 1156 -233 l 1217 -155 l 1198 -250 l 1233 -250 l 1265 -90 l 1233 -90 l 1155 -189 l 1115 -90 l 1084 -90 m 890 -90 l 857 -250 l 981 -250 l 987 -220 l 900 -220 l 907 -183 l 982 -183 l 988 -154 l 913 -154 l 920 -119 l 1004 -119 l 1010 -90 l 890 -90 m 659 -90 l 627 -250 l 705 -250 q 758 -238 734 -250 q 793 -205 781 -227 q 805 -157 805 -184 q 795 -121 805 -136 q 768 -98 787 -106 q 726 -90 751 -90 l 659 -90 m 1925 -221 q 1893 -210 1904 -221 q 1882 -181 1882 -199 q 1889 -150 1882 -163 q 1909 -127 1896 -135 q 1940 -119 1922 -119 q 1972 -130 1961 -119 q 1984 -159 1984 -141 q 1977 -190 1984 -176 q 1957 -212 1969 -204 q 1925 -221 1942 -221 m 739 -212 q 707 -219 726 -219 l 670 -219 l 690 -120 l 722 -120 q 756 -130 745 -120 q 768 -159 768 -140 q 760 -190 768 -175 q 739 -212 753 -203 z "},"1":{"ha":3080,"x_min":21,"x_max":3061,"o":"m 1890 349 q 2041 463 1933 413 q 1979 317 2005 364 q 1923 259 1953 269 q 1876 259 1890 249 q 1866 294 1862 269 q 1890 349 1870 319 m 830 725 q 883 713 866 780 q 892 585 897 659 q 890 564 892 571 l 890 563 q 829 635 850 585 q 830 725 808 686 m 3057 743 q 3036 643 3061 688 q 3048 604 3048 626 q 3011 490 3048 530 q 2904 413 2972 446 q 2773 380 2837 380 q 2664 416 2709 380 q 2627 455 2646 429 q 2456 374 2555 374 q 2382 386 2417 374 q 2381 380 2382 384 q 2379 376 2380 377 q 2330 175 2328 203 q 2327 132 2336 153 q 2300 99 2319 111 q 2262 88 2281 88 q 2215 106 2235 88 q 2153 182 2178 140 q 2081 108 2125 140 q 1944 56 2009 56 q 1895 68 1919 56 q 1859 93 1872 80 q 1824 129 1845 105 q 1771 204 1791 165 q 1758 282 1754 239 q 1755 286 1757 283 q 1751 289 1752 288 q 1695 276 1725 276 q 1563 361 1616 276 q 1550 390 1555 374 q 1547 393 1548 391 q 1543 396 1545 394 q 1540 399 1541 398 q 1532 348 1532 363 q 1496 290 1531 310 q 1461 281 1480 281 q 1428 290 1443 281 q 1403 306 1419 294 q 1387 300 1396 302 q 1362 298 1373 298 q 1297 313 1329 298 q 1244 360 1265 328 q 1149 303 1196 305 q 1133 302 1143 302 q 1019 355 1057 302 q 845 254 947 254 q 715 308 772 254 q 722 249 717 276 q 716 209 725 228 q 690 178 707 190 q 652 168 673 168 q 612 180 631 168 q 503 311 547 233 q 460 371 478 341 q 473 239 450 280 q 471 169 492 203 q 411 135 450 135 l 410 135 q 384 137 399 135 q 336 155 368 140 q 281 198 304 171 q 183 385 193 300 q 144 372 165 372 q 119 376 131 372 q 71 408 92 387 q 40 450 50 428 q 25 492 30 473 q 22 525 21 511 q 24 536 23 529 q 32 559 26 543 q 46 593 37 576 q 73 632 55 610 q 112 672 90 653 q 169 708 134 690 q 246 739 204 726 q 293 892 273 833 q 328 977 313 951 q 352 1010 344 1002 q 376 1023 361 1017 q 404 1027 388 1027 q 546 941 461 1027 q 555 930 551 936 q 664 1137 598 1030 q 791 1204 706 1204 q 903 1176 846 1204 q 956 1114 920 1167 q 993 1041 992 1060 q 960 979 995 1002 q 920 939 941 967 q 1003 867 968 913 q 1017 831 1015 851 q 1022 827 1019 830 q 1067 886 1043 863 q 1192 934 1119 934 q 1262 919 1230 934 q 1314 880 1295 905 q 1348 882 1332 882 q 1477 1162 1394 1026 q 1603 1230 1518 1230 q 1716 1201 1658 1230 q 1754 1142 1752 1183 l 1754 1137 q 2025 1143 1834 1143 q 2064 1143 2039 1143 q 2108 1143 2089 1143 q 2144 1143 2128 1143 q 2175 1144 2160 1143 q 2203 1146 2190 1145 q 2228 1149 2216 1147 q 2251 1154 2241 1152 q 2269 1158 2260 1156 q 2284 1162 2278 1160 q 2296 1165 2291 1164 q 2303 1168 2300 1166 l 2305 1168 q 2331 1173 2317 1173 q 2381 1152 2360 1173 q 2411 1111 2390 1143 q 2433 1076 2431 1078 q 2447 1000 2462 1036 q 2429 967 2442 987 q 2491 913 2480 959 q 2493 898 2493 905 q 2522 901 2506 901 q 2620 859 2580 901 q 2678 914 2650 894 q 2822 964 2746 964 q 2926 938 2883 964 q 3011 854 2969 911 q 3046 800 3035 825 q 3057 743 3056 774 m 600 313 q 606 542 584 410 q 673 787 629 673 q 771 993 717 902 q 871 1114 826 1084 q 859 1119 867 1116 q 831 1128 852 1122 q 793 1135 811 1134 q 755 1127 775 1135 q 724 1100 735 1119 q 618 900 661 999 q 558 731 576 801 q 534 598 541 662 q 530 503 528 534 q 536 450 532 473 q 494 562 508 498 q 479 681 479 625 q 481 785 478 736 q 490 863 485 834 l 496 892 q 475 912 488 900 q 436 943 463 924 q 399 957 410 961 q 360 870 389 953 q 302 680 332 787 q 205 648 248 669 q 143 606 163 627 q 110 564 122 584 q 95 530 97 543 l 92 517 q 281 596 123 563 q 256 481 261 513 q 254 384 247 422 q 278 324 261 345 q 314 293 296 303 q 346 282 332 283 l 359 280 q 336 392 336 322 q 350 532 335 462 q 384 666 366 602 q 418 770 403 730 l 434 810 q 462 556 438 671 q 490 466 472 508 q 526 396 508 423 q 562 350 545 370 q 589 321 578 330 l 600 313 m 1238 505 q 1267 457 1246 473 q 1305 444 1288 442 l 1322 444 q 1318 449 1320 446 q 1312 464 1316 452 q 1304 492 1307 476 q 1302 535 1302 507 q 1308 597 1302 564 q 1328 696 1315 643 q 1350 781 1341 750 l 1359 812 q 1337 812 1350 812 q 1296 804 1323 812 q 1261 779 1270 795 q 1201 655 1227 718 q 1146 551 1174 593 q 1111 509 1126 521 q 1086 506 1097 496 q 1088 585 1071 519 q 1138 714 1106 650 q 1163 762 1154 745 q 1184 793 1173 779 q 1205 811 1195 807 q 1229 816 1216 816 q 1261 811 1242 817 q 1239 852 1270 836 q 1158 859 1202 872 q 1115 834 1133 851 q 1060 748 1086 808 q 1019 625 1033 689 q 954 559 991 576 q 969 668 970 628 q 936 789 965 757 q 859 815 907 821 q 947 825 897 840 q 945 828 947 827 q 938 836 943 830 q 927 847 933 842 q 913 860 922 852 q 896 872 905 867 q 876 882 887 878 q 854 889 865 887 q 830 891 843 892 q 806 886 818 890 q 731 799 769 873 q 674 636 692 725 q 673 498 656 547 q 713 433 686 459 q 773 400 740 408 q 843 411 806 393 q 911 472 881 429 q 943 528 931 500 q 1010 568 979 536 q 1011 507 1007 536 q 1038 458 1017 470 q 1093 448 1059 446 q 1165 516 1122 450 q 1235 646 1207 581 l 1263 710 q 1260 703 1262 707 q 1255 683 1259 698 q 1247 652 1251 667 q 1240 617 1244 637 q 1235 578 1236 596 q 1234 540 1233 559 q 1238 505 1234 520 m 1672 429 q 1666 435 1670 431 q 1655 454 1663 439 q 1643 487 1647 469 q 1639 536 1639 505 q 1649 602 1640 566 q 1678 703 1662 654 q 1705 776 1695 753 l 1714 800 l 1649 831 q 1626 829 1636 837 q 1575 789 1602 813 q 1504 715 1548 766 q 1430 608 1460 664 q 1546 939 1468 777 q 1684 1139 1623 1100 q 1672 1145 1680 1141 q 1645 1154 1665 1148 q 1606 1160 1624 1160 q 1568 1153 1588 1161 q 1537 1126 1548 1145 q 1440 933 1475 1025 q 1379 732 1405 842 q 1355 598 1365 671 q 1348 503 1345 525 q 1366 464 1350 483 q 1396 435 1381 444 l 1410 426 q 1413 461 1411 439 q 1434 538 1415 483 q 1486 636 1453 594 q 1554 718 1522 684 q 1599 760 1586 751 l 1612 769 q 1603 745 1609 760 q 1584 689 1596 730 q 1563 612 1571 648 q 1556 536 1556 576 q 1571 474 1556 496 q 1600 439 1585 452 q 1628 424 1616 426 q 1651 422 1640 421 q 1666 426 1661 423 l 1672 429 m 1811 363 q 1795 434 1796 389 q 1806 535 1794 479 q 1837 651 1819 591 q 1880 774 1855 710 q 1927 889 1905 839 q 1971 989 1948 940 q 2190 995 2163 993 q 2242 1009 2218 997 q 2282 1037 2266 1021 q 2309 1067 2298 1053 q 2326 1093 2321 1082 l 2331 1103 q 2307 1095 2323 1100 q 2243 1082 2292 1090 q 2145 1073 2195 1074 q 2031 1072 2108 1072 q 1905 1072 1953 1072 q 1802 1070 1857 1072 q 1718 1064 1747 1068 q 1665 1046 1689 1060 q 1625 1015 1640 1032 q 1599 982 1610 998 q 1584 954 1588 965 l 1579 943 q 1638 966 1590 956 q 1735 980 1686 977 q 1864 985 1776 983 q 1822 873 1852 951 q 1764 716 1791 795 q 1720 569 1736 637 q 1716 490 1710 524 q 1737 432 1721 456 q 1769 393 1752 408 q 1799 370 1786 378 l 1811 363 m 2555 623 q 2590 699 2581 665 q 2597 749 2599 732 q 2585 787 2594 766 q 2483 823 2557 850 q 2410 777 2447 809 q 2355 718 2373 744 l 2336 692 q 2423 897 2419 895 l 2406 899 q 2315 867 2340 899 q 2309 860 2311 864 q 2220 612 2268 745 q 2212 588 2215 595 q 2139 546 2155 553 q 2185 681 2155 600 q 2237 814 2215 761 l 2258 867 q 2235 865 2249 866 q 2192 855 2221 863 q 2153 833 2163 846 q 2102 761 2146 827 q 2017 650 2057 696 q 1963 614 1978 604 q 2005 732 1947 625 q 2081 862 2064 840 q 2070 862 2077 862 q 2044 859 2063 861 q 2009 850 2025 856 q 1976 833 1993 845 q 1951 806 1959 822 q 1884 660 1905 718 q 1882 577 1864 602 q 1920 562 1893 563 q 1980 578 1946 561 q 2041 629 2014 595 l 2142 764 q 2057 509 2094 615 q 1999 474 2035 495 q 1947 443 1963 453 q 1908 412 1931 433 q 1864 363 1885 391 q 1830 299 1839 332 q 1831 244 1822 267 q 1860 209 1840 221 q 1914 204 1879 196 q 1989 240 1949 212 q 2061 327 2035 273 q 2123 492 2087 382 q 2124 498 2123 496 q 2126 503 2125 500 q 2128 509 2127 507 q 2198 549 2168 534 q 2144 372 2159 440 q 2154 310 2137 345 q 2190 255 2170 275 l 2211 234 q 2260 471 2200 270 q 2341 661 2290 575 q 2435 762 2376 720 q 2511 791 2494 804 q 2513 747 2519 781 q 2492 682 2507 713 q 2448 617 2474 644 q 2399 577 2422 590 q 2355 558 2376 565 q 2321 550 2334 551 l 2308 549 q 2317 544 2311 547 q 2339 533 2322 541 q 2372 522 2355 526 q 2414 519 2389 518 q 2460 530 2438 521 q 2508 563 2483 539 q 2555 623 2534 587 m 2797 821 q 2867 857 2833 861 q 2890 831 2889 853 q 2851 765 2890 801 q 2806 742 2831 747 q 2764 739 2780 736 l 2747 742 q 2750 736 2748 740 q 2758 724 2751 733 q 2773 709 2764 715 q 2796 698 2781 703 q 2827 694 2810 693 q 2911 733 2884 699 q 2936 814 2939 768 q 2902 868 2934 844 q 2823 895 2871 892 q 2720 858 2776 897 q 2657 793 2686 832 q 2614 709 2629 753 q 2608 621 2599 665 q 2656 546 2618 576 q 2742 527 2692 518 q 2837 559 2792 535 q 2907 612 2882 584 q 2920 638 2915 621 q 2925 667 2924 655 l 2926 680 q 2875 625 2909 652 q 2806 584 2841 599 q 2741 566 2772 569 q 2700 582 2711 563 q 2711 692 2677 618 q 2797 821 2745 765 m 779 690 q 811 592 783 638 q 882 532 839 547 q 836 439 861 460 q 778 427 810 418 q 753 472 759 433 q 751 558 747 511 q 767 648 756 606 q 779 690 772 670 m 1398 -221 q 1367 -210 1377 -221 q 1355 -181 1355 -199 q 1362 -150 1355 -163 q 1382 -127 1369 -135 q 1413 -119 1396 -119 q 1446 -130 1435 -119 q 1457 -159 1457 -141 q 1450 -190 1457 -175 q 1430 -212 1443 -204 q 1398 -221 1415 -221 m 499 -331 l 564 -2 l 2581 -2 l 2515 -331 l 499 -331 m 2314 -90 l 2308 -120 l 2359 -120 l 2333 -250 l 2370 -250 l 2397 -120 l 2448 -120 l 2454 -90 l 2314 -90 m 2106 -90 l 2074 -250 l 2110 -250 l 2130 -149 l 2190 -250 l 2221 -250 l 2253 -90 l 2216 -90 l 2196 -190 l 2136 -90 l 2106 -90 m 1857 -134 q 1844 -183 1844 -157 q 1853 -219 1844 -202 q 1881 -244 1862 -235 q 1922 -252 1896 -252 q 1973 -240 1951 -252 q 2009 -205 1996 -228 q 2022 -157 2022 -183 q 2012 -120 2022 -137 q 1985 -96 2004 -106 q 1943 -87 1968 -87 q 1891 -99 1914 -87 q 1857 -134 1870 -111 m 1685 -90 l 1653 -250 l 1691 -250 l 1702 -191 l 1776 -191 l 1782 -161 l 1708 -161 l 1716 -119 l 1800 -119 l 1806 -90 l 1685 -90 m 1330 -134 q 1318 -183 1318 -156 q 1326 -219 1318 -203 q 1354 -244 1335 -235 q 1396 -252 1369 -252 q 1447 -240 1425 -252 q 1482 -205 1470 -228 q 1495 -157 1495 -184 q 1485 -120 1495 -137 q 1458 -96 1477 -106 q 1417 -87 1441 -87 q 1365 -99 1388 -87 q 1330 -134 1343 -111 m 1084 -90 l 1053 -250 l 1087 -250 l 1107 -154 l 1139 -233 l 1156 -233 l 1217 -155 l 1198 -250 l 1233 -250 l 1265 -90 l 1233 -90 l 1155 -189 l 1115 -90 l 1084 -90 m 889 -90 l 857 -250 l 981 -250 l 987 -220 l 900 -220 l 907 -183 l 982 -183 l 988 -154 l 913 -154 l 920 -119 l 1004 -119 l 1010 -90 l 889 -90 m 659 -90 l 627 -250 l 705 -250 q 758 -238 734 -250 q 793 -205 781 -227 q 805 -157 805 -184 q 795 -121 805 -136 q 768 -98 787 -106 q 726 -90 751 -90 l 659 -90 m 1925 -221 q 1893 -210 1904 -221 q 1882 -181 1882 -199 q 1889 -150 1882 -163 q 1909 -127 1896 -135 q 1940 -119 1922 -119 q 1972 -130 1961 -119 q 1984 -159 1984 -141 q 1977 -190 1984 -176 q 1957 -212 1969 -204 q 1925 -221 1942 -221 m 739 -212 q 707 -219 726 -219 l 670 -219 l 690 -120 l 722 -120 q 756 -130 745 -120 q 768 -159 768 -140 q 760 -190 768 -175 q 739 -212 753 -203 z "},"2":{"ha":3080,"x_min":21,"x_max":3061,"o":"m 1890 349 q 2041 463 1934 414 q 1979 317 2005 364 q 1923 259 1953 269 q 1876 259 1890 249 q 1866 294 1862 269 q 1890 349 1870 319 m 830 725 q 883 713 866 780 q 892 585 897 659 q 890 564 892 571 l 890 563 q 829 635 850 585 q 830 725 808 686 m 3057 743 q 3036 643 3061 688 q 3048 604 3048 626 q 3011 490 3048 530 q 2904 413 2972 446 q 2773 380 2837 380 q 2664 416 2709 380 q 2627 455 2646 429 q 2456 374 2555 374 q 2382 386 2417 374 q 2381 380 2382 384 q 2379 376 2380 377 q 2330 175 2328 203 q 2327 132 2336 153 q 2300 99 2319 111 q 2262 88 2281 88 q 2215 106 2235 88 q 2153 182 2178 140 q 2081 108 2125 140 q 1944 56 2009 56 q 1895 68 1919 56 q 1859 93 1872 80 q 1824 129 1845 105 q 1771 204 1791 165 q 1758 282 1754 239 q 1755 286 1757 283 q 1751 289 1752 288 q 1695 276 1725 276 q 1563 361 1616 276 q 1550 390 1555 374 q 1547 393 1548 391 q 1543 396 1545 394 q 1540 399 1541 398 q 1532 348 1532 363 q 1496 290 1531 310 q 1461 281 1480 281 q 1428 290 1443 281 q 1403 306 1419 294 q 1387 300 1396 302 q 1362 298 1373 298 q 1297 313 1329 298 q 1244 360 1265 328 q 1149 303 1196 305 q 1133 302 1143 302 q 1019 355 1057 302 q 845 254 947 254 q 715 308 772 254 q 722 249 717 276 q 716 209 725 228 q 690 178 707 190 q 652 168 673 168 q 612 180 631 168 q 503 311 547 233 q 460 371 478 341 q 473 239 450 280 q 471 169 492 203 q 411 135 450 135 l 410 135 q 384 137 399 135 q 336 155 368 140 q 281 198 304 171 q 183 385 193 300 q 144 372 165 372 q 119 376 131 372 q 71 408 92 387 q 40 450 50 428 q 25 492 30 473 q 22 525 21 511 q 24 536 23 529 q 32 559 26 543 q 46 593 37 576 q 73 632 55 610 q 112 672 90 653 q 169 708 134 690 q 246 739 204 726 q 293 892 273 833 q 328 977 313 951 q 352 1010 344 1002 q 376 1023 361 1017 q 404 1027 388 1027 q 546 941 461 1027 q 555 930 551 936 q 664 1137 598 1030 q 791 1204 706 1204 q 903 1176 846 1204 q 956 1114 920 1167 q 993 1041 992 1060 q 960 979 995 1002 q 920 939 941 967 q 1003 867 968 913 q 1017 831 1015 851 q 1022 827 1019 830 q 1067 886 1043 863 q 1192 934 1119 934 q 1262 919 1230 934 q 1314 880 1295 905 q 1348 882 1332 882 q 1477 1162 1394 1026 q 1603 1230 1518 1230 q 1716 1201 1658 1230 q 1754 1142 1752 1183 l 1754 1137 q 2025 1143 1834 1143 q 2064 1143 2039 1143 q 2108 1143 2089 1143 q 2144 1143 2128 1143 q 2175 1144 2160 1143 q 2203 1146 2190 1145 q 2228 1149 2216 1147 q 2251 1154 2241 1152 q 2269 1158 2260 1156 q 2284 1162 2278 1160 q 2296 1165 2291 1164 q 2303 1168 2300 1166 l 2305 1168 q 2331 1173 2317 1173 q 2381 1152 2360 1173 q 2411 1111 2390 1143 q 2433 1076 2431 1078 q 2447 1000 2462 1036 q 2429 967 2442 987 q 2492 913 2481 959 q 2493 898 2493 908 q 2522 901 2506 901 q 2620 859 2581 901 q 2678 914 2652 895 q 2822 964 2746 964 q 2926 938 2883 964 q 3011 854 2969 911 q 3046 800 3035 825 q 3057 743 3056 774 m 600 313 q 606 542 584 410 q 673 787 629 673 q 771 993 717 902 q 871 1114 826 1084 q 859 1119 867 1116 q 831 1128 852 1122 q 793 1135 811 1134 q 755 1127 775 1135 q 724 1100 735 1119 q 619 900 661 999 q 559 731 576 801 q 535 598 541 662 q 531 503 529 534 q 536 450 532 473 q 494 562 509 498 q 479 681 480 625 q 482 785 479 736 q 491 863 486 834 l 496 892 q 476 912 488 900 q 437 943 463 924 q 399 957 410 961 q 360 870 389 953 q 302 680 332 787 q 205 648 248 669 q 143 606 163 627 q 110 564 122 584 q 95 530 97 543 l 92 517 q 281 596 123 563 q 256 481 261 513 q 254 384 247 422 q 278 324 261 345 q 314 293 296 303 q 346 282 332 283 l 359 280 q 336 392 336 322 q 350 532 335 462 q 384 666 366 602 q 418 770 403 730 l 434 810 q 462 556 438 671 q 490 466 472 508 q 526 396 508 423 q 562 350 545 370 q 589 321 578 330 l 600 313 m 1238 505 q 1267 457 1246 473 q 1305 444 1288 442 l 1322 444 q 1318 449 1320 446 q 1312 464 1316 452 q 1304 492 1307 476 q 1302 535 1302 507 q 1308 597 1302 564 q 1328 696 1315 643 q 1350 781 1341 750 l 1359 812 q 1337 812 1350 812 q 1296 804 1323 812 q 1261 779 1270 795 q 1201 655 1227 718 q 1146 551 1174 593 q 1111 509 1126 521 q 1086 506 1097 496 q 1088 585 1071 519 q 1138 714 1106 650 q 1163 762 1154 745 q 1184 793 1173 779 q 1205 811 1195 807 q 1229 816 1216 816 q 1261 811 1242 817 q 1239 852 1270 836 q 1158 859 1202 872 q 1115 834 1133 851 q 1060 748 1086 808 q 1019 625 1033 689 q 954 559 991 576 q 969 668 970 628 q 936 789 965 757 q 859 815 907 821 q 947 825 897 840 q 945 828 947 827 q 938 836 943 830 q 927 847 933 842 q 913 860 922 852 q 896 872 905 867 q 876 882 887 878 q 854 889 865 887 q 830 891 843 892 q 806 886 818 890 q 731 799 769 873 q 674 636 692 725 q 673 498 656 547 q 713 433 686 459 q 773 400 740 408 q 843 411 806 393 q 911 472 881 429 q 943 528 931 500 q 1010 568 979 536 q 1011 507 1007 536 q 1038 458 1017 470 q 1093 448 1059 446 q 1165 516 1122 450 q 1235 646 1207 581 l 1263 710 q 1260 703 1262 707 q 1255 683 1259 698 q 1247 652 1251 667 q 1240 617 1244 637 q 1235 578 1236 596 q 1234 540 1233 559 q 1238 505 1234 520 m 1672 429 q 1666 435 1670 431 q 1655 454 1663 439 q 1643 487 1647 469 q 1639 536 1639 505 q 1649 602 1640 566 q 1678 703 1662 654 q 1705 776 1695 753 l 1714 800 l 1649 831 q 1626 829 1636 837 q 1575 789 1602 813 q 1504 715 1548 766 q 1430 608 1460 664 q 1546 939 1468 777 q 1684 1139 1623 1100 q 1672 1145 1680 1141 q 1645 1154 1665 1148 q 1606 1160 1624 1160 q 1568 1153 1588 1161 q 1537 1126 1548 1145 q 1440 933 1475 1025 q 1379 732 1405 842 q 1355 598 1365 671 q 1348 503 1345 525 q 1366 464 1350 483 q 1396 435 1381 444 l 1410 426 q 1413 461 1411 439 q 1434 538 1415 483 q 1486 636 1453 594 q 1554 718 1522 684 q 1599 760 1586 751 l 1612 769 q 1603 745 1609 760 q 1584 689 1596 730 q 1563 612 1571 648 q 1556 536 1556 576 q 1571 474 1556 496 q 1600 439 1585 452 q 1628 424 1616 426 q 1651 422 1640 421 q 1666 426 1661 423 l 1672 429 m 1811 363 q 1795 434 1796 389 q 1806 535 1794 479 q 1837 651 1819 591 q 1880 774 1855 710 q 1927 889 1905 839 q 1971 989 1948 940 q 2190 995 2163 993 q 2242 1009 2218 997 q 2282 1037 2266 1021 q 2309 1067 2298 1053 q 2326 1093 2321 1082 l 2331 1103 q 2307 1095 2323 1100 q 2243 1082 2292 1090 q 2145 1073 2195 1074 q 2031 1072 2108 1072 q 1905 1072 1953 1072 q 1802 1070 1857 1072 q 1718 1064 1747 1068 q 1665 1046 1689 1060 q 1625 1015 1640 1032 q 1599 982 1610 998 q 1584 954 1588 965 l 1579 943 q 1638 966 1590 956 q 1735 980 1686 977 q 1864 985 1776 983 q 1822 873 1852 951 q 1764 716 1791 795 q 1720 569 1736 637 q 1716 490 1710 524 q 1737 432 1721 456 q 1769 393 1752 408 q 1799 370 1786 378 l 1811 363 m 2555 623 q 2590 699 2581 666 q 2597 749 2599 732 q 2586 787 2595 766 q 2483 823 2557 850 q 2410 777 2447 809 q 2355 718 2373 744 l 2336 692 q 2423 897 2419 895 l 2406 899 q 2315 867 2340 899 q 2309 860 2311 864 q 2220 612 2268 745 q 2212 588 2215 595 q 2139 546 2155 553 q 2185 681 2155 600 q 2237 814 2215 761 l 2258 867 q 2235 865 2249 866 q 2192 855 2221 863 q 2153 833 2163 846 q 2102 761 2146 827 q 2017 650 2057 696 q 1963 614 1978 604 q 2005 732 1947 625 q 2081 862 2064 840 q 2070 862 2077 862 q 2044 859 2063 861 q 2009 850 2025 856 q 1977 833 1994 845 q 1952 806 1960 822 q 1928 760 1938 779 q 1907 715 1919 741 q 1888 670 1895 689 q 1877 633 1882 652 q 1874 600 1872 614 q 1882 577 1875 586 q 1920 562 1893 563 q 1980 578 1946 561 q 2041 629 2014 595 l 2142 764 q 2057 509 2094 615 q 1999 474 2036 496 q 1947 443 1963 453 q 1909 412 1932 433 q 1864 363 1885 391 q 1835 310 1844 337 q 1828 260 1826 282 q 1842 223 1830 239 q 1875 203 1855 208 q 1925 207 1895 198 q 1989 240 1955 216 q 2061 327 2035 273 q 2123 492 2087 382 q 2124 498 2123 496 q 2126 503 2125 500 q 2128 509 2127 507 q 2198 549 2168 534 q 2144 372 2159 440 q 2154 310 2137 345 q 2190 255 2170 275 l 2211 234 q 2217 312 2204 256 q 2260 471 2230 368 q 2341 661 2292 577 q 2435 762 2376 720 q 2511 791 2494 804 q 2513 747 2519 781 q 2492 682 2507 713 q 2448 617 2474 644 q 2399 577 2422 590 q 2355 558 2376 565 q 2321 550 2334 551 l 2308 549 q 2317 544 2311 547 q 2339 533 2322 541 q 2372 522 2355 526 q 2414 519 2389 518 q 2460 530 2438 521 q 2508 563 2483 539 q 2555 623 2534 587 m 2797 821 q 2867 857 2833 861 q 2890 831 2889 853 q 2851 765 2890 801 q 2806 742 2831 747 q 2764 739 2780 736 l 2747 742 q 2750 736 2748 740 q 2758 724 2751 733 q 2773 709 2764 715 q 2796 698 2781 703 q 2827 694 2810 693 q 2911 733 2884 699 q 2936 814 2939 768 q 2902 868 2934 844 q 2823 895 2871 892 q 2720 858 2776 897 q 2657 793 2686 832 q 2614 709 2629 753 q 2608 621 2599 665 q 2656 546 2618 576 q 2742 527 2692 518 q 2837 559 2792 535 q 2907 612 2882 584 q 2920 638 2915 621 q 2926 667 2925 655 l 2926 680 q 2875 625 2909 652 q 2807 584 2842 599 q 2741 566 2772 569 q 2700 582 2711 563 q 2711 692 2677 618 q 2797 821 2745 765 m 779 690 q 811 592 783 638 q 882 532 839 547 q 836 439 861 460 q 779 427 811 418 q 753 472 760 433 q 752 558 747 511 q 767 648 756 606 q 779 690 772 670 m 1399 -221 q 1367 -210 1377 -221 q 1355 -181 1355 -199 q 1362 -150 1355 -163 q 1383 -127 1369 -135 q 1413 -119 1396 -119 q 1446 -130 1435 -119 q 1457 -159 1457 -141 q 1450 -190 1457 -175 q 1430 -212 1443 -204 q 1399 -221 1415 -221 m 499 -331 l 564 -2 l 2581 -2 l 2515 -331 l 499 -331 m 2314 -90 l 2308 -120 l 2359 -120 l 2333 -250 l 2370 -250 l 2397 -120 l 2448 -120 l 2454 -90 l 2314 -90 m 2106 -90 l 2074 -250 l 2110 -250 l 2131 -149 l 2190 -250 l 2221 -250 l 2253 -90 l 2216 -90 l 2196 -190 l 2136 -90 l 2106 -90 m 1857 -134 q 1844 -183 1844 -157 q 1853 -219 1844 -202 q 1881 -244 1862 -235 q 1922 -252 1896 -252 q 1974 -240 1952 -252 q 2009 -205 1996 -229 q 2022 -157 2022 -183 q 2012 -120 2022 -137 q 1985 -96 2004 -106 q 1943 -87 1968 -87 q 1891 -99 1914 -87 q 1857 -134 1870 -111 m 1685 -90 l 1653 -250 l 1691 -250 l 1702 -191 l 1776 -191 l 1782 -161 l 1708 -161 l 1716 -119 l 1800 -119 l 1807 -90 l 1685 -90 m 1330 -134 q 1318 -183 1318 -156 q 1326 -219 1318 -203 q 1354 -244 1335 -235 q 1396 -252 1369 -252 q 1447 -240 1425 -252 q 1482 -205 1470 -228 q 1495 -157 1495 -184 q 1485 -120 1495 -137 q 1458 -96 1477 -106 q 1417 -87 1441 -87 q 1365 -99 1388 -87 q 1330 -134 1343 -111 m 1084 -90 l 1053 -250 l 1087 -250 l 1107 -154 l 1139 -233 l 1156 -233 l 1217 -155 l 1198 -250 l 1233 -250 l 1265 -90 l 1233 -90 l 1155 -189 l 1115 -90 l 1084 -90 m 890 -90 l 857 -250 l 981 -250 l 988 -220 l 901 -220 l 907 -183 l 982 -183 l 988 -154 l 913 -154 l 920 -119 l 1004 -119 l 1010 -90 l 890 -90 m 659 -90 l 627 -250 l 705 -250 q 758 -238 734 -250 q 793 -205 781 -227 q 805 -157 805 -184 q 795 -121 805 -136 q 768 -98 787 -106 q 726 -90 751 -90 l 659 -90 m 1925 -221 q 1893 -210 1904 -221 q 1882 -181 1882 -199 q 1889 -150 1882 -163 q 1909 -127 1896 -135 q 1940 -119 1922 -119 q 1972 -130 1961 -119 q 1984 -159 1984 -141 q 1977 -190 1984 -176 q 1957 -212 1969 -204 q 1925 -221 1942 -221 m 739 -212 q 707 -219 726 -219 l 670 -219 l 690 -120 l 722 -120 q 756 -130 745 -120 q 768 -159 768 -140 q 760 -190 768 -175 q 739 -212 753 -203 z "},"3":{"ha":3080,"x_min":21,"x_max":3061,"o":"m 1890 349 q 2041 463 1934 414 q 1979 317 2005 364 q 1923 259 1953 269 q 1876 259 1890 249 q 1866 294 1862 269 q 1890 349 1870 319 m 830 725 q 883 713 866 780 q 892 585 897 659 q 890 564 892 571 l 890 563 q 829 635 850 585 q 830 725 808 686 m 3057 743 q 3036 643 3061 688 q 3048 604 3048 626 q 3011 490 3048 530 q 2904 413 2972 446 q 2773 380 2837 380 q 2664 416 2709 380 q 2627 455 2646 429 q 2456 374 2555 374 q 2382 386 2417 374 q 2381 380 2382 384 q 2379 376 2380 377 q 2330 175 2328 203 q 2327 132 2336 153 q 2300 99 2319 111 q 2262 88 2281 88 q 2215 106 2235 88 q 2153 182 2178 140 q 2081 108 2125 140 q 1944 56 2009 56 q 1895 68 1919 56 q 1859 93 1872 80 q 1824 129 1845 105 q 1771 204 1791 165 q 1758 282 1754 239 q 1755 286 1757 283 q 1751 289 1752 288 q 1695 276 1725 276 q 1563 361 1616 276 q 1550 390 1555 374 q 1547 393 1548 391 q 1543 396 1545 394 q 1540 399 1541 398 q 1532 348 1532 363 q 1496 290 1531 310 q 1461 281 1480 281 q 1428 290 1443 281 q 1403 306 1419 294 q 1387 300 1396 302 q 1362 298 1373 298 q 1297 313 1329 298 q 1244 360 1265 328 q 1149 303 1196 305 q 1133 302 1143 302 q 1019 355 1057 302 q 845 254 947 254 q 715 308 772 254 q 722 249 717 276 q 716 209 725 228 q 690 178 707 190 q 652 168 673 168 q 612 180 631 168 q 503 311 547 233 q 460 371 478 341 q 473 239 450 280 q 471 169 492 203 q 411 135 450 135 l 410 135 q 384 137 399 135 q 336 155 368 140 q 281 198 304 171 q 183 385 193 300 q 144 372 165 372 q 119 376 131 372 q 71 408 92 387 q 40 450 50 428 q 25 492 30 473 q 22 525 21 511 q 24 536 23 529 q 32 559 26 543 q 46 593 37 576 q 73 632 55 610 q 112 672 90 653 q 169 708 134 690 q 246 739 204 726 q 293 892 273 833 q 328 977 313 951 q 352 1010 344 1002 q 376 1023 361 1017 q 404 1027 388 1027 q 546 941 461 1027 q 555 930 551 936 q 664 1137 598 1030 q 791 1204 706 1204 q 903 1176 846 1204 q 956 1114 920 1167 q 993 1041 992 1060 q 960 979 995 1002 q 920 939 941 967 q 1003 867 968 913 q 1017 831 1015 851 q 1022 827 1019 830 q 1067 886 1043 863 q 1192 934 1119 934 q 1262 919 1230 934 q 1314 880 1295 905 q 1348 882 1332 882 q 1477 1162 1394 1026 q 1603 1230 1518 1230 q 1716 1201 1658 1230 q 1754 1142 1752 1183 l 1754 1137 q 2025 1143 1834 1143 q 2064 1143 2039 1143 q 2108 1143 2089 1143 q 2144 1143 2128 1143 q 2175 1144 2160 1143 q 2203 1146 2190 1145 q 2228 1149 2216 1147 q 2251 1154 2241 1152 q 2269 1158 2260 1156 q 2284 1162 2278 1160 q 2296 1165 2291 1164 q 2303 1168 2300 1166 l 2305 1168 q 2331 1173 2317 1173 q 2381 1152 2360 1173 q 2411 1111 2390 1143 q 2433 1076 2431 1078 q 2447 1000 2462 1036 q 2429 967 2442 987 q 2491 913 2480 959 q 2493 898 2493 905 q 2522 901 2506 901 q 2620 859 2580 901 q 2678 914 2650 894 q 2822 964 2746 964 q 2926 938 2883 964 q 3011 854 2969 911 q 3046 800 3035 825 q 3057 743 3056 774 m 600 313 q 606 542 584 410 q 673 787 629 673 q 771 993 717 902 q 871 1114 826 1084 q 859 1119 867 1116 q 831 1128 852 1122 q 793 1135 811 1134 q 755 1127 775 1135 q 724 1100 735 1119 q 618 900 661 999 q 558 731 576 801 q 534 598 541 662 q 530 503 528 534 q 536 450 532 473 q 494 562 508 498 q 479 681 479 625 q 481 785 478 736 q 490 863 485 834 l 496 892 q 475 912 488 900 q 436 943 463 924 q 399 957 410 961 q 360 870 389 953 q 302 680 332 787 q 205 648 248 669 q 143 606 163 627 q 110 564 122 584 q 95 530 97 543 l 92 517 q 281 596 123 563 q 256 481 261 513 q 254 384 247 422 q 278 324 261 345 q 314 293 296 303 q 346 282 332 283 l 359 280 q 336 392 336 322 q 350 532 335 462 q 384 666 366 602 q 418 770 403 730 l 434 810 q 462 556 438 671 q 490 466 472 508 q 526 396 508 423 q 562 350 545 370 q 589 321 578 330 l 600 313 m 1238 505 q 1267 457 1246 473 q 1305 444 1288 442 l 1322 444 q 1318 449 1320 446 q 1312 464 1316 452 q 1304 492 1307 476 q 1302 535 1302 507 q 1308 597 1302 564 q 1328 696 1315 643 q 1350 781 1341 750 l 1359 812 q 1337 812 1350 812 q 1296 804 1323 812 q 1261 779 1270 795 q 1201 655 1227 718 q 1146 551 1174 593 q 1111 509 1126 521 q 1086 506 1097 496 q 1088 585 1071 519 q 1138 714 1106 650 q 1163 762 1154 745 q 1184 793 1173 779 q 1205 811 1195 807 q 1229 816 1216 816 q 1261 811 1242 817 q 1239 852 1270 836 q 1158 859 1202 872 q 1115 834 1133 851 q 1060 748 1086 808 q 1019 625 1033 689 q 954 559 991 576 q 969 668 970 628 q 936 789 965 757 q 859 815 907 821 q 947 825 897 840 q 945 828 947 827 q 938 836 943 830 q 927 847 933 842 q 913 860 922 852 q 896 872 905 867 q 876 882 887 878 q 854 889 865 887 q 830 891 843 892 q 806 886 818 890 q 731 799 769 873 q 674 636 692 725 q 673 498 656 547 q 713 433 686 459 q 773 400 740 408 q 843 411 806 393 q 911 472 881 429 q 943 528 931 500 q 1010 568 979 536 q 1011 507 1007 536 q 1038 458 1017 470 q 1093 448 1059 446 q 1165 516 1122 450 q 1235 646 1207 581 l 1263 710 q 1260 703 1262 707 q 1255 683 1259 698 q 1247 652 1251 667 q 1240 617 1244 637 q 1235 578 1236 596 q 1234 540 1233 559 q 1238 505 1234 520 m 1672 429 q 1666 435 1670 431 q 1655 454 1663 439 q 1643 487 1647 469 q 1639 536 1639 505 q 1649 602 1640 566 q 1678 703 1662 654 q 1705 776 1695 753 l 1714 800 l 1649 831 q 1626 829 1636 837 q 1575 789 1602 813 q 1504 715 1548 766 q 1430 608 1460 664 q 1546 939 1468 777 q 1684 1139 1623 1100 q 1672 1145 1680 1141 q 1645 1154 1665 1148 q 1606 1160 1624 1160 q 1568 1153 1588 1161 q 1537 1126 1548 1145 q 1440 933 1475 1025 q 1379 732 1405 842 q 1355 598 1365 671 q 1348 503 1345 525 q 1366 464 1350 483 q 1396 435 1381 444 l 1410 426 q 1413 461 1411 439 q 1434 538 1415 483 q 1486 636 1453 594 q 1554 718 1522 684 q 1599 760 1586 751 l 1612 769 q 1603 745 1609 760 q 1584 689 1596 730 q 1563 612 1571 648 q 1556 536 1556 576 q 1571 474 1556 496 q 1600 439 1585 452 q 1628 424 1616 426 q 1651 422 1640 421 q 1666 426 1661 423 l 1672 429 m 1811 363 q 1795 434 1796 389 q 1806 535 1794 479 q 1837 651 1819 591 q 1880 774 1855 710 q 1927 889 1905 839 q 1971 989 1948 940 q 2190 995 2163 993 q 2242 1009 2218 997 q 2282 1037 2266 1021 q 2309 1067 2298 1053 q 2326 1093 2321 1082 l 2331 1103 q 2307 1095 2323 1100 q 2243 1082 2292 1090 q 2145 1073 2195 1074 q 2031 1072 2108 1072 q 1905 1072 1953 1072 q 1802 1070 1857 1072 q 1718 1064 1747 1068 q 1665 1046 1689 1060 q 1625 1015 1640 1032 q 1599 982 1610 998 q 1584 954 1588 965 l 1579 943 q 1638 966 1590 956 q 1735 980 1686 977 q 1864 985 1776 983 q 1822 873 1852 951 q 1764 716 1791 795 q 1720 569 1736 637 q 1716 490 1710 524 q 1737 432 1721 456 q 1769 393 1752 408 q 1799 370 1786 378 l 1811 363 m 2555 623 q 2590 699 2581 665 q 2597 749 2599 732 q 2585 787 2594 766 q 2483 823 2557 850 q 2410 777 2447 809 q 2355 718 2373 744 l 2336 692 q 2423 897 2419 895 l 2406 899 q 2315 867 2340 899 q 2309 860 2311 864 q 2220 612 2268 745 q 2212 588 2215 595 q 2139 546 2155 553 q 2185 681 2155 600 q 2237 814 2215 761 l 2258 867 q 2235 865 2249 866 q 2192 855 2221 863 q 2153 833 2163 846 q 2102 761 2146 827 q 2017 650 2057 696 q 1963 614 1978 604 q 2005 732 1947 625 q 2081 862 2064 840 q 2070 862 2077 862 q 2044 859 2063 861 q 2009 850 2025 856 q 1976 833 1993 845 q 1951 806 1959 822 q 1884 660 1905 718 q 1882 577 1864 602 q 1920 562 1893 563 q 1980 578 1946 561 q 2041 629 2014 595 l 2142 764 q 2057 509 2094 615 q 1999 474 2035 495 q 1947 443 1963 453 q 1908 412 1931 433 q 1864 363 1885 391 q 1830 299 1839 332 q 1831 244 1822 267 q 1860 209 1840 221 q 1914 204 1879 196 q 1989 240 1949 212 q 2060 326 2035 272 q 2121 488 2085 380 q 2127 509 2125 502 q 2198 549 2165 532 q 2144 372 2159 440 q 2145 334 2140 355 q 2160 296 2150 313 q 2182 265 2171 279 q 2201 242 2193 250 l 2210 234 q 2216 312 2203 256 q 2260 471 2229 368 q 2341 661 2290 575 q 2435 762 2376 720 q 2511 791 2494 804 q 2513 747 2519 781 q 2492 682 2507 713 q 2448 617 2474 644 q 2399 577 2422 590 q 2355 558 2376 565 q 2321 550 2334 551 l 2308 549 q 2317 544 2311 547 q 2339 533 2322 541 q 2372 522 2355 526 q 2414 519 2389 518 q 2460 530 2438 521 q 2508 563 2483 539 q 2555 623 2534 587 m 2797 821 q 2867 857 2833 861 q 2890 831 2889 853 q 2851 765 2890 801 q 2806 742 2831 747 q 2764 739 2780 736 l 2747 742 q 2750 736 2748 740 q 2758 724 2751 733 q 2773 709 2764 715 q 2796 698 2781 703 q 2827 694 2810 693 q 2911 733 2884 699 q 2936 814 2939 768 q 2902 868 2934 844 q 2823 895 2871 892 q 2720 858 2776 897 q 2657 793 2686 832 q 2614 709 2629 753 q 2608 621 2599 665 q 2656 546 2618 576 q 2742 527 2692 518 q 2837 559 2792 535 q 2907 612 2882 584 q 2920 638 2915 621 q 2925 667 2924 655 l 2926 680 q 2875 625 2909 652 q 2806 584 2841 599 q 2741 566 2772 569 q 2700 582 2711 563 q 2711 692 2677 618 q 2797 821 2745 765 m 779 690 q 811 592 783 638 q 882 532 839 547 q 836 439 861 460 q 778 427 810 418 q 753 472 759 433 q 751 558 747 511 q 767 648 756 606 q 779 690 772 670 m 1399 -221 q 1367 -210 1377 -221 q 1355 -181 1355 -199 q 1362 -150 1355 -163 q 1383 -127 1369 -135 q 1413 -119 1396 -119 q 1446 -130 1435 -119 q 1457 -159 1457 -141 q 1450 -190 1457 -175 q 1430 -212 1443 -204 q 1399 -221 1415 -221 m 499 -331 l 564 -2 l 2581 -2 l 2515 -331 l 499 -331 m 2314 -90 l 2308 -120 l 2359 -120 l 2333 -250 l 2370 -250 l 2397 -120 l 2448 -120 l 2454 -90 l 2314 -90 m 2106 -90 l 2074 -250 l 2110 -250 l 2131 -149 l 2190 -250 l 2221 -250 l 2253 -90 l 2216 -90 l 2196 -190 l 2136 -90 l 2106 -90 m 1857 -134 q 1844 -183 1844 -157 q 1853 -219 1844 -202 q 1881 -244 1862 -235 q 1922 -252 1896 -252 q 1973 -240 1951 -252 q 2009 -205 1996 -228 q 2022 -157 2022 -183 q 2012 -120 2022 -137 q 1985 -96 2004 -106 q 1943 -87 1968 -87 q 1891 -99 1914 -87 q 1857 -134 1870 -111 m 1685 -90 l 1653 -250 l 1691 -250 l 1702 -191 l 1776 -191 l 1782 -161 l 1708 -161 l 1716 -119 l 1800 -119 l 1806 -90 l 1685 -90 m 1330 -134 q 1318 -183 1318 -156 q 1326 -219 1318 -203 q 1354 -244 1335 -235 q 1396 -252 1369 -252 q 1447 -240 1425 -252 q 1482 -205 1470 -228 q 1495 -157 1495 -184 q 1485 -120 1495 -137 q 1458 -96 1477 -106 q 1417 -87 1441 -87 q 1365 -99 1388 -87 q 1330 -134 1343 -111 m 1084 -90 l 1053 -250 l 1087 -250 l 1106 -154 l 1139 -233 l 1156 -233 l 1217 -155 l 1198 -250 l 1233 -250 l 1265 -90 l 1233 -90 l 1155 -189 l 1115 -90 l 1084 -90 m 890 -90 l 857 -250 l 981 -250 l 988 -220 l 901 -220 l 907 -183 l 982 -183 l 988 -154 l 913 -154 l 920 -119 l 1004 -119 l 1010 -90 l 890 -90 m 659 -90 l 627 -250 l 705 -250 q 758 -238 734 -250 q 793 -205 781 -227 q 805 -157 805 -184 q 795 -121 805 -136 q 768 -98 787 -106 q 726 -90 751 -90 l 659 -90 m 1925 -221 q 1893 -210 1904 -221 q 1882 -181 1882 -199 q 1889 -150 1882 -163 q 1909 -127 1896 -135 q 1940 -119 1922 -119 q 1972 -130 1961 -119 q 1984 -159 1984 -141 q 1977 -190 1984 -176 q 1957 -212 1969 -204 q 1925 -221 1942 -221 m 739 -212 q 707 -219 726 -219 l 670 -219 l 690 -120 l 722 -120 q 756 -130 745 -120 q 768 -159 768 -140 q 760 -190 768 -175 q 739 -212 753 -203 z "},"4":{"ha":3080,"x_min":21,"x_max":3061,"o":"m 1890 349 q 2041 463 1934 414 q 1979 317 2005 364 q 1923 259 1953 269 q 1876 259 1890 249 q 1866 294 1862 269 q 1890 349 1870 319 m 830 725 q 883 713 866 780 q 892 585 897 659 q 890 564 892 571 l 890 563 q 829 635 850 585 q 830 725 808 686 m 3057 743 q 3036 643 3061 688 q 3048 604 3048 626 q 3011 490 3048 530 q 2904 413 2972 446 q 2773 380 2837 380 q 2664 416 2709 380 q 2626 455 2644 431 q 2456 374 2554 374 q 2382 386 2416 374 q 2380 380 2381 384 q 2379 376 2380 377 q 2330 175 2328 203 q 2327 132 2336 153 q 2299 99 2319 111 q 2262 88 2281 88 q 2215 106 2235 88 q 2153 182 2177 142 q 2081 108 2124 138 q 1944 56 2009 56 q 1895 68 1919 56 q 1859 93 1872 80 q 1824 129 1845 105 q 1771 204 1791 165 q 1758 282 1754 239 q 1755 286 1757 283 q 1751 289 1752 288 q 1695 276 1725 276 q 1563 361 1616 276 q 1550 390 1555 374 q 1547 393 1548 391 q 1543 396 1545 394 q 1540 399 1541 398 q 1532 348 1532 363 q 1496 290 1531 310 q 1461 281 1480 281 q 1428 290 1443 281 q 1403 306 1419 294 q 1387 300 1396 302 q 1362 298 1373 298 q 1297 313 1329 298 q 1244 360 1265 328 q 1149 303 1196 305 q 1133 302 1143 302 q 1019 355 1057 302 q 845 254 947 254 q 715 308 772 254 q 722 249 717 276 q 716 209 725 228 q 690 178 707 190 q 652 168 673 168 q 612 180 631 168 q 503 311 547 233 q 460 371 478 341 q 473 239 450 280 q 471 169 492 203 q 411 135 450 135 l 410 135 q 384 137 399 135 q 336 155 368 140 q 281 198 304 171 q 183 385 193 300 q 144 372 165 372 q 119 376 131 372 q 71 408 92 387 q 40 450 50 428 q 25 492 30 473 q 22 525 21 511 q 24 536 23 529 q 32 559 26 543 q 46 593 37 576 q 73 632 55 610 q 112 672 90 653 q 169 708 134 690 q 246 739 204 726 q 293 892 273 833 q 328 977 313 951 q 352 1010 344 1002 q 376 1023 361 1017 q 404 1027 388 1027 q 546 941 461 1027 q 555 930 551 936 q 664 1137 598 1030 q 791 1204 706 1204 q 903 1176 846 1204 q 956 1114 920 1167 q 993 1041 992 1060 q 960 979 995 1002 q 920 939 941 967 q 1003 867 968 913 q 1017 831 1015 851 q 1022 827 1019 830 q 1067 886 1043 863 q 1192 934 1119 934 q 1262 919 1230 934 q 1314 880 1295 905 q 1348 882 1332 882 q 1477 1162 1394 1026 q 1603 1230 1518 1230 q 1716 1201 1658 1230 q 1754 1142 1752 1183 l 1754 1137 q 2025 1143 1834 1143 q 2064 1143 2039 1143 q 2108 1143 2089 1143 q 2144 1143 2128 1143 q 2175 1144 2160 1143 q 2203 1146 2190 1145 q 2228 1149 2216 1147 q 2251 1154 2241 1152 q 2269 1158 2260 1156 q 2284 1162 2278 1160 q 2296 1165 2291 1164 q 2303 1168 2300 1166 l 2305 1168 q 2331 1173 2317 1173 q 2381 1152 2360 1173 q 2411 1111 2390 1143 q 2433 1076 2431 1078 q 2447 1000 2462 1036 q 2429 967 2442 987 q 2491 913 2480 959 q 2493 898 2493 905 q 2522 901 2506 901 q 2620 859 2580 901 q 2678 914 2650 894 q 2822 964 2746 964 q 2926 938 2883 964 q 3011 854 2969 911 q 3046 800 3035 825 q 3057 743 3056 774 m 600 313 q 606 542 584 410 q 673 787 629 673 q 771 993 717 902 q 871 1114 826 1084 q 859 1119 867 1116 q 831 1128 852 1122 q 793 1135 811 1134 q 755 1127 775 1135 q 724 1100 735 1119 q 618 900 661 999 q 558 731 576 801 q 534 598 541 662 q 530 503 528 534 q 536 450 532 473 q 494 562 508 498 q 479 681 479 625 q 481 785 478 736 q 490 863 485 834 l 496 892 q 475 912 488 900 q 436 943 463 924 q 399 957 410 961 q 360 870 389 953 q 302 680 332 787 q 205 648 248 669 q 143 606 163 627 q 110 564 122 584 q 95 530 97 543 l 92 517 q 281 596 123 563 q 256 481 261 513 q 254 384 247 422 q 278 324 261 345 q 314 293 296 303 q 346 282 332 283 l 359 280 q 336 392 336 322 q 350 532 335 462 q 384 666 366 602 q 418 770 403 730 l 434 810 q 462 556 438 671 q 490 466 472 508 q 526 396 508 423 q 562 350 545 370 q 589 321 578 330 l 600 313 m 1238 505 q 1267 457 1246 473 q 1305 444 1288 442 l 1322 444 q 1318 449 1320 446 q 1312 464 1316 452 q 1304 492 1307 476 q 1302 535 1302 507 q 1308 597 1302 564 q 1328 696 1315 643 q 1350 781 1341 750 l 1359 812 q 1337 812 1350 812 q 1296 804 1323 812 q 1261 779 1270 795 q 1201 655 1227 718 q 1146 551 1174 593 q 1111 509 1126 521 q 1086 506 1097 496 q 1088 585 1071 519 q 1138 714 1106 650 q 1163 762 1154 745 q 1184 793 1173 779 q 1205 811 1195 807 q 1229 816 1216 816 q 1261 811 1242 817 q 1239 852 1270 836 q 1158 859 1202 872 q 1115 834 1133 851 q 1060 748 1086 808 q 1019 625 1033 689 q 954 559 991 576 q 969 668 970 628 q 936 789 965 757 q 859 815 907 821 q 947 825 897 840 q 945 828 947 827 q 938 836 943 830 q 927 847 933 842 q 913 860 922 852 q 896 872 905 867 q 876 882 887 878 q 854 889 865 887 q 830 891 843 892 q 806 886 818 890 q 731 799 769 873 q 674 636 692 725 q 673 498 656 547 q 713 433 686 459 q 773 400 740 408 q 843 411 806 393 q 911 472 881 429 q 943 528 931 500 q 1010 568 979 536 q 1011 507 1007 536 q 1038 458 1017 470 q 1093 448 1059 446 q 1165 516 1122 450 q 1235 646 1207 581 l 1263 710 q 1260 703 1262 707 q 1255 683 1259 698 q 1247 652 1251 667 q 1240 617 1244 637 q 1235 578 1236 596 q 1234 540 1233 559 q 1238 505 1234 520 m 1672 429 q 1666 435 1670 431 q 1655 454 1663 439 q 1643 487 1647 469 q 1639 536 1639 505 q 1649 602 1640 566 q 1678 703 1662 654 q 1705 776 1695 753 l 1714 800 l 1649 831 q 1626 829 1636 837 q 1575 789 1602 813 q 1504 715 1548 766 q 1430 608 1460 664 q 1546 939 1468 777 q 1684 1139 1623 1100 q 1672 1145 1680 1141 q 1645 1154 1665 1148 q 1606 1160 1624 1160 q 1568 1153 1588 1161 q 1537 1126 1548 1145 q 1440 933 1475 1025 q 1379 732 1405 842 q 1355 598 1365 671 q 1348 503 1345 525 q 1366 464 1350 483 q 1396 435 1381 444 l 1410 426 q 1413 461 1411 439 q 1434 538 1415 483 q 1486 636 1453 594 q 1554 718 1522 684 q 1599 760 1586 751 l 1612 769 q 1603 745 1609 760 q 1584 689 1596 730 q 1563 612 1571 648 q 1556 536 1556 576 q 1571 474 1556 496 q 1600 439 1585 452 q 1628 424 1616 426 q 1651 422 1640 421 q 1666 426 1661 423 l 1672 429 m 1811 363 q 1795 434 1796 389 q 1806 535 1794 479 q 1837 651 1819 591 q 1880 774 1855 710 q 1927 889 1905 839 q 1971 989 1948 940 q 2190 995 2163 993 q 2242 1009 2218 997 q 2282 1037 2266 1021 q 2309 1067 2298 1053 q 2326 1093 2321 1082 l 2331 1103 q 2307 1095 2323 1100 q 2243 1082 2292 1090 q 2145 1073 2195 1074 q 2031 1072 2108 1072 q 1905 1072 1953 1072 q 1802 1070 1857 1072 q 1718 1064 1747 1068 q 1665 1046 1689 1060 q 1625 1015 1640 1032 q 1599 982 1610 998 q 1584 954 1588 965 l 1579 943 q 1638 966 1590 956 q 1735 980 1686 977 q 1864 985 1776 983 q 1822 873 1852 951 q 1764 716 1791 795 q 1720 569 1736 637 q 1716 490 1710 524 q 1737 432 1721 456 q 1769 393 1752 408 q 1799 370 1786 378 l 1811 363 m 2555 623 q 2590 699 2581 665 q 2597 749 2599 732 q 2585 787 2594 766 q 2483 823 2557 850 q 2410 777 2447 809 q 2355 718 2373 744 l 2336 692 q 2423 897 2419 895 l 2406 899 q 2315 867 2340 899 q 2309 860 2311 864 q 2220 612 2268 745 q 2212 588 2215 595 q 2139 546 2155 553 q 2185 681 2155 600 q 2237 814 2215 761 l 2258 867 q 2235 865 2249 866 q 2192 855 2221 863 q 2153 833 2163 846 q 2102 761 2146 827 q 2017 650 2057 696 q 1963 614 1978 604 q 2005 732 1947 625 q 2081 862 2064 840 q 2070 862 2077 862 q 2044 859 2063 861 q 2009 850 2025 856 q 1976 833 1993 845 q 1951 806 1959 822 q 1884 660 1905 718 q 1882 577 1864 602 q 1920 562 1893 563 q 1980 578 1946 561 q 2041 629 2014 595 l 2142 764 q 2057 509 2094 615 q 1999 474 2035 495 q 1947 443 1963 453 q 1908 412 1931 433 q 1864 363 1885 391 q 1830 299 1839 332 q 1831 244 1822 267 q 1860 209 1840 221 q 1914 204 1879 196 q 1989 240 1949 212 q 2061 327 2035 273 q 2123 492 2087 382 q 2124 498 2123 496 q 2126 503 2125 500 q 2128 509 2127 507 q 2198 549 2168 534 q 2144 372 2159 440 q 2154 310 2137 345 q 2190 255 2170 275 l 2211 234 q 2260 471 2200 270 q 2341 661 2290 575 q 2435 762 2376 720 q 2511 791 2494 804 q 2513 747 2519 781 q 2492 682 2507 713 q 2448 617 2474 644 q 2399 577 2422 590 q 2355 558 2376 565 q 2321 550 2334 551 l 2308 549 q 2317 544 2311 547 q 2339 533 2322 541 q 2372 522 2355 526 q 2414 519 2389 518 q 2460 530 2438 521 q 2508 563 2483 539 q 2555 623 2534 587 m 2797 821 q 2867 857 2833 861 q 2890 831 2889 853 q 2851 765 2890 801 q 2806 742 2831 747 q 2764 739 2780 736 l 2747 742 q 2750 736 2748 740 q 2758 724 2751 733 q 2773 709 2764 715 q 2796 698 2781 703 q 2827 694 2810 693 q 2911 733 2884 699 q 2936 814 2939 768 q 2902 868 2934 844 q 2823 895 2871 892 q 2720 858 2776 897 q 2657 793 2686 832 q 2614 709 2629 753 q 2608 621 2599 665 q 2656 546 2618 576 q 2742 527 2692 518 q 2837 559 2792 535 q 2907 612 2882 584 q 2920 638 2915 621 q 2926 667 2925 655 l 2926 680 q 2875 625 2909 652 q 2807 584 2842 599 q 2741 566 2772 569 q 2700 582 2711 563 q 2711 692 2677 618 q 2797 821 2745 765 m 779 690 q 811 592 783 638 q 882 532 839 547 q 836 439 861 460 q 778 427 810 418 q 753 472 759 433 q 751 558 747 511 q 767 648 756 606 q 779 690 772 670 m 1399 -221 q 1367 -210 1377 -221 q 1355 -181 1355 -199 q 1362 -150 1355 -165 q 1383 -127 1370 -135 q 1413 -119 1396 -119 q 1446 -130 1435 -119 q 1457 -159 1457 -141 q 1450 -190 1457 -175 q 1430 -212 1443 -204 q 1399 -221 1415 -221 m 499 -331 l 564 -2 l 2581 -2 l 2515 -331 l 499 -331 m 2314 -90 l 2308 -120 l 2359 -120 l 2333 -250 l 2370 -250 l 2397 -120 l 2448 -120 l 2454 -90 l 2314 -90 m 2106 -90 l 2074 -250 l 2110 -250 l 2131 -149 l 2190 -250 l 2221 -250 l 2253 -90 l 2216 -90 l 2196 -190 l 2136 -90 l 2106 -90 m 1857 -134 q 1844 -183 1844 -157 q 1853 -219 1844 -202 q 1881 -244 1862 -235 q 1922 -252 1896 -252 q 1974 -240 1952 -252 q 2009 -205 1996 -229 q 2022 -157 2022 -183 q 2012 -120 2022 -137 q 1985 -96 2004 -106 q 1943 -87 1968 -87 q 1891 -99 1914 -87 q 1857 -134 1870 -111 m 1685 -90 l 1653 -250 l 1691 -250 l 1702 -191 l 1776 -191 l 1782 -161 l 1708 -161 l 1716 -119 l 1800 -119 l 1806 -90 l 1685 -90 m 1330 -134 q 1318 -183 1318 -156 q 1326 -219 1318 -203 q 1354 -244 1335 -235 q 1396 -252 1369 -252 q 1447 -240 1425 -252 q 1482 -205 1470 -228 q 1495 -157 1495 -184 q 1485 -120 1495 -137 q 1458 -96 1477 -106 q 1417 -87 1441 -87 q 1365 -99 1388 -87 q 1330 -134 1343 -111 m 1084 -90 l 1053 -250 l 1087 -250 l 1107 -154 l 1139 -233 l 1156 -233 l 1217 -155 l 1198 -250 l 1233 -250 l 1265 -90 l 1233 -90 l 1155 -189 l 1115 -90 l 1084 -90 m 890 -90 l 857 -250 l 981 -250 l 988 -220 l 901 -220 l 907 -183 l 982 -183 l 988 -154 l 913 -154 l 920 -119 l 1004 -119 l 1010 -90 l 890 -90 m 659 -90 l 627 -250 l 705 -250 q 758 -238 734 -250 q 793 -205 781 -227 q 805 -157 805 -184 q 795 -121 805 -136 q 768 -98 787 -106 q 726 -90 751 -90 l 659 -90 m 1925 -221 q 1893 -210 1904 -221 q 1882 -181 1882 -199 q 1889 -150 1882 -163 q 1909 -127 1896 -135 q 1940 -119 1922 -119 q 1972 -130 1961 -119 q 1984 -159 1984 -141 q 1977 -190 1984 -176 q 1957 -212 1969 -204 q 1925 -221 1942 -221 m 739 -212 q 707 -219 726 -219 l 670 -219 l 690 -120 l 722 -120 q 756 -130 745 -120 q 768 -159 768 -140 q 760 -190 768 -175 q 739 -212 753 -203 z "},"5":{"ha":3080,"x_min":21,"x_max":3061,"o":"m 1890 349 q 2041 463 1933 413 q 1979 317 2005 364 q 1923 259 1953 269 q 1876 259 1890 249 q 1866 294 1862 269 q 1890 349 1870 319 m 830 725 q 883 713 866 780 q 892 585 897 659 q 890 564 892 571 l 890 563 q 829 635 850 585 q 830 725 808 686 m 3057 743 q 3036 643 3061 688 q 3048 604 3048 626 q 3011 490 3048 530 q 2904 413 2972 446 q 2773 380 2837 380 q 2664 416 2709 380 q 2627 455 2646 429 q 2456 374 2555 374 q 2382 386 2417 374 q 2381 380 2382 384 q 2379 376 2380 377 q 2330 175 2328 203 q 2327 132 2336 153 q 2300 99 2319 111 q 2262 88 2281 88 q 2215 106 2235 88 q 2153 182 2178 140 q 2081 108 2125 140 q 1944 56 2009 56 q 1895 68 1919 56 q 1859 93 1872 80 q 1824 129 1845 105 q 1772 204 1792 163 q 1758 282 1754 240 q 1755 286 1757 283 q 1751 289 1752 288 q 1695 276 1725 276 q 1563 361 1616 276 q 1550 390 1555 374 q 1547 393 1548 391 q 1543 396 1545 394 q 1540 399 1541 398 q 1532 348 1532 363 q 1496 290 1531 310 q 1461 281 1480 281 q 1428 290 1443 281 q 1403 306 1419 294 q 1387 300 1396 302 q 1362 298 1373 298 q 1297 313 1329 298 q 1244 360 1265 328 q 1149 303 1196 305 q 1133 302 1143 302 q 1019 355 1057 302 q 845 254 947 254 q 715 308 772 254 q 722 249 717 276 q 716 209 725 228 q 690 178 707 190 q 652 168 673 168 q 612 180 631 168 q 503 311 547 233 q 460 371 478 341 q 473 239 450 280 q 471 169 492 203 q 411 135 450 135 l 410 135 q 384 137 399 135 q 336 155 368 140 q 281 198 304 171 q 183 385 193 300 q 144 372 165 372 q 119 376 131 372 q 71 408 92 387 q 40 450 50 428 q 25 492 30 473 q 22 525 21 511 q 24 536 23 529 q 32 559 26 543 q 46 593 37 576 q 73 632 55 610 q 112 672 90 653 q 169 708 134 690 q 246 739 204 726 q 293 892 273 833 q 328 977 313 951 q 352 1010 344 1002 q 376 1023 361 1017 q 404 1027 388 1027 q 547 941 462 1027 q 555 930 549 938 q 664 1137 598 1030 q 791 1204 706 1204 q 903 1176 846 1204 q 956 1114 920 1167 q 993 1041 992 1060 q 960 979 995 1002 q 920 939 941 967 q 1003 867 968 913 q 1017 831 1015 851 q 1022 827 1019 830 q 1067 886 1043 863 q 1192 934 1119 934 q 1262 919 1230 934 q 1314 880 1295 905 q 1348 882 1332 882 q 1477 1162 1394 1026 q 1603 1230 1518 1230 q 1716 1201 1658 1230 q 1754 1142 1752 1183 l 1754 1137 q 2025 1143 1834 1143 q 2064 1143 2039 1143 q 2108 1143 2089 1143 q 2144 1143 2128 1143 q 2175 1144 2160 1143 q 2203 1146 2190 1145 q 2228 1149 2216 1147 q 2251 1154 2241 1152 q 2269 1158 2260 1156 q 2284 1162 2278 1160 q 2296 1165 2291 1164 q 2303 1168 2300 1166 l 2305 1168 q 2331 1173 2317 1173 q 2381 1152 2360 1173 q 2411 1111 2390 1143 q 2433 1076 2431 1078 q 2447 1000 2462 1036 q 2429 967 2442 987 q 2491 913 2480 959 q 2493 898 2493 905 q 2522 901 2506 901 q 2620 859 2580 901 q 2678 914 2650 894 q 2822 964 2746 964 q 2926 938 2883 964 q 3011 854 2969 911 q 3046 800 3035 825 q 3057 743 3056 774 m 600 313 q 606 542 584 410 q 673 787 629 673 q 771 993 717 902 q 871 1114 826 1084 q 859 1119 867 1116 q 831 1128 852 1122 q 793 1135 811 1134 q 755 1127 775 1135 q 724 1100 735 1119 q 619 900 661 999 q 559 731 576 801 q 535 598 541 662 q 531 503 529 534 q 536 450 532 473 q 494 562 509 498 q 479 681 480 625 q 482 785 479 736 q 491 863 486 834 l 496 892 q 476 912 488 900 q 437 943 463 924 q 399 957 410 961 q 360 870 389 953 q 302 680 332 787 q 205 648 248 669 q 143 606 163 627 q 110 564 122 584 q 95 530 97 543 l 92 517 q 281 596 123 563 q 256 481 261 513 q 254 384 247 422 q 278 324 261 345 q 314 293 296 303 q 346 282 332 283 l 359 280 q 336 392 336 322 q 350 532 335 462 q 384 666 366 602 q 418 770 403 730 l 434 810 q 462 556 438 671 q 490 466 472 508 q 526 396 508 423 q 562 350 545 370 q 589 321 578 330 l 600 313 m 1238 505 q 1267 457 1246 473 q 1305 444 1288 442 l 1322 444 q 1318 449 1320 446 q 1312 464 1316 452 q 1304 492 1307 476 q 1302 535 1302 507 q 1308 597 1302 564 q 1328 696 1315 643 q 1350 781 1341 750 l 1359 812 q 1337 812 1350 812 q 1296 804 1323 812 q 1261 779 1270 795 q 1201 655 1227 718 q 1146 551 1174 593 q 1111 509 1126 521 q 1086 506 1097 496 q 1088 585 1071 519 q 1138 714 1106 650 q 1163 762 1154 745 q 1184 793 1173 779 q 1205 811 1195 807 q 1229 816 1216 816 q 1261 811 1242 817 q 1239 852 1270 836 q 1158 859 1202 872 q 1115 834 1133 851 q 1060 748 1086 808 q 1019 625 1033 689 q 954 559 991 576 q 969 668 970 628 q 936 789 965 757 q 859 815 907 821 q 947 825 897 840 q 945 828 947 827 q 938 836 943 830 q 927 847 933 842 q 913 860 922 852 q 896 872 905 867 q 876 882 887 878 q 854 889 865 887 q 830 891 843 892 q 806 886 818 890 q 731 799 769 873 q 674 636 692 725 q 673 498 656 547 q 713 433 686 459 q 773 400 740 408 q 843 411 806 393 q 911 472 881 429 q 943 528 931 500 q 1010 568 979 536 q 1011 507 1007 536 q 1038 458 1017 470 q 1093 448 1059 446 q 1165 516 1122 450 q 1235 646 1207 581 l 1263 710 q 1260 703 1262 707 q 1255 683 1259 698 q 1247 652 1251 667 q 1240 617 1244 637 q 1235 578 1236 596 q 1234 540 1233 559 q 1238 505 1234 520 m 1672 429 q 1666 435 1670 431 q 1655 454 1663 439 q 1643 487 1647 469 q 1639 536 1639 505 q 1649 602 1640 566 q 1678 703 1662 654 q 1705 776 1695 753 l 1714 800 l 1649 831 q 1626 829 1636 837 q 1575 789 1602 813 q 1504 715 1548 766 q 1430 608 1460 664 q 1546 939 1468 777 q 1684 1139 1623 1100 q 1672 1145 1680 1141 q 1645 1154 1665 1148 q 1606 1160 1624 1160 q 1568 1153 1588 1161 q 1537 1126 1548 1145 q 1440 933 1475 1025 q 1379 732 1405 842 q 1355 598 1365 671 q 1348 503 1345 525 q 1366 464 1350 483 q 1396 435 1381 444 l 1410 426 q 1413 461 1411 439 q 1434 538 1415 483 q 1486 636 1453 594 q 1554 718 1522 684 q 1599 760 1586 751 l 1612 769 q 1603 745 1609 760 q 1584 689 1596 730 q 1563 612 1571 648 q 1556 536 1556 576 q 1571 474 1556 496 q 1600 439 1585 452 q 1628 424 1616 426 q 1651 422 1640 421 q 1666 426 1661 423 l 1672 429 m 1811 363 q 1795 434 1796 389 q 1806 535 1794 479 q 1837 651 1819 591 q 1880 774 1855 710 q 1927 889 1905 839 q 1971 989 1948 940 q 2190 995 2163 993 q 2242 1009 2218 997 q 2282 1037 2266 1021 q 2309 1067 2298 1053 q 2326 1093 2321 1082 l 2331 1103 q 2307 1095 2323 1100 q 2243 1082 2292 1090 q 2145 1073 2195 1074 q 2031 1072 2108 1072 q 1905 1072 1953 1072 q 1802 1070 1857 1072 q 1718 1064 1747 1068 q 1665 1046 1689 1060 q 1625 1015 1640 1032 q 1599 982 1610 998 q 1584 954 1588 965 l 1579 943 q 1638 966 1590 956 q 1735 980 1686 977 q 1864 985 1776 983 q 1822 873 1852 951 q 1764 716 1791 795 q 1720 569 1736 637 q 1716 490 1710 524 q 1737 432 1721 456 q 1769 393 1752 408 q 1799 370 1786 378 l 1811 363 m 2555 623 q 2590 699 2581 665 q 2597 749 2599 732 q 2585 787 2594 766 q 2483 823 2557 850 q 2410 777 2447 809 q 2355 718 2373 744 l 2336 692 q 2423 897 2419 895 l 2406 899 q 2315 867 2340 899 q 2309 860 2311 864 q 2220 612 2268 745 q 2212 588 2215 595 q 2139 546 2155 553 q 2185 681 2155 600 q 2237 814 2215 761 l 2258 867 q 2235 865 2249 866 q 2192 855 2221 863 q 2153 833 2163 846 q 2102 761 2146 827 q 2017 650 2057 696 q 1963 614 1978 604 q 2005 732 1947 625 q 2081 862 2064 840 q 2070 862 2077 862 q 2044 859 2063 861 q 2009 850 2025 856 q 1976 833 1993 845 q 1951 806 1959 822 q 1884 660 1905 718 q 1882 577 1864 602 q 1920 562 1893 563 q 1980 578 1946 561 q 2041 629 2014 595 l 2142 764 q 2057 509 2094 615 q 1999 474 2035 495 q 1947 443 1963 453 q 1908 412 1931 433 q 1864 363 1885 391 q 1830 299 1839 332 q 1831 244 1822 267 q 1860 209 1840 221 q 1914 204 1879 196 q 1989 240 1949 212 q 2061 327 2035 273 q 2123 492 2087 382 q 2124 498 2123 496 q 2126 503 2125 500 q 2128 509 2127 507 q 2198 549 2168 534 q 2144 372 2159 440 q 2154 310 2137 345 q 2190 255 2170 275 l 2211 234 q 2217 312 2204 256 q 2260 471 2230 368 q 2341 661 2292 577 q 2435 762 2376 720 q 2511 791 2494 804 q 2513 747 2519 781 q 2492 682 2507 713 q 2448 617 2474 644 q 2399 577 2422 590 q 2355 558 2376 565 q 2321 550 2334 551 l 2308 549 q 2317 544 2311 547 q 2339 533 2322 541 q 2372 522 2355 526 q 2414 519 2389 518 q 2460 530 2438 521 q 2508 563 2483 539 q 2555 623 2534 587 m 2797 821 q 2867 857 2833 861 q 2890 831 2889 853 q 2851 765 2890 801 q 2806 742 2831 747 q 2764 739 2780 736 l 2747 742 q 2750 736 2748 740 q 2758 724 2751 733 q 2773 709 2764 715 q 2796 698 2781 703 q 2827 694 2810 693 q 2911 733 2884 699 q 2936 814 2939 768 q 2902 868 2934 844 q 2823 895 2871 892 q 2720 858 2776 897 q 2657 793 2686 832 q 2614 709 2629 753 q 2608 621 2599 665 q 2656 546 2618 576 q 2742 527 2692 518 q 2837 559 2792 535 q 2907 612 2882 584 q 2920 638 2915 621 q 2925 667 2924 655 l 2926 680 q 2875 625 2909 652 q 2806 584 2841 599 q 2741 566 2772 569 q 2700 582 2711 563 q 2711 692 2677 618 q 2797 821 2745 765 m 779 690 q 811 592 783 638 q 882 532 839 547 q 836 439 861 460 q 778 427 810 418 q 753 472 759 433 q 751 558 747 511 q 767 648 756 606 q 779 690 772 670 m 1398 -221 q 1367 -210 1377 -221 q 1355 -181 1355 -199 q 1362 -150 1355 -163 q 1383 -127 1369 -135 q 1413 -119 1396 -119 q 1446 -130 1435 -119 q 1457 -159 1457 -141 q 1450 -190 1457 -175 q 1430 -212 1443 -204 q 1398 -221 1415 -221 m 499 -331 l 565 -2 l 2581 -2 l 2515 -331 l 499 -331 m 2314 -90 l 2308 -120 l 2359 -120 l 2333 -250 l 2370 -250 l 2397 -120 l 2448 -120 l 2454 -90 l 2314 -90 m 2106 -90 l 2074 -250 l 2110 -250 l 2131 -149 l 2190 -250 l 2221 -250 l 2253 -90 l 2216 -90 l 2196 -190 l 2136 -90 l 2106 -90 m 1857 -134 q 1844 -183 1844 -157 q 1853 -219 1844 -202 q 1881 -244 1862 -235 q 1922 -252 1896 -252 q 1974 -240 1952 -252 q 2009 -205 1996 -229 q 2022 -157 2022 -183 q 2012 -120 2022 -137 q 1985 -96 2004 -106 q 1944 -87 1968 -87 q 1891 -99 1914 -87 q 1857 -134 1870 -111 m 1685 -90 l 1653 -250 l 1691 -250 l 1702 -191 l 1776 -191 l 1782 -161 l 1708 -161 l 1716 -119 l 1800 -119 l 1806 -90 l 1685 -90 m 1330 -134 q 1317 -183 1317 -157 q 1326 -219 1317 -202 q 1354 -244 1335 -235 q 1396 -252 1369 -252 q 1447 -240 1425 -252 q 1482 -205 1470 -228 q 1495 -157 1495 -184 q 1485 -120 1495 -137 q 1458 -96 1477 -106 q 1417 -87 1441 -87 q 1365 -99 1388 -87 q 1330 -134 1343 -111 m 1084 -90 l 1053 -250 l 1087 -250 l 1107 -154 l 1139 -233 l 1156 -233 l 1217 -155 l 1198 -250 l 1233 -250 l 1265 -90 l 1233 -90 l 1155 -189 l 1115 -90 l 1084 -90 m 890 -90 l 857 -250 l 981 -250 l 988 -220 l 900 -220 l 907 -183 l 982 -183 l 988 -154 l 913 -154 l 920 -119 l 1004 -119 l 1010 -90 l 890 -90 m 659 -90 l 627 -250 l 705 -250 q 758 -238 734 -250 q 793 -205 781 -227 q 805 -157 805 -184 q 795 -121 805 -136 q 768 -98 787 -106 q 726 -90 751 -90 l 659 -90 m 1925 -221 q 1893 -210 1904 -221 q 1882 -181 1882 -199 q 1889 -150 1882 -163 q 1909 -127 1896 -135 q 1940 -119 1922 -119 q 1972 -130 1961 -119 q 1984 -159 1984 -141 q 1977 -190 1984 -176 q 1957 -212 1969 -204 q 1925 -221 1942 -221 m 739 -212 q 707 -219 726 -219 l 670 -219 l 690 -120 l 722 -120 q 756 -130 745 -120 q 768 -159 768 -140 q 760 -190 768 -175 q 739 -212 753 -203 z "},"6":{"ha":3080,"x_min":21,"x_max":3061,"o":"m 1890 349 q 2041 463 1933 413 q 1979 317 2005 364 q 1923 259 1953 269 q 1876 259 1890 249 q 1866 294 1862 269 q 1890 349 1870 319 m 830 725 q 883 713 866 780 q 892 585 897 659 q 890 564 892 571 l 890 563 q 829 635 850 585 q 830 725 808 686 m 3057 743 q 3036 643 3061 688 q 3048 604 3048 626 q 3011 490 3048 530 q 2904 413 2972 446 q 2773 380 2837 380 q 2664 416 2709 380 q 2627 455 2646 429 q 2456 374 2555 374 q 2382 386 2417 374 q 2381 380 2382 384 q 2379 376 2380 377 q 2330 175 2328 203 q 2327 132 2336 153 q 2300 99 2319 111 q 2262 88 2281 88 q 2215 106 2235 88 q 2153 182 2178 140 q 2081 108 2125 140 q 1944 56 2009 56 q 1895 68 1919 56 q 1859 93 1872 80 q 1824 129 1845 105 q 1771 204 1791 165 q 1758 282 1754 239 q 1755 286 1757 283 q 1751 289 1752 288 q 1695 276 1725 276 q 1563 361 1616 276 q 1550 390 1555 374 q 1547 393 1548 391 q 1543 396 1545 394 q 1540 399 1541 398 q 1532 348 1532 363 q 1496 290 1531 310 q 1461 281 1480 281 q 1428 290 1443 281 q 1403 306 1419 294 q 1387 300 1396 302 q 1362 298 1373 298 q 1297 313 1329 298 q 1244 360 1265 328 q 1149 303 1196 305 q 1133 302 1143 302 q 1019 355 1057 302 q 845 254 947 254 q 715 308 772 254 q 722 249 717 276 q 716 209 725 228 q 690 178 707 190 q 652 168 673 168 q 612 180 631 168 q 503 311 547 233 q 460 371 478 341 q 473 239 450 280 q 471 169 492 203 q 411 135 450 135 l 410 135 q 384 137 399 135 q 336 155 368 140 q 281 198 304 171 q 183 385 193 300 q 144 372 165 372 q 119 376 131 372 q 71 408 92 387 q 40 450 50 428 q 25 492 30 473 q 22 525 21 511 q 24 536 23 529 q 32 559 26 543 q 46 593 37 576 q 73 632 55 610 q 112 672 90 653 q 169 708 134 690 q 246 739 204 726 q 293 892 273 833 q 328 977 313 951 q 352 1010 344 1002 q 376 1023 361 1017 q 404 1027 388 1027 q 546 941 461 1027 q 555 930 551 936 q 664 1137 598 1030 q 791 1204 706 1204 q 903 1176 846 1204 q 956 1114 920 1167 q 993 1041 992 1060 q 960 979 995 1002 q 920 939 941 967 q 1003 867 968 913 q 1017 831 1015 851 q 1022 827 1019 830 q 1067 886 1043 863 q 1192 934 1119 934 q 1262 919 1230 934 q 1314 880 1295 905 q 1348 882 1332 882 q 1477 1162 1394 1026 q 1603 1230 1518 1230 q 1716 1201 1658 1230 q 1754 1142 1752 1183 l 1754 1137 q 2025 1143 1834 1143 q 2064 1143 2039 1143 q 2108 1143 2089 1143 q 2144 1143 2128 1143 q 2175 1144 2160 1143 q 2203 1146 2190 1145 q 2228 1149 2216 1147 q 2251 1154 2241 1152 q 2269 1158 2260 1156 q 2284 1162 2278 1160 q 2296 1165 2291 1164 q 2303 1168 2300 1166 l 2305 1168 q 2331 1173 2317 1173 q 2381 1152 2360 1173 q 2411 1111 2390 1143 q 2433 1076 2431 1078 q 2447 1000 2462 1036 q 2429 967 2442 987 q 2491 913 2480 959 q 2493 898 2493 905 q 2522 901 2506 901 q 2620 859 2580 901 q 2678 914 2650 894 q 2822 964 2746 964 q 2926 938 2883 964 q 3011 854 2969 911 q 3046 800 3035 825 q 3057 743 3056 774 m 600 313 q 606 542 584 410 q 673 787 629 673 q 771 993 717 902 q 871 1114 826 1084 q 859 1119 867 1116 q 831 1128 852 1122 q 793 1135 811 1134 q 755 1127 775 1135 q 724 1100 735 1119 q 618 900 661 999 q 558 731 576 801 q 534 598 541 662 q 530 503 528 534 q 536 450 532 473 q 494 562 508 498 q 479 681 479 625 q 481 785 478 736 q 490 863 485 834 l 496 892 q 475 912 488 900 q 436 943 463 924 q 399 957 410 961 q 360 870 389 953 q 302 680 332 787 q 205 648 248 669 q 143 606 163 627 q 110 564 122 584 q 95 530 97 543 l 92 517 q 281 596 123 563 q 256 481 261 513 q 254 384 247 422 q 278 324 261 345 q 314 293 296 303 q 346 282 332 283 l 359 280 q 336 392 336 322 q 350 532 335 462 q 384 666 366 602 q 418 770 403 730 l 434 810 q 462 556 438 671 q 490 466 472 508 q 526 396 508 423 q 562 350 545 370 q 589 321 578 330 l 600 313 m 1238 505 q 1267 457 1246 473 q 1305 444 1288 442 l 1322 444 q 1318 449 1320 446 q 1312 464 1316 452 q 1304 492 1307 476 q 1302 535 1302 507 q 1308 597 1302 564 q 1328 696 1315 643 q 1350 781 1341 750 l 1359 812 q 1337 812 1350 812 q 1296 804 1323 812 q 1261 779 1270 795 q 1201 655 1227 718 q 1146 551 1174 593 q 1111 509 1126 521 q 1086 506 1097 496 q 1088 585 1071 519 q 1138 714 1106 650 q 1163 762 1154 745 q 1184 793 1173 779 q 1205 811 1195 807 q 1229 816 1216 816 q 1261 811 1242 817 q 1239 852 1270 836 q 1158 859 1202 872 q 1115 834 1133 851 q 1060 748 1086 808 q 1019 625 1033 689 q 954 559 991 576 q 969 668 970 628 q 936 789 965 757 q 859 815 907 821 q 947 825 897 840 q 945 828 947 827 q 938 836 943 830 q 927 847 933 842 q 913 860 922 852 q 896 872 905 867 q 876 882 887 878 q 854 889 865 887 q 830 891 843 892 q 806 886 818 890 q 731 799 769 873 q 674 636 692 725 q 673 498 656 547 q 713 433 686 459 q 773 400 740 408 q 843 411 806 393 q 911 472 881 429 q 943 528 931 500 q 1010 568 979 536 q 1011 507 1007 536 q 1038 458 1017 470 q 1093 448 1059 446 q 1165 516 1122 450 q 1235 646 1207 581 l 1263 710 q 1260 703 1262 707 q 1255 683 1259 698 q 1247 652 1251 667 q 1240 617 1244 637 q 1235 578 1236 596 q 1234 540 1233 559 q 1238 505 1234 520 m 1672 429 q 1666 435 1670 431 q 1655 454 1663 439 q 1643 487 1647 469 q 1639 536 1639 505 q 1649 602 1640 566 q 1678 703 1662 654 q 1705 776 1695 753 l 1714 800 l 1649 831 q 1626 829 1636 837 q 1575 789 1602 813 q 1504 715 1548 766 q 1430 608 1460 664 q 1546 939 1468 777 q 1684 1139 1623 1100 q 1672 1145 1680 1141 q 1645 1154 1665 1148 q 1606 1160 1624 1160 q 1568 1153 1588 1161 q 1537 1126 1548 1145 q 1440 933 1475 1025 q 1379 732 1405 842 q 1355 598 1365 671 q 1348 503 1345 525 q 1366 464 1350 483 q 1396 435 1381 444 l 1410 426 q 1413 461 1411 439 q 1434 538 1415 483 q 1486 636 1453 594 q 1554 718 1522 684 q 1599 760 1586 751 l 1612 769 q 1603 745 1609 760 q 1584 689 1596 730 q 1563 612 1571 648 q 1556 536 1556 576 q 1571 474 1556 496 q 1600 439 1585 452 q 1628 424 1616 426 q 1651 422 1640 421 q 1666 426 1661 423 l 1672 429 m 1811 363 q 1795 434 1796 389 q 1806 535 1794 479 q 1837 651 1819 591 q 1880 774 1855 710 q 1927 889 1905 839 q 1971 989 1948 940 q 2190 995 2163 993 q 2242 1009 2218 997 q 2282 1037 2266 1021 q 2309 1067 2298 1053 q 2326 1093 2321 1082 l 2331 1103 q 2307 1095 2323 1100 q 2243 1082 2292 1090 q 2145 1073 2195 1074 q 2031 1072 2108 1072 q 1905 1072 1953 1072 q 1802 1070 1857 1072 q 1718 1064 1747 1068 q 1665 1046 1689 1060 q 1625 1015 1640 1032 q 1599 982 1610 998 q 1584 954 1588 965 l 1579 943 q 1638 966 1590 956 q 1735 980 1686 977 q 1864 985 1776 983 q 1822 873 1852 951 q 1764 716 1791 795 q 1720 569 1736 637 q 1716 490 1710 524 q 1737 432 1721 456 q 1769 393 1752 408 q 1799 370 1786 378 l 1811 363 m 2555 623 q 2590 699 2581 665 q 2597 749 2599 732 q 2585 787 2594 766 q 2483 823 2557 850 q 2410 777 2447 809 q 2355 718 2373 744 l 2336 692 q 2423 897 2419 895 l 2406 899 q 2315 867 2340 899 q 2309 860 2311 864 q 2220 612 2268 745 q 2212 588 2215 595 q 2139 546 2155 553 q 2185 681 2155 600 q 2237 814 2215 761 l 2258 867 q 2235 865 2249 866 q 2192 855 2221 863 q 2153 833 2163 846 q 2102 761 2146 827 q 2017 650 2057 696 q 1963 614 1978 604 q 2005 732 1947 625 q 2081 862 2064 840 q 2070 862 2077 862 q 2044 859 2063 861 q 2009 850 2025 856 q 1976 833 1993 845 q 1951 806 1959 822 q 1884 660 1905 718 q 1882 577 1864 602 q 1920 562 1893 563 q 1980 578 1946 561 q 2041 629 2014 595 l 2142 764 q 2057 509 2094 615 q 1999 474 2035 495 q 1947 443 1963 453 q 1908 412 1931 433 q 1864 363 1885 391 q 1830 299 1839 332 q 1831 244 1822 267 q 1860 209 1840 221 q 1914 204 1879 196 q 1989 240 1949 212 q 2061 327 2035 273 q 2123 492 2087 382 q 2124 498 2123 496 q 2126 503 2125 500 q 2128 509 2127 507 q 2198 549 2168 534 q 2144 372 2159 440 q 2154 310 2137 345 q 2190 255 2170 275 l 2211 234 q 2260 471 2200 270 q 2341 661 2290 575 q 2435 762 2376 720 q 2511 791 2494 804 q 2513 747 2519 781 q 2492 682 2507 713 q 2448 617 2474 644 q 2399 577 2422 590 q 2355 558 2376 565 q 2321 550 2334 551 l 2308 549 q 2317 544 2311 547 q 2339 533 2322 541 q 2372 522 2355 526 q 2414 519 2389 518 q 2460 530 2438 521 q 2508 563 2483 539 q 2555 623 2534 587 m 2797 821 q 2867 857 2833 861 q 2890 831 2889 853 q 2851 765 2890 801 q 2806 742 2831 747 q 2764 739 2780 736 l 2747 742 q 2750 736 2748 740 q 2758 724 2751 733 q 2773 709 2764 715 q 2796 698 2781 703 q 2827 694 2810 693 q 2911 733 2884 699 q 2936 814 2939 768 q 2902 868 2934 844 q 2823 895 2871 892 q 2720 858 2776 897 q 2657 793 2686 832 q 2614 709 2629 753 q 2608 621 2599 665 q 2656 546 2618 576 q 2742 527 2692 518 q 2837 559 2792 535 q 2907 612 2882 584 q 2920 638 2915 621 q 2925 667 2924 655 l 2926 680 q 2875 625 2909 652 q 2806 584 2841 599 q 2741 566 2772 569 q 2700 582 2711 563 q 2711 692 2677 618 q 2797 821 2745 765 m 779 690 q 811 592 783 638 q 882 532 839 547 q 836 439 861 460 q 778 427 810 418 q 753 472 759 433 q 751 558 747 511 q 767 648 756 606 q 779 690 772 670 m 1398 -221 q 1367 -210 1377 -221 q 1355 -181 1355 -199 q 1362 -150 1355 -163 q 1382 -127 1369 -135 q 1413 -119 1396 -119 q 1446 -130 1435 -119 q 1457 -159 1457 -141 q 1450 -190 1457 -175 q 1430 -212 1443 -204 q 1398 -221 1415 -221 m 499 -331 l 564 -2 l 2581 -2 l 2515 -331 l 499 -331 m 2314 -90 l 2308 -120 l 2359 -120 l 2333 -250 l 2370 -250 l 2397 -120 l 2448 -120 l 2454 -90 l 2314 -90 m 2106 -90 l 2074 -250 l 2110 -250 l 2131 -149 l 2190 -250 l 2221 -250 l 2253 -90 l 2216 -90 l 2196 -190 l 2136 -90 l 2106 -90 m 1857 -134 q 1844 -183 1844 -157 q 1853 -219 1844 -202 q 1881 -244 1862 -235 q 1922 -252 1896 -252 q 1973 -240 1951 -252 q 2009 -205 1996 -228 q 2022 -157 2022 -183 q 2012 -120 2022 -137 q 1985 -96 2004 -106 q 1943 -87 1968 -87 q 1891 -99 1914 -87 q 1857 -134 1870 -111 m 1685 -90 l 1653 -250 l 1691 -250 l 1702 -191 l 1776 -191 l 1782 -161 l 1708 -161 l 1716 -119 l 1800 -119 l 1806 -90 l 1685 -90 m 1330 -134 q 1318 -183 1318 -156 q 1326 -219 1318 -203 q 1354 -244 1335 -235 q 1396 -252 1369 -252 q 1447 -240 1425 -252 q 1482 -205 1470 -228 q 1495 -157 1495 -184 q 1485 -120 1495 -137 q 1458 -96 1477 -106 q 1417 -87 1441 -87 q 1365 -99 1388 -87 q 1330 -134 1343 -111 m 1084 -90 l 1053 -250 l 1087 -250 l 1107 -154 l 1139 -233 l 1156 -233 l 1217 -155 l 1198 -250 l 1233 -250 l 1265 -90 l 1233 -90 l 1155 -189 l 1115 -90 l 1084 -90 m 889 -90 l 857 -250 l 981 -250 l 987 -220 l 900 -220 l 907 -183 l 982 -183 l 988 -154 l 913 -154 l 920 -119 l 1004 -119 l 1010 -90 l 889 -90 m 659 -90 l 627 -250 l 705 -250 q 758 -238 734 -250 q 793 -205 781 -227 q 805 -157 805 -184 q 795 -121 805 -136 q 768 -98 787 -106 q 726 -90 751 -90 l 659 -90 m 1925 -221 q 1893 -210 1904 -221 q 1882 -181 1882 -199 q 1889 -150 1882 -163 q 1909 -127 1896 -135 q 1940 -119 1922 -119 q 1972 -130 1961 -119 q 1984 -159 1984 -141 q 1977 -190 1984 -176 q 1957 -212 1969 -204 q 1925 -221 1942 -221 m 739 -212 q 707 -219 726 -219 l 670 -219 l 690 -120 l 722 -120 q 756 -130 745 -120 q 768 -159 768 -140 q 760 -190 768 -175 q 739 -212 753 -203 z "},"7":{"ha":3080,"x_min":21,"x_max":3061,"o":"m 1890 349 q 2041 463 1933 413 q 1979 317 2005 364 q 1923 259 1953 269 q 1876 259 1890 249 q 1866 294 1862 269 q 1890 349 1870 319 m 830 725 q 883 713 866 780 q 892 585 897 659 q 890 564 892 571 l 890 563 q 829 635 850 585 q 830 725 808 686 m 3057 743 q 3036 643 3061 688 q 3048 604 3048 626 q 3011 490 3048 530 q 2904 413 2972 446 q 2773 380 2837 380 q 2664 416 2709 380 q 2627 455 2646 429 q 2456 374 2555 374 q 2382 386 2417 374 q 2381 380 2382 384 q 2379 376 2380 377 q 2330 175 2328 203 q 2327 132 2336 153 q 2300 99 2319 111 q 2262 88 2281 88 q 2215 106 2235 88 q 2153 182 2178 140 q 2081 108 2125 140 q 1944 56 2009 56 q 1895 68 1919 56 q 1859 93 1872 80 q 1824 129 1845 105 q 1771 204 1791 165 q 1758 282 1754 239 q 1755 286 1757 283 q 1751 289 1752 288 q 1695 276 1725 276 q 1563 361 1616 276 q 1550 390 1555 374 q 1547 393 1548 391 q 1543 396 1545 394 q 1540 399 1541 398 q 1532 348 1532 363 q 1496 290 1531 310 q 1461 281 1480 281 q 1428 290 1443 281 q 1403 306 1419 294 q 1387 300 1396 302 q 1362 298 1373 298 q 1297 313 1329 298 q 1244 360 1265 328 q 1149 303 1196 305 q 1133 302 1143 302 q 1019 355 1057 302 q 845 254 947 254 q 715 308 772 254 q 722 249 717 276 q 716 209 725 228 q 690 178 707 190 q 652 168 673 168 q 612 180 631 168 q 503 311 547 233 q 460 371 478 341 q 473 239 450 280 q 471 169 492 203 q 411 135 450 135 l 410 135 q 384 137 399 135 q 336 155 368 140 q 281 198 304 171 q 183 385 193 300 q 144 372 165 372 q 119 376 131 372 q 71 408 92 387 q 40 450 50 428 q 25 492 30 473 q 22 525 21 511 q 24 536 23 529 q 32 559 26 543 q 46 593 37 576 q 73 632 55 610 q 112 672 90 653 q 169 708 134 690 q 246 739 204 726 q 293 892 273 833 q 328 977 313 951 q 352 1010 344 1002 q 376 1023 361 1017 q 404 1027 388 1027 q 546 941 461 1027 q 555 930 551 936 q 664 1137 598 1030 q 791 1204 706 1204 q 903 1176 846 1204 q 956 1114 920 1167 q 993 1041 992 1060 q 960 979 995 1002 q 920 939 941 967 q 1003 867 968 913 q 1017 831 1015 851 q 1022 827 1019 830 q 1067 886 1043 863 q 1192 934 1119 934 q 1262 919 1230 934 q 1314 880 1295 905 q 1348 882 1332 882 q 1477 1162 1394 1026 q 1603 1230 1518 1230 q 1716 1201 1658 1230 q 1754 1142 1752 1183 l 1754 1137 q 2025 1143 1834 1143 q 2064 1143 2039 1143 q 2108 1143 2089 1143 q 2144 1143 2128 1143 q 2175 1144 2160 1143 q 2203 1146 2190 1145 q 2228 1149 2216 1147 q 2251 1154 2241 1152 q 2269 1158 2260 1156 q 2284 1162 2278 1160 q 2296 1165 2291 1164 q 2303 1168 2300 1166 l 2305 1168 q 2331 1173 2317 1173 q 2381 1152 2360 1173 q 2411 1111 2390 1143 q 2433 1076 2431 1078 q 2447 1000 2462 1036 q 2429 967 2442 987 q 2491 913 2480 959 q 2493 898 2493 905 q 2522 901 2506 901 q 2620 859 2580 901 q 2678 914 2650 894 q 2822 964 2746 964 q 2926 938 2883 964 q 3011 854 2969 911 q 3046 800 3035 825 q 3057 743 3056 774 m 600 313 q 606 542 584 410 q 673 787 629 673 q 771 993 717 902 q 871 1114 826 1084 q 859 1119 867 1116 q 831 1128 852 1122 q 793 1135 811 1134 q 755 1127 775 1135 q 724 1100 735 1119 q 618 900 661 999 q 558 731 576 801 q 534 598 541 662 q 530 503 528 534 q 536 450 532 473 q 494 562 508 498 q 479 681 479 625 q 481 785 478 736 q 490 863 485 834 l 496 892 q 475 912 488 900 q 436 943 463 924 q 399 957 410 961 q 360 870 389 953 q 302 680 332 787 q 205 648 248 669 q 143 606 163 627 q 110 564 122 584 q 95 530 97 543 l 92 517 q 281 596 123 563 q 256 481 261 513 q 254 384 247 422 q 278 324 261 345 q 314 293 296 303 q 346 282 332 283 l 359 280 q 336 392 336 322 q 350 532 335 462 q 384 666 366 602 q 418 770 403 730 l 434 810 q 462 556 438 671 q 490 466 472 508 q 526 396 508 423 q 562 350 545 370 q 589 321 578 330 l 600 313 m 1238 505 q 1267 457 1246 473 q 1305 444 1288 442 l 1322 444 q 1318 449 1320 446 q 1312 464 1316 452 q 1304 492 1307 476 q 1302 535 1302 507 q 1308 597 1302 564 q 1328 696 1315 643 q 1350 781 1341 750 l 1359 812 q 1337 812 1350 812 q 1296 804 1323 812 q 1261 779 1270 795 q 1201 655 1227 718 q 1146 551 1174 593 q 1111 509 1126 521 q 1086 506 1097 496 q 1088 585 1071 519 q 1138 714 1106 650 q 1163 762 1154 745 q 1184 793 1173 779 q 1205 811 1195 807 q 1229 816 1216 816 q 1261 811 1242 817 q 1239 852 1270 836 q 1158 859 1202 872 q 1115 834 1133 851 q 1060 748 1086 808 q 1019 625 1033 689 q 954 559 991 576 q 969 668 970 628 q 936 789 965 757 q 859 815 907 821 q 947 825 897 840 q 945 828 947 827 q 938 836 943 830 q 927 847 933 842 q 913 860 922 852 q 896 872 905 867 q 876 882 887 878 q 854 889 865 887 q 830 891 843 892 q 806 886 818 890 q 731 799 769 873 q 674 636 692 725 q 673 498 656 547 q 713 433 686 459 q 773 400 740 408 q 843 411 806 393 q 911 472 881 429 q 943 528 931 500 q 1010 568 979 536 q 1011 507 1007 536 q 1038 458 1017 470 q 1093 448 1059 446 q 1165 516 1122 450 q 1235 646 1207 581 l 1263 710 q 1260 703 1262 707 q 1255 683 1259 698 q 1247 652 1251 667 q 1240 617 1244 637 q 1235 578 1236 596 q 1234 540 1233 559 q 1238 505 1234 520 m 1672 429 q 1666 435 1670 431 q 1655 454 1663 439 q 1643 487 1647 469 q 1639 536 1639 505 q 1649 602 1640 566 q 1678 703 1662 654 q 1705 776 1695 753 l 1714 800 l 1649 831 q 1626 829 1636 837 q 1575 789 1602 813 q 1504 715 1548 766 q 1430 608 1460 664 q 1546 939 1468 777 q 1684 1139 1623 1100 q 1672 1145 1680 1141 q 1645 1154 1665 1148 q 1606 1160 1624 1160 q 1568 1153 1588 1161 q 1537 1126 1548 1145 q 1440 933 1475 1025 q 1379 732 1405 842 q 1355 598 1365 671 q 1348 503 1345 525 q 1366 464 1350 483 q 1396 435 1381 444 l 1410 426 q 1413 461 1411 439 q 1434 538 1415 483 q 1486 636 1453 594 q 1554 718 1522 684 q 1599 760 1586 751 l 1612 769 q 1603 745 1609 760 q 1584 689 1596 730 q 1563 612 1571 648 q 1556 536 1556 576 q 1571 474 1556 496 q 1600 439 1585 452 q 1628 424 1616 426 q 1651 422 1640 421 q 1666 426 1661 423 l 1672 429 m 1811 363 q 1795 434 1796 389 q 1806 535 1794 479 q 1837 651 1819 591 q 1880 774 1855 710 q 1927 889 1905 839 q 1971 989 1948 940 q 2190 995 2163 993 q 2242 1009 2218 997 q 2282 1037 2266 1021 q 2309 1067 2298 1053 q 2326 1093 2321 1082 l 2331 1103 q 2307 1095 2323 1100 q 2243 1082 2292 1090 q 2145 1073 2195 1074 q 2031 1072 2108 1072 q 1905 1072 1953 1072 q 1802 1070 1857 1072 q 1718 1064 1747 1068 q 1665 1046 1689 1060 q 1625 1015 1640 1032 q 1599 982 1610 998 q 1584 954 1588 965 l 1579 943 q 1638 966 1590 956 q 1735 980 1686 977 q 1864 985 1776 983 q 1822 873 1852 951 q 1764 716 1791 795 q 1720 569 1736 637 q 1716 490 1710 524 q 1737 432 1721 456 q 1769 393 1752 408 q 1799 370 1786 378 l 1811 363 m 2555 623 q 2590 699 2581 665 q 2597 749 2599 732 q 2585 787 2594 766 q 2483 823 2557 850 q 2410 777 2447 809 q 2355 718 2373 744 l 2336 692 q 2423 897 2419 895 l 2406 899 q 2315 867 2340 899 q 2309 860 2311 864 q 2220 612 2268 745 q 2212 588 2215 595 q 2139 546 2155 553 q 2185 681 2155 600 q 2237 814 2215 761 l 2258 867 q 2235 865 2249 866 q 2192 855 2221 863 q 2153 833 2163 846 q 2102 761 2146 827 q 2017 650 2057 696 q 1963 614 1978 604 q 2005 732 1947 625 q 2081 862 2064 840 q 2070 862 2077 862 q 2044 859 2063 861 q 2009 850 2025 856 q 1976 833 1993 845 q 1951 806 1959 822 q 1884 660 1905 718 q 1882 577 1864 602 q 1920 562 1893 563 q 1980 578 1946 561 q 2041 629 2014 595 l 2142 764 q 2057 509 2094 615 q 1999 474 2035 495 q 1947 443 1963 453 q 1908 412 1931 433 q 1864 363 1885 391 q 1830 299 1839 332 q 1831 244 1822 267 q 1860 209 1840 221 q 1914 204 1879 196 q 1989 240 1949 212 q 2060 326 2035 272 q 2121 488 2085 380 q 2127 509 2125 502 q 2198 549 2165 532 q 2144 372 2159 440 q 2145 334 2140 355 q 2160 296 2150 313 q 2182 265 2171 279 q 2201 242 2193 250 l 2210 234 q 2216 312 2203 256 q 2260 471 2229 368 q 2341 661 2290 575 q 2435 762 2376 720 q 2511 791 2494 804 q 2513 747 2519 781 q 2492 682 2507 713 q 2448 617 2474 644 q 2399 577 2422 590 q 2355 558 2376 565 q 2321 550 2334 551 l 2308 549 q 2317 544 2311 547 q 2339 533 2322 541 q 2372 522 2355 526 q 2414 519 2389 518 q 2460 530 2438 521 q 2508 563 2483 539 q 2555 623 2534 587 m 2797 821 q 2867 857 2833 861 q 2890 831 2889 853 q 2851 765 2890 801 q 2806 742 2831 747 q 2764 739 2780 736 l 2747 742 q 2750 736 2748 740 q 2758 724 2751 733 q 2773 709 2764 715 q 2796 698 2781 703 q 2827 694 2810 693 q 2911 733 2884 699 q 2936 814 2939 768 q 2902 868 2934 844 q 2823 895 2871 892 q 2720 858 2776 897 q 2657 793 2686 832 q 2614 709 2629 753 q 2608 621 2599 665 q 2656 546 2618 576 q 2742 527 2692 518 q 2837 559 2792 535 q 2907 612 2882 584 q 2920 638 2915 621 q 2925 667 2924 655 l 2926 680 q 2875 625 2909 652 q 2806 584 2841 599 q 2741 566 2772 569 q 2700 582 2711 563 q 2711 692 2677 618 q 2797 821 2745 765 m 779 690 q 811 592 783 638 q 882 532 839 547 q 836 439 861 460 q 778 427 810 418 q 753 472 759 433 q 751 558 747 511 q 767 648 756 606 q 779 690 772 670 m 1398 -221 q 1367 -210 1377 -221 q 1355 -181 1355 -199 q 1362 -150 1355 -163 q 1382 -127 1369 -135 q 1413 -119 1396 -119 q 1446 -130 1435 -119 q 1457 -159 1457 -141 q 1450 -190 1457 -175 q 1430 -212 1443 -204 q 1398 -221 1415 -221 m 499 -331 l 564 -2 l 2581 -2 l 2515 -331 l 499 -331 m 2314 -90 l 2308 -120 l 2359 -120 l 2333 -250 l 2370 -250 l 2397 -120 l 2448 -120 l 2454 -90 l 2314 -90 m 2106 -90 l 2074 -250 l 2110 -250 l 2131 -149 l 2190 -250 l 2221 -250 l 2253 -90 l 2216 -90 l 2196 -190 l 2136 -90 l 2106 -90 m 1857 -134 q 1844 -183 1844 -157 q 1853 -219 1844 -202 q 1881 -244 1862 -235 q 1922 -252 1896 -252 q 1973 -240 1951 -252 q 2009 -205 1996 -228 q 2022 -157 2022 -183 q 2012 -120 2022 -137 q 1985 -96 2004 -106 q 1943 -87 1968 -87 q 1891 -99 1914 -87 q 1857 -134 1870 -111 m 1685 -90 l 1653 -250 l 1691 -250 l 1702 -191 l 1776 -191 l 1782 -161 l 1708 -161 l 1716 -119 l 1800 -119 l 1806 -90 l 1685 -90 m 1330 -134 q 1318 -183 1318 -156 q 1326 -219 1318 -203 q 1354 -244 1335 -235 q 1396 -252 1369 -252 q 1447 -240 1425 -252 q 1482 -205 1470 -228 q 1495 -157 1495 -184 q 1485 -120 1495 -137 q 1458 -96 1477 -106 q 1417 -87 1441 -87 q 1365 -99 1388 -87 q 1330 -134 1343 -111 m 1084 -90 l 1053 -250 l 1087 -250 l 1106 -154 l 1139 -233 l 1156 -233 l 1217 -155 l 1198 -250 l 1233 -250 l 1265 -90 l 1233 -90 l 1155 -189 l 1115 -90 l 1084 -90 m 890 -90 l 857 -250 l 981 -250 l 988 -220 l 901 -220 l 907 -183 l 982 -183 l 988 -154 l 913 -154 l 920 -119 l 1004 -119 l 1010 -90 l 890 -90 m 659 -90 l 627 -250 l 705 -250 q 758 -238 734 -250 q 793 -205 781 -227 q 805 -157 805 -184 q 795 -121 805 -136 q 768 -98 787 -106 q 726 -90 751 -90 l 659 -90 m 1925 -221 q 1893 -210 1904 -221 q 1882 -181 1882 -199 q 1889 -150 1882 -163 q 1909 -127 1896 -135 q 1940 -119 1922 -119 q 1972 -130 1961 -119 q 1984 -159 1984 -141 q 1977 -190 1984 -176 q 1957 -212 1969 -204 q 1925 -221 1942 -221 m 739 -212 q 707 -219 726 -219 l 670 -219 l 690 -120 l 722 -120 q 756 -130 745 -120 q 768 -159 768 -140 q 760 -190 768 -175 q 739 -212 753 -203 z "},"8":{"ha":3080,"x_min":21,"x_max":3061,"o":"m 1890 349 q 2041 463 1934 414 q 1979 317 2005 364 q 1923 259 1953 269 q 1876 259 1890 249 q 1866 294 1862 269 q 1890 349 1870 319 m 830 725 q 883 713 866 780 q 892 585 897 659 q 890 564 892 571 l 890 563 q 829 635 850 585 q 830 725 808 686 m 3057 743 q 3036 643 3061 688 q 3048 604 3048 626 q 3011 490 3048 530 q 2904 413 2972 446 q 2773 380 2837 380 q 2664 416 2709 380 q 2627 455 2646 429 q 2456 374 2555 374 q 2382 386 2416 374 q 2380 380 2381 384 q 2379 376 2380 377 q 2330 175 2328 203 q 2327 132 2336 153 q 2299 99 2319 111 q 2262 88 2281 88 q 2215 106 2235 88 q 2153 182 2178 140 q 2081 108 2125 140 q 1944 56 2009 56 q 1895 68 1919 56 q 1859 93 1872 80 q 1824 129 1845 105 q 1771 204 1791 165 q 1758 282 1754 239 q 1755 286 1757 283 q 1751 289 1752 288 q 1695 276 1725 276 q 1563 361 1616 276 q 1550 390 1555 374 q 1547 393 1548 391 q 1543 396 1545 394 q 1540 399 1541 398 q 1532 348 1532 363 q 1496 290 1531 310 q 1461 281 1480 281 q 1428 290 1443 281 q 1403 306 1419 294 q 1387 300 1396 302 q 1362 298 1373 298 q 1297 313 1329 298 q 1244 360 1265 328 q 1149 303 1196 305 q 1133 302 1143 302 q 1019 355 1057 302 q 845 254 947 254 q 715 308 772 254 q 722 249 717 276 q 716 209 725 228 q 690 178 707 190 q 652 168 673 168 q 612 180 631 168 q 503 311 547 233 q 460 371 478 341 q 473 239 450 280 q 471 169 492 203 q 411 135 450 135 l 410 135 q 384 137 399 135 q 336 155 368 140 q 281 198 304 171 q 183 385 193 300 q 144 372 165 372 q 119 376 131 372 q 71 408 92 387 q 40 450 50 428 q 25 492 30 473 q 22 525 21 511 q 24 536 23 529 q 32 559 26 543 q 46 593 37 576 q 73 632 55 610 q 112 672 90 653 q 169 708 134 690 q 246 739 204 726 q 293 892 273 833 q 328 977 313 951 q 352 1010 344 1002 q 376 1023 361 1017 q 404 1027 388 1027 q 546 941 461 1027 q 555 930 551 936 q 664 1137 598 1030 q 791 1204 706 1204 q 903 1176 846 1204 q 956 1114 920 1167 q 993 1041 992 1060 q 960 979 995 1002 q 920 939 941 967 q 1003 867 968 913 q 1017 831 1015 851 q 1022 827 1019 830 q 1067 886 1043 863 q 1192 934 1119 934 q 1262 919 1230 934 q 1314 880 1295 905 q 1348 882 1332 882 q 1477 1162 1394 1026 q 1603 1230 1518 1230 q 1716 1201 1658 1230 q 1754 1142 1752 1183 l 1754 1137 q 2025 1143 1834 1143 q 2064 1143 2039 1143 q 2108 1143 2089 1143 q 2144 1143 2128 1143 q 2175 1144 2160 1143 q 2203 1146 2190 1145 q 2228 1149 2216 1147 q 2251 1154 2241 1152 q 2269 1158 2260 1156 q 2284 1162 2278 1160 q 2296 1165 2291 1164 q 2303 1168 2300 1166 l 2305 1168 q 2331 1173 2317 1173 q 2381 1152 2360 1173 q 2411 1111 2390 1143 q 2433 1076 2431 1078 q 2447 1000 2462 1036 q 2429 967 2442 987 q 2492 913 2481 959 q 2493 898 2493 908 q 2522 901 2506 901 q 2620 859 2581 901 q 2678 914 2652 895 q 2822 964 2746 964 q 2926 938 2883 964 q 3011 854 2969 911 q 3046 800 3035 825 q 3057 743 3056 774 m 601 313 q 600 494 589 397 q 642 690 611 590 q 710 877 672 791 q 792 1027 749 963 q 871 1114 835 1090 q 859 1119 867 1116 q 831 1128 852 1122 q 793 1135 811 1134 q 755 1127 775 1135 q 724 1100 735 1119 q 619 900 661 999 q 559 731 576 801 q 535 598 541 662 q 531 503 529 534 q 536 450 532 473 q 494 562 509 498 q 479 681 480 625 q 482 785 479 736 q 491 863 486 834 l 496 892 q 476 912 488 900 q 437 943 463 924 q 399 957 410 961 q 360 870 389 953 q 302 680 332 787 q 205 648 248 669 q 143 606 163 627 q 110 564 122 584 q 95 530 97 543 l 92 517 q 281 596 123 563 q 256 481 261 513 q 254 384 247 422 q 278 324 261 345 q 314 293 296 303 q 346 282 332 283 l 359 280 q 336 392 336 322 q 350 532 335 462 q 384 666 366 602 q 418 770 403 730 l 434 810 q 462 556 438 671 q 490 466 472 508 q 527 396 508 423 q 562 350 545 370 q 590 321 579 330 l 601 313 m 1238 505 q 1267 457 1246 473 q 1305 444 1288 442 l 1322 444 q 1318 449 1320 446 q 1312 464 1316 452 q 1304 492 1307 476 q 1302 535 1302 507 q 1308 597 1302 564 q 1328 696 1315 643 q 1350 781 1341 750 l 1359 812 q 1337 812 1350 812 q 1296 804 1323 812 q 1261 779 1270 795 q 1201 655 1227 718 q 1146 551 1174 593 q 1111 509 1126 521 q 1086 506 1097 496 q 1088 585 1071 519 q 1138 714 1106 650 q 1197 805 1175 787 q 1261 811 1219 824 q 1240 852 1271 836 q 1158 859 1204 872 q 1115 834 1133 852 q 1060 748 1086 808 q 1019 625 1033 689 q 954 559 991 576 q 969 668 970 628 q 936 789 965 757 q 859 815 907 821 q 947 825 897 840 q 945 828 947 827 q 938 836 943 830 q 927 847 933 842 q 913 860 922 852 q 896 872 905 867 q 876 882 887 878 q 854 889 865 887 q 830 891 843 892 q 806 886 818 890 q 731 799 769 873 q 674 636 692 725 q 673 498 656 547 q 713 433 686 459 q 773 400 740 408 q 843 411 806 393 q 911 472 881 429 q 943 528 931 500 q 1010 568 979 536 q 1011 507 1007 536 q 1038 458 1017 470 q 1093 448 1059 446 q 1165 516 1122 450 q 1235 646 1207 581 l 1263 710 q 1260 703 1262 707 q 1255 683 1259 698 q 1247 652 1251 667 q 1240 617 1244 637 q 1235 578 1236 596 q 1234 540 1233 559 q 1238 505 1234 520 m 1672 429 q 1666 435 1670 431 q 1655 454 1663 439 q 1643 487 1647 469 q 1639 536 1639 505 q 1649 602 1640 566 q 1678 703 1662 654 q 1705 776 1695 753 l 1714 800 l 1649 831 q 1626 829 1636 837 q 1575 789 1602 813 q 1504 715 1548 766 q 1430 608 1460 664 q 1546 939 1468 777 q 1684 1139 1623 1100 q 1672 1145 1680 1141 q 1645 1154 1665 1148 q 1606 1160 1624 1160 q 1568 1153 1588 1161 q 1537 1126 1548 1145 q 1440 933 1475 1025 q 1379 732 1405 842 q 1355 598 1365 671 q 1348 503 1345 525 q 1366 464 1350 483 q 1396 435 1381 444 l 1410 426 q 1413 461 1411 439 q 1434 538 1415 483 q 1486 636 1453 594 q 1554 718 1522 684 q 1599 760 1586 751 l 1612 769 q 1603 745 1609 760 q 1584 689 1596 730 q 1563 612 1571 648 q 1556 536 1556 576 q 1571 474 1556 496 q 1600 439 1585 452 q 1628 424 1616 426 q 1651 422 1640 421 q 1666 426 1661 423 l 1672 429 m 1811 363 q 1795 434 1796 389 q 1806 535 1794 479 q 1837 651 1819 591 q 1880 774 1855 710 q 1927 889 1905 839 q 1971 989 1948 940 q 2190 995 2163 993 q 2242 1009 2218 997 q 2282 1037 2266 1021 q 2309 1067 2298 1053 q 2326 1093 2321 1082 l 2331 1103 q 2307 1095 2323 1100 q 2243 1082 2292 1090 q 2145 1073 2195 1074 q 2031 1072 2108 1072 q 1905 1072 1953 1072 q 1802 1070 1857 1072 q 1718 1064 1747 1068 q 1665 1046 1689 1060 q 1625 1015 1640 1032 q 1599 982 1610 998 q 1584 954 1588 965 l 1579 943 q 1638 966 1590 956 q 1735 980 1686 977 q 1864 985 1776 983 q 1822 873 1852 951 q 1764 716 1791 795 q 1720 569 1736 637 q 1716 490 1710 524 q 1737 432 1721 456 q 1769 393 1752 408 q 1799 370 1786 378 l 1811 363 m 2555 623 q 2590 699 2581 665 q 2597 749 2599 732 q 2585 787 2594 766 q 2483 823 2557 850 q 2410 777 2447 809 q 2355 718 2373 744 l 2336 692 q 2423 897 2419 895 l 2406 899 q 2315 867 2340 899 q 2309 860 2311 864 q 2220 612 2268 745 q 2212 588 2215 595 q 2139 546 2155 553 q 2185 681 2155 600 q 2237 814 2215 761 l 2258 867 q 2235 865 2249 866 q 2192 855 2221 863 q 2153 833 2163 846 q 2102 761 2146 827 q 2017 650 2057 696 q 1963 614 1978 604 q 2005 732 1947 625 q 2081 862 2064 840 q 2070 862 2077 862 q 2044 859 2063 861 q 2009 850 2025 856 q 1976 833 1993 845 q 1951 806 1959 822 q 1884 660 1905 718 q 1882 577 1864 602 q 1920 562 1893 563 q 1980 578 1946 561 q 2041 629 2014 595 l 2142 764 q 2057 509 2094 615 q 1999 474 2036 496 q 1947 443 1963 453 q 1909 412 1932 433 q 1864 363 1885 391 q 1835 310 1844 337 q 1828 260 1826 282 q 1842 223 1830 239 q 1875 203 1855 208 q 1925 207 1895 198 q 1989 240 1955 216 q 2061 327 2035 273 q 2123 492 2087 382 q 2124 498 2123 496 q 2126 503 2125 500 q 2128 509 2127 507 q 2198 549 2168 534 q 2144 372 2159 440 q 2154 310 2137 345 q 2190 255 2170 275 l 2211 234 q 2217 312 2204 256 q 2260 471 2230 368 q 2341 661 2292 577 q 2435 762 2376 720 q 2511 791 2494 804 q 2513 747 2519 781 q 2492 682 2507 713 q 2448 617 2474 644 q 2399 577 2422 590 q 2355 558 2376 565 q 2321 550 2334 551 l 2308 549 q 2317 544 2311 547 q 2339 533 2322 541 q 2372 522 2355 526 q 2414 519 2389 518 q 2460 530 2438 521 q 2508 563 2483 539 q 2555 623 2534 587 m 2797 821 q 2867 857 2833 861 q 2890 831 2889 853 q 2851 765 2890 801 q 2806 742 2831 747 q 2764 739 2780 736 l 2747 742 q 2750 736 2748 740 q 2758 724 2751 733 q 2773 709 2764 715 q 2796 698 2781 703 q 2827 694 2810 693 q 2911 733 2884 699 q 2936 814 2939 768 q 2902 868 2934 844 q 2823 895 2871 892 q 2720 858 2776 897 q 2657 793 2686 832 q 2614 709 2629 753 q 2608 621 2599 665 q 2656 546 2618 576 q 2742 527 2692 518 q 2837 559 2792 535 q 2907 612 2882 584 q 2920 638 2915 621 q 2926 667 2925 655 l 2926 680 q 2875 625 2909 652 q 2807 584 2842 599 q 2741 566 2772 569 q 2700 582 2711 563 q 2711 692 2677 618 q 2797 821 2745 765 m 779 690 q 811 592 783 638 q 882 532 839 547 q 836 439 861 460 q 779 427 811 418 q 753 472 760 433 q 752 558 747 511 q 767 648 756 606 q 779 690 772 670 m 1399 -221 q 1367 -210 1377 -221 q 1355 -181 1355 -199 q 1362 -150 1355 -163 q 1383 -127 1369 -135 q 1413 -119 1396 -119 q 1446 -130 1435 -119 q 1457 -159 1457 -141 q 1450 -190 1457 -175 q 1430 -212 1443 -204 q 1399 -221 1415 -221 m 499 -331 l 564 -2 l 2581 -2 l 2515 -331 l 499 -331 m 2314 -90 l 2308 -120 l 2359 -120 l 2333 -250 l 2370 -250 l 2397 -120 l 2448 -120 l 2454 -90 l 2314 -90 m 2106 -90 l 2074 -250 l 2110 -250 l 2131 -149 l 2190 -250 l 2221 -250 l 2253 -90 l 2216 -90 l 2196 -190 l 2136 -90 l 2106 -90 m 1857 -134 q 1844 -183 1844 -157 q 1853 -219 1844 -202 q 1881 -244 1862 -235 q 1922 -252 1896 -252 q 1974 -240 1952 -252 q 2009 -205 1996 -229 q 2022 -157 2022 -183 q 2012 -120 2022 -137 q 1985 -96 2004 -106 q 1944 -87 1968 -87 q 1891 -99 1914 -87 q 1857 -134 1870 -111 m 1685 -90 l 1653 -250 l 1691 -250 l 1702 -191 l 1776 -191 l 1782 -161 l 1708 -161 l 1716 -119 l 1800 -119 l 1807 -90 l 1685 -90 m 1330 -134 q 1318 -183 1318 -156 q 1326 -219 1318 -203 q 1354 -244 1335 -235 q 1396 -252 1369 -252 q 1447 -240 1425 -252 q 1482 -205 1470 -228 q 1495 -157 1495 -184 q 1485 -120 1495 -137 q 1458 -96 1477 -106 q 1417 -87 1441 -87 q 1365 -99 1388 -87 q 1330 -134 1343 -111 m 1084 -90 l 1053 -250 l 1087 -250 l 1107 -154 l 1139 -233 l 1156 -233 l 1217 -155 l 1198 -250 l 1233 -250 l 1265 -90 l 1233 -90 l 1155 -189 l 1115 -90 l 1084 -90 m 890 -90 l 857 -250 l 981 -250 l 988 -220 l 901 -220 l 907 -183 l 982 -183 l 988 -154 l 913 -154 l 920 -119 l 1004 -119 l 1010 -90 l 890 -90 m 659 -90 l 627 -250 l 705 -250 q 758 -238 734 -250 q 793 -205 781 -227 q 805 -157 805 -184 q 795 -121 805 -136 q 768 -98 787 -106 q 726 -90 751 -90 l 659 -90 m 1925 -221 q 1893 -210 1904 -221 q 1882 -181 1882 -199 q 1889 -150 1882 -163 q 1909 -127 1896 -135 q 1940 -119 1922 -119 q 1972 -130 1961 -119 q 1984 -159 1984 -141 q 1977 -190 1984 -176 q 1957 -212 1969 -204 q 1925 -221 1942 -221 m 739 -212 q 707 -219 726 -219 l 670 -219 l 690 -120 l 722 -120 q 756 -130 745 -120 q 768 -159 768 -140 q 760 -190 768 -175 q 739 -212 753 -203 z "},"9":{"ha":3080,"x_min":21,"x_max":3061,"o":"m 1890 349 q 2041 463 1933 413 q 1979 317 2005 364 q 1923 259 1953 269 q 1876 259 1890 249 q 1866 294 1862 269 q 1890 349 1870 319 m 830 725 q 883 713 866 780 q 892 585 897 659 q 890 564 892 571 l 890 563 q 829 635 850 585 q 830 725 808 686 m 3057 743 q 3036 643 3061 688 q 3048 604 3048 626 q 3011 490 3048 530 q 2904 413 2972 446 q 2773 380 2837 380 q 2664 416 2709 380 q 2627 455 2646 429 q 2456 374 2555 374 q 2382 386 2417 374 q 2381 380 2382 384 q 2379 376 2380 377 q 2330 175 2328 203 q 2327 132 2336 153 q 2300 99 2319 111 q 2262 88 2281 88 q 2215 106 2235 88 q 2153 182 2178 140 q 2081 108 2125 140 q 1944 56 2009 56 q 1895 68 1919 56 q 1859 93 1872 80 q 1824 129 1845 105 q 1771 204 1791 165 q 1758 282 1754 239 q 1755 286 1757 283 q 1751 289 1752 288 q 1695 276 1725 276 q 1563 361 1616 276 q 1550 390 1555 374 q 1547 393 1548 391 q 1543 396 1545 394 q 1540 399 1541 398 q 1532 348 1532 363 q 1496 290 1531 310 q 1461 281 1480 281 q 1428 290 1443 281 q 1403 306 1419 294 q 1387 300 1396 302 q 1362 298 1373 298 q 1297 313 1329 298 q 1244 360 1265 328 q 1149 303 1196 305 q 1133 302 1143 302 q 1019 355 1057 302 q 845 254 947 254 q 715 308 772 254 q 722 249 717 276 q 716 209 725 228 q 690 178 707 190 q 652 168 673 168 q 612 180 631 168 q 503 311 547 233 q 460 371 478 341 q 473 239 450 280 q 471 169 492 203 q 411 135 450 135 l 410 135 q 384 137 399 135 q 336 155 368 140 q 281 198 304 171 q 183 385 193 300 q 144 372 165 372 q 119 376 131 372 q 71 408 92 387 q 40 450 50 428 q 25 492 30 473 q 22 525 21 511 q 24 536 23 529 q 32 559 26 543 q 46 593 37 576 q 73 632 55 610 q 112 672 90 653 q 169 708 134 690 q 246 739 204 726 q 293 892 273 833 q 328 977 313 951 q 352 1010 344 1002 q 376 1023 361 1017 q 404 1027 388 1027 q 546 941 461 1027 q 555 930 551 936 q 664 1137 598 1030 q 791 1204 706 1204 q 903 1176 846 1204 q 956 1114 920 1167 q 993 1041 992 1060 q 960 979 995 1002 q 920 939 941 967 q 1003 867 968 913 q 1017 831 1015 851 q 1022 827 1019 830 q 1067 886 1043 863 q 1192 934 1119 934 q 1262 919 1230 934 q 1314 880 1295 905 q 1348 882 1332 882 q 1477 1162 1394 1026 q 1603 1230 1518 1230 q 1716 1201 1658 1230 q 1754 1142 1752 1183 l 1754 1137 q 2025 1143 1834 1143 q 2064 1143 2039 1143 q 2108 1143 2089 1143 q 2144 1143 2128 1143 q 2175 1144 2160 1143 q 2203 1146 2190 1145 q 2228 1149 2216 1147 q 2251 1154 2241 1152 q 2269 1158 2260 1156 q 2284 1162 2278 1160 q 2296 1165 2291 1164 q 2303 1168 2300 1166 l 2305 1168 q 2331 1173 2317 1173 q 2381 1152 2360 1173 q 2411 1111 2390 1143 q 2433 1076 2431 1078 q 2447 1000 2462 1036 q 2429 967 2442 987 q 2491 913 2480 959 q 2493 898 2493 905 q 2522 901 2506 901 q 2620 859 2580 901 q 2678 914 2650 894 q 2822 964 2746 964 q 2926 938 2883 964 q 3011 854 2969 911 q 3046 800 3035 825 q 3057 743 3056 774 m 600 313 q 606 542 584 410 q 673 787 629 673 q 771 993 717 902 q 871 1114 826 1084 q 859 1119 867 1116 q 831 1128 852 1122 q 793 1135 811 1134 q 755 1127 775 1135 q 724 1100 735 1119 q 618 900 661 999 q 558 731 576 801 q 534 598 541 662 q 530 503 528 534 q 536 450 532 473 q 494 562 508 498 q 479 681 479 625 q 481 785 478 736 q 490 863 485 834 l 496 892 q 475 912 488 900 q 436 943 463 924 q 399 957 410 961 q 360 870 389 953 q 302 680 332 787 q 205 648 248 669 q 143 606 163 627 q 110 564 122 584 q 95 530 97 543 l 92 517 q 281 596 123 563 q 256 481 261 513 q 254 384 247 422 q 278 324 261 345 q 314 293 296 303 q 346 282 332 283 l 359 280 q 336 392 336 322 q 350 532 335 462 q 384 666 366 602 q 418 770 403 730 l 434 810 q 462 556 438 671 q 490 466 472 508 q 526 396 508 423 q 562 350 545 370 q 589 321 578 330 l 600 313 m 1238 505 q 1267 457 1246 473 q 1305 444 1288 442 l 1322 444 q 1318 449 1320 446 q 1312 464 1316 452 q 1304 492 1307 476 q 1302 535 1302 507 q 1308 597 1302 564 q 1328 696 1315 643 q 1350 781 1341 750 l 1359 812 q 1337 812 1350 812 q 1296 804 1323 812 q 1261 779 1270 795 q 1201 655 1227 718 q 1146 551 1174 593 q 1111 509 1126 521 q 1086 506 1097 496 q 1088 585 1071 519 q 1138 714 1106 650 q 1163 762 1154 745 q 1184 793 1173 779 q 1205 811 1195 807 q 1229 816 1216 816 q 1261 811 1242 817 q 1239 852 1270 836 q 1158 859 1202 872 q 1115 834 1133 851 q 1060 748 1086 808 q 1019 625 1033 689 q 954 559 991 576 q 969 668 970 628 q 936 789 965 757 q 859 815 907 821 q 947 825 897 840 q 945 828 947 827 q 938 836 943 830 q 927 847 933 842 q 913 860 922 852 q 896 872 905 867 q 876 882 887 878 q 854 889 865 887 q 830 891 843 892 q 806 886 818 890 q 731 799 769 873 q 674 636 692 725 q 673 498 656 547 q 713 433 686 459 q 773 400 740 408 q 843 411 806 393 q 911 472 881 429 q 943 528 931 500 q 1010 568 979 536 q 1011 507 1007 536 q 1038 458 1017 470 q 1093 448 1059 446 q 1165 516 1122 450 q 1235 646 1207 581 l 1263 710 q 1260 703 1262 707 q 1255 683 1259 698 q 1247 652 1251 667 q 1240 617 1244 637 q 1235 578 1236 596 q 1234 540 1233 559 q 1238 505 1234 520 m 1672 429 q 1666 435 1670 431 q 1655 454 1663 439 q 1643 487 1647 469 q 1639 536 1639 505 q 1649 602 1640 566 q 1678 703 1662 654 q 1705 776 1695 753 l 1714 800 l 1649 831 q 1626 829 1636 837 q 1575 789 1602 813 q 1504 715 1548 766 q 1430 608 1460 664 q 1546 939 1468 777 q 1684 1139 1623 1100 q 1672 1145 1680 1141 q 1645 1154 1665 1148 q 1606 1160 1624 1160 q 1568 1153 1588 1161 q 1537 1126 1548 1145 q 1440 933 1475 1025 q 1379 732 1405 842 q 1355 598 1365 671 q 1348 503 1345 525 q 1366 464 1350 483 q 1396 435 1381 444 l 1410 426 q 1413 461 1411 439 q 1434 538 1415 483 q 1486 636 1453 594 q 1554 718 1522 684 q 1599 760 1586 751 l 1612 769 q 1603 745 1609 760 q 1584 689 1596 730 q 1563 612 1571 648 q 1556 536 1556 576 q 1571 474 1556 496 q 1600 439 1585 452 q 1628 424 1616 426 q 1651 422 1640 421 q 1666 426 1661 423 l 1672 429 m 1811 363 q 1795 434 1796 389 q 1806 535 1794 479 q 1837 651 1819 591 q 1880 774 1855 710 q 1927 889 1905 839 q 1971 989 1948 940 q 2190 995 2163 993 q 2242 1009 2218 997 q 2282 1037 2266 1021 q 2309 1067 2298 1053 q 2326 1093 2321 1082 l 2331 1103 q 2307 1095 2323 1100 q 2243 1082 2292 1090 q 2145 1073 2195 1074 q 2031 1072 2108 1072 q 1905 1072 1953 1072 q 1802 1070 1857 1072 q 1718 1064 1747 1068 q 1665 1046 1689 1060 q 1625 1015 1640 1032 q 1599 982 1610 998 q 1584 954 1588 965 l 1579 943 q 1638 966 1590 956 q 1735 980 1686 977 q 1864 985 1776 983 q 1822 873 1852 951 q 1764 716 1791 795 q 1720 569 1736 637 q 1716 490 1710 524 q 1737 432 1721 456 q 1769 393 1752 408 q 1799 370 1786 378 l 1811 363 m 2555 623 q 2590 699 2581 665 q 2597 749 2599 732 q 2585 787 2594 766 q 2483 823 2557 850 q 2410 777 2447 809 q 2355 718 2373 744 l 2336 692 q 2423 897 2419 895 l 2406 899 q 2315 867 2340 899 q 2309 860 2311 864 q 2220 612 2268 745 q 2212 588 2215 595 q 2139 546 2155 553 q 2185 681 2155 600 q 2237 814 2215 761 l 2258 867 q 2235 865 2249 866 q 2192 855 2221 863 q 2153 833 2163 846 q 2102 761 2146 827 q 2017 650 2057 696 q 1963 614 1978 604 q 2005 732 1947 625 q 2081 862 2064 840 q 2070 862 2077 862 q 2044 859 2063 861 q 2009 850 2025 856 q 1976 833 1993 845 q 1951 806 1959 822 q 1884 660 1905 718 q 1882 577 1864 602 q 1920 562 1893 563 q 1980 578 1946 561 q 2041 629 2014 595 l 2142 764 q 2057 509 2094 615 q 1999 474 2035 495 q 1947 443 1963 453 q 1908 412 1931 433 q 1864 363 1885 391 q 1830 299 1839 332 q 1831 244 1822 267 q 1860 209 1840 221 q 1914 204 1879 196 q 1989 240 1949 212 q 2060 326 2035 272 q 2121 488 2085 380 q 2127 509 2125 502 q 2198 549 2165 532 q 2144 372 2159 440 q 2145 334 2140 355 q 2160 296 2150 313 q 2182 265 2171 279 q 2201 242 2193 250 l 2210 234 q 2216 312 2203 256 q 2260 471 2229 368 q 2341 661 2290 575 q 2435 762 2376 720 q 2511 791 2494 804 q 2513 747 2519 781 q 2492 682 2507 713 q 2448 617 2474 644 q 2399 577 2422 590 q 2355 558 2376 565 q 2321 550 2334 551 l 2308 549 q 2317 544 2311 547 q 2339 533 2322 541 q 2372 522 2355 526 q 2414 519 2389 518 q 2460 530 2438 521 q 2508 563 2483 539 q 2555 623 2534 587 m 2797 821 q 2867 857 2833 861 q 2890 831 2889 853 q 2851 765 2890 801 q 2806 742 2831 747 q 2764 739 2780 736 l 2747 742 q 2750 736 2748 740 q 2758 724 2751 733 q 2773 709 2764 715 q 2796 698 2781 703 q 2827 694 2810 693 q 2911 733 2884 699 q 2936 814 2939 768 q 2902 868 2934 844 q 2823 895 2871 892 q 2720 858 2776 897 q 2657 793 2686 832 q 2614 709 2629 753 q 2608 621 2599 665 q 2656 546 2618 576 q 2742 527 2692 518 q 2837 559 2792 535 q 2907 612 2882 584 q 2920 638 2915 621 q 2925 667 2924 655 l 2926 680 q 2875 625 2909 652 q 2806 584 2841 599 q 2741 566 2772 569 q 2700 582 2711 563 q 2711 692 2677 618 q 2797 821 2745 765 m 779 690 q 811 592 783 638 q 882 532 839 547 q 836 439 861 460 q 778 427 810 418 q 753 472 759 433 q 751 558 747 511 q 767 648 756 606 q 779 690 772 670 m 1399 -221 q 1367 -210 1377 -221 q 1355 -181 1355 -199 q 1362 -150 1355 -163 q 1383 -127 1369 -135 q 1413 -119 1396 -119 q 1446 -130 1435 -119 q 1457 -159 1457 -141 q 1450 -190 1457 -175 q 1430 -212 1443 -204 q 1399 -221 1415 -221 m 499 -331 l 564 -2 l 2581 -2 l 2515 -331 l 499 -331 m 2314 -90 l 2308 -120 l 2359 -120 l 2333 -250 l 2370 -250 l 2397 -120 l 2448 -120 l 2454 -90 l 2314 -90 m 2106 -90 l 2074 -250 l 2110 -250 l 2131 -149 l 2190 -250 l 2221 -250 l 2253 -90 l 2216 -90 l 2196 -190 l 2136 -90 l 2106 -90 m 1857 -134 q 1844 -183 1844 -157 q 1853 -219 1844 -202 q 1881 -244 1862 -235 q 1922 -252 1896 -252 q 1973 -240 1951 -252 q 2009 -205 1996 -228 q 2022 -157 2022 -183 q 2012 -120 2022 -137 q 1985 -96 2004 -106 q 1943 -87 1968 -87 q 1891 -99 1914 -87 q 1857 -134 1870 -111 m 1685 -90 l 1653 -250 l 1691 -250 l 1702 -191 l 1776 -191 l 1782 -161 l 1708 -161 l 1716 -119 l 1800 -119 l 1806 -90 l 1685 -90 m 1330 -134 q 1318 -183 1318 -156 q 1326 -219 1318 -203 q 1354 -244 1335 -235 q 1396 -252 1369 -252 q 1447 -240 1425 -252 q 1482 -205 1470 -228 q 1495 -157 1495 -184 q 1485 -120 1495 -137 q 1458 -96 1477 -106 q 1417 -87 1441 -87 q 1365 -99 1388 -87 q 1330 -134 1343 -111 m 1084 -90 l 1053 -250 l 1087 -250 l 1106 -154 l 1139 -233 l 1156 -233 l 1217 -155 l 1198 -250 l 1233 -250 l 1265 -90 l 1233 -90 l 1155 -189 l 1115 -90 l 1084 -90 m 890 -90 l 857 -250 l 981 -250 l 988 -220 l 901 -220 l 907 -183 l 982 -183 l 988 -154 l 913 -154 l 920 -119 l 1004 -119 l 1010 -90 l 890 -90 m 659 -90 l 627 -250 l 705 -250 q 758 -238 734 -250 q 793 -205 781 -227 q 805 -157 805 -184 q 795 -121 805 -136 q 768 -98 787 -106 q 726 -90 751 -90 l 659 -90 m 1925 -221 q 1893 -210 1904 -221 q 1882 -181 1882 -199 q 1889 -150 1882 -163 q 1909 -127 1896 -135 q 1940 -119 1922 -119 q 1972 -130 1961 -119 q 1984 -159 1984 -141 q 1977 -190 1984 -176 q 1957 -212 1969 -204 q 1925 -221 1942 -221 m 739 -212 q 707 -219 726 -219 l 670 -219 l 690 -120 l 722 -120 q 756 -130 745 -120 q 768 -159 768 -140 q 760 -190 768 -175 q 739 -212 753 -203 z "},"\u0000":{"ha":0,"x_min":0,"x_max":0,"o":""},"\n":{"ha":0,"x_min":0,"x_max":0,"o":""},"\r":{"ha":0,"x_min":0,"x_max":0,"o":""}," ":{"ha":456,"x_min":0,"x_max":0,"o":""},"!":{"ha":3080,"x_min":21,"x_max":3061,"o":"m 1890 347 q 2041 460 1933 410 q 1979 314 2005 361 q 1923 256 1953 267 q 1876 256 1890 246 q 1866 291 1862 266 q 1890 347 1870 316 m 830 722 q 883 710 866 777 q 892 583 897 656 q 890 561 892 568 l 890 560 q 829 633 850 582 q 830 722 808 684 m 3057 741 q 3036 640 3061 686 q 3048 602 3048 623 q 3011 488 3048 528 q 2904 411 2972 444 q 2773 377 2837 377 q 2664 413 2709 377 q 2627 452 2646 427 q 2456 371 2555 371 q 2382 383 2417 371 q 2381 378 2382 381 q 2379 373 2380 374 q 2330 172 2328 200 q 2327 130 2336 151 q 2300 96 2319 109 q 2262 85 2281 85 q 2215 104 2235 85 q 2153 180 2178 138 q 2081 105 2125 137 q 1944 54 2009 54 q 1895 65 1919 54 q 1859 90 1872 77 q 1824 126 1845 102 q 1771 201 1791 163 q 1758 279 1754 236 q 1755 283 1757 281 q 1751 286 1752 285 q 1695 273 1725 273 q 1563 359 1616 273 q 1550 387 1555 371 q 1547 390 1548 389 q 1543 393 1545 391 q 1540 397 1541 395 q 1532 345 1532 361 q 1496 287 1531 307 q 1461 278 1480 278 q 1428 287 1443 278 q 1403 303 1419 291 q 1387 298 1399 300 q 1362 295 1373 295 q 1297 310 1329 295 q 1244 357 1265 326 q 1149 300 1196 302 q 1133 300 1143 300 q 1019 352 1057 300 q 845 251 947 251 q 715 305 772 251 q 722 247 717 274 q 716 207 725 226 q 690 176 707 187 q 652 165 673 165 q 612 178 631 165 q 503 309 547 230 q 460 368 478 338 q 473 236 450 277 q 471 166 492 201 q 411 132 450 132 l 410 132 q 384 135 399 132 q 336 153 368 137 q 281 195 304 168 q 183 382 193 297 q 144 369 165 369 q 119 374 131 369 q 71 405 92 385 q 40 448 50 425 q 25 489 30 470 q 22 522 21 509 q 24 533 23 526 q 32 557 26 540 q 46 591 37 574 q 73 629 55 608 q 112 669 90 650 q 169 706 134 688 q 246 736 204 724 q 293 889 273 831 q 328 974 313 948 q 352 1007 344 1000 q 376 1020 361 1015 q 404 1025 388 1025 q 546 938 461 1025 q 555 928 552 932 q 664 1135 597 1026 q 791 1202 706 1202 q 903 1173 846 1202 q 956 1111 920 1164 q 993 1039 992 1058 q 960 977 995 999 q 920 936 941 964 q 1003 865 968 910 q 1017 829 1015 848 q 1022 825 1019 827 q 1067 883 1043 861 q 1192 931 1119 931 q 1262 917 1230 931 q 1314 877 1295 902 q 1348 879 1332 879 q 1477 1160 1394 1023 q 1603 1227 1518 1227 q 1716 1198 1658 1227 q 1754 1139 1752 1180 l 1754 1135 q 2025 1140 1834 1140 q 2064 1140 2039 1140 q 2108 1140 2089 1140 q 2144 1140 2128 1140 q 2175 1141 2160 1140 q 2203 1143 2190 1142 q 2228 1147 2216 1145 q 2251 1151 2241 1149 q 2269 1155 2260 1153 q 2284 1159 2278 1158 q 2296 1162 2291 1161 q 2303 1165 2300 1164 l 2305 1166 q 2331 1171 2317 1171 q 2381 1149 2360 1171 q 2411 1108 2390 1140 q 2433 1074 2431 1076 q 2447 998 2462 1033 q 2429 964 2441 982 q 2491 911 2480 956 q 2493 895 2493 903 q 2522 898 2506 898 q 2620 857 2580 898 q 2678 911 2650 891 q 2822 962 2746 962 q 2926 935 2883 962 q 3011 851 2969 908 q 3046 797 3035 822 q 3057 741 3056 772 m 600 311 q 606 539 584 408 q 673 785 629 670 q 771 990 717 899 q 871 1111 826 1082 q 859 1116 867 1113 q 831 1125 852 1120 q 793 1132 811 1131 q 755 1125 775 1133 q 724 1098 735 1117 q 618 898 661 997 q 558 729 576 798 q 534 595 541 660 q 530 500 528 531 q 536 448 532 470 q 494 559 508 496 q 479 678 479 623 q 481 783 478 734 q 490 860 485 831 l 496 889 q 475 909 488 897 q 436 940 463 922 q 399 954 410 958 q 360 867 389 950 q 302 677 332 784 q 205 645 248 666 q 143 603 163 625 q 110 561 122 581 q 95 528 97 541 l 92 515 q 281 593 123 560 q 256 478 261 510 q 254 381 247 419 q 278 321 261 342 q 314 291 296 300 q 346 279 332 281 l 359 277 q 336 389 336 319 q 350 529 335 459 q 384 663 366 599 q 418 767 403 727 l 434 807 q 462 553 438 668 q 490 463 472 505 q 526 394 508 420 q 562 347 545 367 q 589 319 578 328 l 600 311 m 1238 503 q 1267 455 1246 470 q 1305 441 1288 439 l 1322 441 q 1318 446 1320 443 q 1312 461 1316 449 q 1304 489 1307 473 q 1302 533 1302 505 q 1308 594 1302 561 q 1328 694 1315 640 q 1350 779 1341 747 l 1359 809 q 1337 809 1350 810 q 1296 801 1323 809 q 1261 777 1270 793 q 1201 652 1227 715 q 1146 549 1174 590 q 1111 506 1126 518 q 1086 503 1097 494 q 1088 582 1071 516 q 1138 711 1106 648 q 1163 759 1154 743 q 1184 790 1173 776 q 1205 809 1195 804 q 1229 813 1216 813 q 1261 808 1242 814 q 1239 850 1270 833 q 1158 856 1202 869 q 1115 831 1133 848 q 1060 746 1086 805 q 1019 622 1033 686 q 954 557 991 573 q 969 665 970 625 q 936 786 965 754 q 859 812 907 818 q 947 823 896 838 q 945 826 947 824 q 938 833 943 827 q 927 844 933 839 q 913 857 922 850 q 896 869 905 864 q 876 880 887 875 q 854 887 865 884 q 830 888 843 889 q 806 884 818 888 q 731 797 769 871 q 674 633 692 722 q 673 495 656 545 q 713 431 686 456 q 773 398 740 406 q 843 409 806 391 q 911 470 881 427 q 943 526 932 499 q 1010 566 978 534 q 1011 504 1007 533 q 1038 455 1017 467 q 1093 446 1059 444 q 1165 513 1122 448 q 1235 643 1207 578 l 1263 708 q 1260 701 1262 705 q 1255 681 1259 696 q 1247 650 1251 665 q 1240 615 1244 635 q 1235 575 1236 594 q 1234 537 1233 557 q 1238 503 1234 517 m 1672 427 q 1666 432 1670 429 q 1655 451 1663 436 q 1643 485 1647 467 q 1639 533 1639 503 q 1649 599 1640 564 q 1678 701 1662 651 q 1705 773 1695 750 l 1714 797 l 1649 829 q 1626 827 1636 834 q 1575 787 1602 810 q 1504 712 1548 763 q 1430 606 1460 661 q 1546 936 1468 774 q 1684 1137 1623 1097 q 1672 1142 1680 1139 q 1645 1151 1665 1145 q 1606 1158 1624 1157 q 1568 1150 1588 1158 q 1537 1123 1548 1142 q 1440 931 1475 1022 q 1379 729 1405 840 q 1355 595 1365 668 q 1348 500 1345 522 q 1366 461 1350 480 q 1396 433 1381 441 l 1410 423 q 1413 458 1411 436 q 1434 536 1415 480 q 1486 633 1453 591 q 1554 715 1522 682 q 1599 757 1586 748 l 1612 766 q 1603 743 1609 758 q 1584 686 1596 728 q 1563 609 1571 645 q 1556 534 1556 574 q 1571 471 1556 494 q 1600 436 1585 449 q 1628 421 1616 423 q 1651 419 1640 418 q 1666 423 1661 420 l 1672 427 m 1811 361 q 1795 431 1796 386 q 1806 532 1794 476 q 1837 648 1819 589 q 1880 772 1855 707 q 1927 887 1905 836 q 1971 987 1948 937 q 2190 992 2163 990 q 2242 1006 2218 994 q 2282 1034 2266 1019 q 2309 1065 2298 1050 q 2326 1090 2321 1080 l 2331 1101 q 2307 1093 2323 1097 q 2243 1079 2292 1088 q 2145 1070 2195 1071 q 2031 1069 2108 1069 q 1905 1069 1953 1069 q 1802 1067 1857 1069 q 1718 1061 1747 1065 q 1665 1043 1689 1057 q 1625 1013 1640 1029 q 1599 979 1610 996 q 1584 951 1588 962 l 1579 940 q 1638 963 1590 953 q 1735 977 1686 974 q 1864 982 1776 980 q 1822 870 1852 948 q 1764 713 1791 792 q 1720 566 1736 635 q 1716 487 1710 522 q 1737 429 1721 453 q 1769 390 1752 405 q 1799 368 1786 375 l 1811 361 m 2555 620 q 2590 696 2581 663 q 2597 746 2599 729 q 2585 784 2594 763 q 2483 820 2557 848 q 2410 774 2447 806 q 2355 715 2373 741 l 2336 690 q 2423 895 2419 892 l 2406 896 q 2315 865 2340 896 q 2309 857 2311 861 q 2220 609 2268 743 q 2212 585 2215 593 q 2139 543 2155 551 q 2185 678 2155 597 q 2237 811 2215 758 l 2258 864 q 2235 862 2249 863 q 2192 852 2221 861 q 2153 831 2163 844 q 2102 759 2146 824 q 2017 647 2057 693 q 1963 612 1978 601 q 2005 730 1947 623 q 2081 859 2064 837 q 2070 859 2077 859 q 2044 856 2063 859 q 2009 848 2025 853 q 1976 831 1993 842 q 1951 804 1959 819 q 1884 657 1905 715 q 1882 574 1864 599 q 1920 559 1893 560 q 1980 575 1946 558 q 2041 627 2014 593 l 2142 761 q 2057 506 2094 612 q 1999 471 2035 492 q 1947 440 1963 450 q 1908 409 1931 430 q 1864 361 1885 389 q 1830 296 1839 329 q 1831 241 1822 264 q 1860 206 1840 218 q 1914 201 1879 193 q 1989 237 1949 209 q 2060 323 2035 269 q 2121 485 2085 377 q 2127 507 2125 499 q 2198 547 2165 530 q 2144 370 2159 437 q 2145 331 2140 352 q 2160 293 2150 311 q 2182 261 2171 276 q 2201 239 2193 247 l 2210 231 q 2216 309 2203 253 q 2260 468 2229 366 q 2341 659 2290 572 q 2435 759 2376 717 q 2511 788 2494 802 q 2513 744 2519 779 q 2492 679 2507 710 q 2448 614 2474 642 q 2399 575 2422 587 q 2355 555 2376 562 q 2321 547 2334 548 l 2308 547 q 2317 541 2311 545 q 2339 530 2322 538 q 2372 519 2355 523 q 2414 517 2389 515 q 2460 527 2438 518 q 2508 560 2483 536 q 2555 620 2534 584 m 2797 819 q 2867 854 2833 859 q 2890 828 2889 850 q 2851 762 2890 798 q 2806 739 2831 745 q 2764 736 2780 733 l 2747 739 q 2750 734 2748 737 q 2758 722 2751 730 q 2773 706 2764 713 q 2796 695 2781 700 q 2827 692 2810 690 q 2911 731 2884 696 q 2936 812 2939 766 q 2902 865 2934 841 q 2823 892 2871 890 q 2720 855 2776 894 q 2657 790 2686 829 q 2614 707 2629 751 q 2608 618 2599 663 q 2656 543 2618 574 q 2742 524 2692 515 q 2837 557 2792 532 q 2907 610 2882 581 q 2920 635 2915 618 q 2925 665 2924 652 l 2926 677 q 2875 623 2909 649 q 2806 581 2841 596 q 2741 563 2772 566 q 2700 579 2711 560 q 2711 689 2677 616 q 2797 819 2745 762 m 779 688 q 811 590 783 635 q 882 529 839 544 q 836 437 861 458 q 778 425 810 416 q 753 469 759 430 q 751 556 747 508 q 767 646 756 604 q 779 688 772 667 m 1398 -224 q 1367 -213 1377 -224 q 1355 -184 1355 -201 q 1362 -152 1355 -165 q 1382 -130 1369 -138 q 1413 -121 1396 -121 q 1446 -132 1435 -121 q 1457 -161 1457 -144 q 1450 -193 1457 -178 q 1430 -215 1443 -207 q 1398 -224 1415 -224 m 499 -334 l 564 -5 l 2581 -5 l 2515 -334 l 499 -334 m 2314 -92 l 2308 -122 l 2359 -122 l 2333 -252 l 2370 -252 l 2397 -122 l 2448 -122 l 2454 -92 l 2314 -92 m 2106 -92 l 2074 -252 l 2110 -252 l 2131 -152 l 2190 -252 l 2221 -252 l 2253 -92 l 2216 -92 l 2196 -193 l 2136 -92 l 2106 -92 m 1857 -136 q 1844 -186 1844 -160 q 1853 -222 1844 -205 q 1881 -247 1862 -237 q 1922 -255 1896 -255 q 1973 -243 1951 -255 q 2009 -208 1996 -231 q 2022 -159 2022 -184 q 2012 -123 2022 -140 q 1985 -98 2004 -109 q 1943 -90 1968 -90 q 1891 -102 1914 -90 q 1857 -136 1870 -113 m 1685 -92 l 1653 -252 l 1691 -252 l 1702 -194 l 1776 -194 l 1782 -164 l 1708 -164 l 1716 -122 l 1800 -122 l 1806 -92 l 1685 -92 m 1330 -136 q 1318 -186 1318 -159 q 1326 -222 1318 -206 q 1354 -247 1335 -237 q 1396 -255 1369 -255 q 1447 -243 1425 -255 q 1482 -208 1470 -231 q 1495 -159 1495 -186 q 1485 -123 1495 -140 q 1458 -98 1477 -109 q 1417 -90 1441 -90 q 1365 -102 1388 -90 q 1330 -136 1343 -114 m 1084 -92 l 1053 -252 l 1087 -252 l 1106 -157 l 1139 -235 l 1156 -235 l 1217 -157 l 1198 -252 l 1233 -252 l 1265 -92 l 1233 -92 l 1155 -192 l 1115 -92 l 1084 -92 m 890 -92 l 857 -252 l 981 -252 l 988 -222 l 901 -222 l 907 -186 l 982 -186 l 988 -157 l 913 -157 l 920 -122 l 1004 -122 l 1010 -92 l 890 -92 m 659 -92 l 627 -252 l 705 -252 q 758 -241 734 -252 q 793 -208 781 -229 q 805 -159 805 -187 q 795 -123 805 -139 q 768 -100 787 -109 q 726 -92 751 -92 l 659 -92 m 1925 -224 q 1893 -213 1904 -224 q 1882 -184 1882 -202 q 1889 -152 1882 -165 q 1909 -130 1896 -138 q 1940 -121 1922 -121 q 1972 -132 1961 -121 q 1984 -161 1984 -144 q 1977 -193 1984 -179 q 1957 -215 1969 -207 q 1925 -224 1942 -224 m 739 -214 q 707 -222 726 -222 l 670 -222 l 690 -123 l 722 -123 q 756 -133 745 -123 q 768 -161 768 -142 q 760 -193 768 -178 q 739 -214 753 -206 z "},"\"":{"ha":3080,"x_min":21,"x_max":3061,"o":"m 1890 347 q 2041 460 1933 410 q 1979 314 2005 361 q 1923 256 1953 267 q 1876 256 1890 246 q 1866 291 1862 266 q 1890 347 1870 316 m 830 722 q 883 710 866 777 q 892 583 897 656 q 890 561 892 568 l 890 560 q 829 633 850 582 q 830 722 808 684 m 3057 741 q 3036 640 3061 686 q 3048 602 3048 623 q 3011 487 3048 528 q 2904 410 2972 444 q 2773 377 2837 377 q 2664 413 2709 377 q 2627 452 2646 427 q 2456 371 2555 371 q 2382 383 2417 371 q 2381 378 2382 381 q 2379 373 2380 374 q 2330 172 2328 200 q 2327 130 2336 151 q 2300 96 2319 109 q 2262 85 2281 85 q 2216 104 2236 85 q 2153 180 2178 139 q 2081 105 2125 137 q 1944 54 2009 54 q 1895 65 1919 54 q 1859 90 1872 77 q 1824 126 1845 102 q 1772 201 1792 161 q 1758 279 1754 237 q 1755 283 1757 281 q 1751 286 1752 285 q 1695 273 1725 273 q 1563 359 1616 273 q 1550 387 1555 371 q 1547 390 1548 389 q 1543 393 1545 391 q 1540 397 1541 395 q 1532 345 1532 361 q 1496 287 1531 307 q 1461 278 1480 278 q 1428 287 1443 278 q 1403 303 1419 291 q 1387 298 1399 300 q 1362 295 1373 295 q 1244 357 1285 295 q 1149 300 1196 302 q 1133 300 1143 300 q 1019 352 1057 300 q 845 251 947 251 q 715 305 772 251 q 722 246 717 273 q 716 206 725 225 q 690 176 707 187 q 652 165 673 165 q 612 178 631 165 q 503 309 547 230 q 460 368 478 338 q 473 236 450 277 q 471 166 492 201 q 411 132 450 132 l 410 132 q 384 135 399 132 q 336 153 368 137 q 281 195 304 168 q 183 382 193 297 q 144 369 165 369 q 119 374 131 369 q 71 405 92 385 q 40 448 50 425 q 25 489 30 470 q 22 522 21 509 q 24 533 23 526 q 32 557 26 540 q 46 591 37 574 q 73 629 55 608 q 112 669 90 650 q 169 706 134 688 q 246 736 204 724 q 293 889 273 831 q 328 974 313 948 q 352 1007 344 1000 q 376 1020 361 1015 q 404 1025 388 1025 q 546 938 461 1025 q 555 927 551 933 q 664 1135 598 1027 q 791 1202 706 1202 q 903 1173 846 1202 q 956 1111 920 1164 q 993 1038 992 1057 q 960 977 995 999 q 920 936 941 964 q 1003 865 968 910 q 1017 829 1015 848 q 1022 825 1019 827 q 1067 883 1043 861 q 1192 930 1118 930 q 1262 916 1230 930 q 1314 877 1295 902 q 1348 879 1332 879 q 1477 1160 1394 1023 q 1603 1227 1518 1227 q 1716 1198 1658 1227 q 1754 1139 1752 1180 q 1754 1137 1754 1139 q 1754 1135 1754 1135 q 2025 1140 1834 1140 q 2064 1140 2039 1140 q 2108 1140 2089 1140 q 2144 1140 2128 1140 q 2175 1141 2160 1140 q 2203 1143 2190 1142 q 2228 1147 2216 1145 q 2251 1151 2241 1149 q 2269 1155 2260 1153 q 2284 1159 2278 1158 q 2296 1162 2291 1161 q 2303 1165 2300 1164 l 2305 1166 q 2331 1171 2317 1171 q 2381 1149 2360 1171 q 2411 1108 2390 1140 q 2433 1074 2431 1076 q 2447 998 2462 1033 q 2429 964 2441 982 q 2491 911 2480 956 q 2493 895 2493 903 q 2522 898 2506 898 q 2620 857 2580 898 q 2678 911 2650 891 q 2822 962 2746 962 q 2926 935 2883 962 q 3011 851 2969 908 q 3046 797 3035 822 q 3057 741 3056 772 m 600 311 q 606 539 584 408 q 673 785 629 670 q 771 990 717 899 q 871 1111 826 1082 q 859 1116 867 1113 q 831 1125 852 1120 q 793 1132 811 1131 q 755 1125 775 1133 q 724 1098 735 1117 q 618 898 661 997 q 558 729 576 798 q 534 595 541 660 q 530 500 528 531 q 536 448 532 470 q 494 559 508 496 q 479 678 479 623 q 481 783 478 734 q 490 860 485 831 l 496 889 q 475 909 488 897 q 436 940 463 922 q 399 954 410 958 q 360 867 389 950 q 302 677 332 784 q 205 645 248 666 q 143 603 163 625 q 110 561 122 581 q 95 528 97 541 l 92 515 q 281 593 123 560 q 256 478 261 510 q 254 381 247 419 q 278 321 261 342 q 314 291 296 300 q 346 279 332 281 l 359 277 q 336 389 336 319 q 350 529 335 459 q 384 663 366 599 q 418 767 403 727 l 434 807 q 462 553 438 668 q 490 463 472 505 q 526 394 508 420 q 562 347 545 367 q 589 319 578 328 l 600 311 m 1238 503 q 1267 455 1246 470 q 1305 441 1288 439 l 1322 441 q 1318 446 1320 443 q 1312 461 1316 449 q 1304 489 1307 473 q 1302 533 1302 505 q 1308 594 1302 561 q 1328 694 1315 640 q 1350 779 1341 747 l 1359 809 q 1337 809 1350 810 q 1296 801 1323 809 q 1261 777 1270 793 q 1201 652 1227 715 q 1146 549 1174 590 q 1111 506 1126 518 q 1086 503 1097 494 q 1088 582 1071 516 q 1138 711 1106 648 q 1163 759 1154 743 q 1184 790 1173 776 q 1205 809 1195 804 q 1229 813 1216 813 q 1261 808 1242 814 q 1239 850 1270 833 q 1158 856 1202 869 q 1115 831 1133 848 q 1060 746 1086 805 q 1019 622 1033 686 q 954 557 991 573 q 969 665 970 625 q 936 786 965 754 q 859 812 907 818 q 947 823 896 838 q 945 826 947 824 q 938 833 943 827 q 927 844 933 839 q 913 857 922 850 q 896 869 905 864 q 876 880 887 875 q 854 887 865 884 q 830 888 843 889 q 806 884 818 888 q 731 797 769 871 q 674 633 692 722 q 673 495 656 545 q 713 431 686 456 q 773 398 740 406 q 843 409 806 391 q 911 470 881 427 q 943 526 932 499 q 1010 566 978 534 q 1011 504 1007 533 q 1038 455 1017 467 q 1093 446 1059 444 q 1165 513 1122 448 q 1235 643 1207 578 l 1263 708 q 1260 701 1262 705 q 1255 681 1259 696 q 1247 650 1251 665 q 1240 615 1244 635 q 1235 575 1236 594 q 1234 537 1233 557 q 1238 503 1234 517 m 1672 427 q 1666 432 1670 429 q 1655 451 1663 436 q 1643 485 1647 467 q 1639 533 1639 503 q 1649 599 1640 564 q 1678 701 1662 651 q 1705 773 1695 750 l 1714 797 l 1649 829 q 1626 827 1636 834 q 1575 787 1602 810 q 1504 712 1548 763 q 1430 606 1460 661 q 1546 936 1468 774 q 1684 1137 1623 1097 q 1672 1142 1680 1139 q 1645 1151 1665 1145 q 1606 1158 1624 1157 q 1568 1150 1588 1158 q 1537 1123 1548 1142 q 1440 931 1475 1022 q 1379 729 1405 840 q 1355 595 1365 668 q 1348 500 1345 522 q 1366 461 1350 480 q 1396 433 1381 441 l 1410 423 q 1413 458 1411 436 q 1434 536 1415 480 q 1486 633 1453 591 q 1554 715 1522 682 q 1599 757 1586 748 l 1612 766 q 1603 743 1609 758 q 1584 686 1596 728 q 1563 609 1571 645 q 1556 534 1556 574 q 1571 471 1556 494 q 1600 436 1585 449 q 1628 421 1616 423 q 1651 419 1640 418 q 1666 423 1661 420 l 1672 427 m 1811 361 q 1795 431 1796 386 q 1806 532 1794 476 q 1836 648 1818 589 q 1879 772 1854 707 q 1926 887 1904 836 q 1971 987 1948 938 q 2190 992 2163 990 q 2242 1006 2218 994 q 2282 1034 2266 1019 q 2309 1065 2298 1050 q 2326 1090 2321 1080 l 2331 1101 q 2307 1093 2323 1097 q 2243 1079 2292 1088 q 2145 1070 2195 1071 q 2031 1069 2108 1069 q 1905 1069 1953 1069 q 1802 1067 1857 1069 q 1718 1061 1747 1065 q 1665 1043 1689 1057 q 1625 1013 1640 1029 q 1599 979 1610 996 q 1584 951 1588 962 l 1579 940 q 1638 963 1590 953 q 1735 977 1686 974 q 1864 982 1776 980 q 1822 870 1852 948 q 1764 713 1791 792 q 1720 566 1736 635 q 1716 487 1710 522 q 1737 429 1721 453 q 1769 390 1752 405 q 1799 368 1786 375 l 1811 361 m 2555 620 q 2590 696 2581 663 q 2597 746 2599 729 q 2585 784 2594 763 q 2483 820 2557 848 q 2410 774 2447 806 q 2355 715 2373 741 l 2336 690 q 2423 895 2419 892 l 2406 896 q 2315 865 2340 896 q 2309 857 2311 861 q 2220 609 2268 743 q 2212 585 2215 593 q 2139 543 2155 551 q 2185 678 2155 597 q 2237 811 2215 758 l 2258 864 q 2235 862 2249 863 q 2192 852 2221 861 q 2153 831 2163 844 q 2102 759 2146 824 q 2017 647 2057 693 q 1963 612 1978 601 q 2005 730 1947 623 q 2081 859 2064 837 q 2070 859 2077 859 q 2044 856 2063 859 q 2009 848 2025 853 q 1976 831 1993 842 q 1951 804 1959 819 q 1884 657 1905 715 q 1882 574 1864 599 q 1920 559 1893 560 q 1980 575 1946 558 q 2041 627 2014 593 l 2142 761 q 2057 506 2094 612 q 1999 471 2035 492 q 1947 440 1963 450 q 1908 409 1931 430 q 1864 361 1885 389 q 1830 296 1839 329 q 1831 241 1822 264 q 1860 206 1840 218 q 1914 201 1879 193 q 1989 237 1949 209 q 2061 325 2035 270 q 2123 489 2087 379 q 2124 495 2123 493 q 2126 500 2125 497 q 2128 507 2127 504 q 2198 547 2168 532 q 2144 370 2159 437 q 2145 331 2140 352 q 2161 293 2150 311 q 2183 261 2171 276 q 2203 239 2194 247 l 2211 231 q 2260 468 2200 267 q 2341 659 2290 572 q 2435 759 2376 717 q 2511 788 2494 802 q 2513 744 2519 779 q 2492 679 2507 710 q 2448 614 2474 642 q 2399 575 2422 587 q 2355 555 2376 562 q 2321 547 2334 548 l 2308 547 q 2317 541 2311 545 q 2339 530 2322 538 q 2372 519 2355 523 q 2414 517 2389 515 q 2460 527 2438 518 q 2508 560 2483 536 q 2555 620 2534 584 m 2797 819 q 2867 854 2833 859 q 2890 828 2889 850 q 2851 762 2890 798 q 2806 739 2831 745 q 2764 736 2780 733 l 2747 739 q 2750 734 2748 737 q 2758 722 2751 730 q 2773 706 2764 713 q 2796 695 2781 700 q 2827 692 2810 690 q 2911 731 2884 696 q 2936 812 2939 766 q 2902 865 2934 841 q 2823 892 2871 890 q 2720 855 2776 894 q 2657 790 2686 829 q 2614 707 2629 751 q 2608 618 2599 663 q 2656 543 2618 574 q 2742 524 2692 515 q 2837 557 2792 532 q 2907 610 2882 581 q 2920 635 2915 618 q 2925 665 2924 652 l 2926 677 q 2875 623 2909 649 q 2806 581 2841 596 q 2741 563 2772 566 q 2700 579 2711 560 q 2711 689 2677 616 q 2797 819 2745 762 m 779 688 q 811 590 783 635 q 882 529 839 544 q 836 437 861 458 q 778 425 810 416 q 753 469 759 430 q 751 556 747 508 q 766 646 755 604 q 779 688 770 659 m 1398 -224 q 1367 -213 1377 -224 q 1355 -184 1355 -201 q 1362 -152 1355 -165 q 1382 -130 1369 -138 q 1413 -121 1396 -121 q 1446 -132 1435 -121 q 1457 -161 1457 -144 q 1450 -193 1457 -178 q 1430 -215 1443 -207 q 1398 -224 1415 -224 m 499 -334 l 564 -5 l 2581 -5 l 2515 -334 l 499 -334 m 2314 -92 l 2308 -122 l 2359 -122 l 2333 -252 l 2370 -252 l 2397 -122 l 2448 -122 l 2454 -92 l 2314 -92 m 2106 -92 l 2074 -252 l 2110 -252 l 2130 -152 l 2190 -252 l 2221 -252 l 2253 -92 l 2216 -92 l 2196 -193 l 2136 -92 l 2106 -92 m 1857 -136 q 1844 -186 1844 -160 q 1853 -222 1844 -205 q 1881 -247 1862 -237 q 1922 -255 1896 -255 q 1973 -243 1951 -255 q 2009 -208 1996 -231 q 2022 -159 2022 -184 q 2012 -123 2022 -140 q 1985 -98 2004 -109 q 1943 -90 1968 -90 q 1891 -102 1914 -90 q 1857 -136 1870 -113 m 1685 -92 l 1653 -252 l 1691 -252 l 1702 -194 l 1776 -194 l 1782 -164 l 1708 -164 l 1716 -122 l 1800 -122 l 1806 -92 l 1685 -92 m 1330 -136 q 1318 -186 1318 -159 q 1326 -222 1318 -206 q 1354 -247 1335 -237 q 1396 -255 1369 -255 q 1447 -243 1425 -255 q 1482 -208 1470 -231 q 1495 -159 1495 -186 q 1485 -123 1495 -140 q 1458 -98 1477 -109 q 1417 -90 1441 -90 q 1365 -102 1388 -90 q 1330 -136 1343 -114 m 1084 -92 l 1053 -252 l 1087 -252 l 1106 -157 l 1139 -235 l 1156 -235 l 1217 -157 l 1198 -252 l 1233 -252 l 1265 -92 l 1233 -92 l 1155 -192 l 1115 -92 l 1084 -92 m 890 -92 l 857 -252 l 981 -252 l 987 -222 l 900 -222 l 907 -186 l 982 -186 l 988 -157 l 913 -157 l 920 -122 l 1004 -122 l 1010 -92 l 890 -92 m 659 -92 l 627 -252 l 705 -252 q 758 -241 734 -252 q 793 -208 781 -229 q 805 -159 805 -187 q 795 -123 805 -139 q 768 -100 787 -109 q 726 -92 751 -92 l 659 -92 m 1925 -224 q 1893 -213 1904 -224 q 1882 -184 1882 -202 q 1889 -152 1882 -165 q 1909 -130 1896 -138 q 1940 -121 1922 -121 q 1972 -132 1961 -121 q 1984 -161 1984 -144 q 1977 -193 1984 -179 q 1957 -215 1969 -207 q 1925 -224 1942 -224 m 739 -214 q 707 -222 726 -222 l 670 -222 l 690 -123 l 722 -123 q 756 -133 745 -123 q 768 -161 768 -142 q 760 -193 768 -178 q 739 -214 753 -206 z "},"#":{"ha":3080,"x_min":21,"x_max":3061,"o":"m 1890 347 q 2041 462 1935 412 q 1979 315 2005 363 q 1923 258 1953 268 q 1876 257 1890 248 q 1866 292 1862 267 q 1890 347 1870 317 m 830 724 q 883 711 866 779 q 892 584 897 657 q 890 562 892 570 l 890 562 q 829 634 850 583 q 830 724 808 685 m 3057 742 q 3036 641 3061 687 q 3048 602 3048 624 q 3011 488 3048 529 q 2904 412 2972 445 q 2773 378 2837 378 q 2664 414 2709 378 q 2627 453 2645 429 q 2456 372 2555 372 q 2382 385 2419 372 q 2381 379 2382 383 q 2379 374 2380 376 q 2330 174 2328 201 q 2327 131 2336 152 q 2300 97 2319 109 q 2262 87 2283 87 q 2215 104 2235 87 q 2153 181 2179 138 q 2081 106 2125 138 q 1944 54 2009 54 q 1895 66 1919 54 q 1859 91 1872 78 q 1824 127 1845 103 q 1771 203 1792 163 q 1758 280 1754 237 q 1755 284 1757 281 q 1751 288 1752 286 q 1695 274 1724 274 q 1563 360 1616 274 q 1550 388 1554 373 q 1545 393 1548 389 q 1540 398 1541 397 q 1532 347 1532 362 q 1496 288 1531 308 q 1461 279 1480 279 q 1428 288 1443 279 q 1403 304 1419 292 q 1387 298 1396 300 q 1362 296 1377 296 q 1244 358 1285 296 q 1149 302 1196 304 q 1133 301 1143 301 q 1019 353 1057 301 q 845 252 946 252 q 715 306 772 252 q 722 248 717 275 q 716 208 725 227 q 690 177 707 189 q 652 166 673 166 q 612 178 630 166 q 503 310 547 230 q 460 369 476 341 q 473 237 450 278 q 471 168 492 202 q 411 133 450 133 l 410 133 q 384 135 399 133 q 336 153 368 138 q 281 196 304 169 q 183 383 194 297 q 144 370 165 370 q 119 374 129 370 q 71 406 92 385 q 40 448 50 426 q 25 490 30 471 q 22 523 21 509 q 24 534 23 527 q 32 557 26 541 q 46 591 37 574 q 73 630 55 608 q 112 670 90 651 q 169 706 134 688 q 246 736 204 724 q 293 890 273 831 q 328 975 313 949 q 352 1008 344 1001 q 376 1021 361 1016 q 404 1026 388 1026 q 546 939 461 1026 q 555 928 551 935 q 664 1135 597 1027 q 791 1203 707 1203 q 903 1174 845 1203 q 956 1112 920 1165 q 993 1040 992 1059 q 960 977 995 1000 q 920 937 941 964 q 1003 866 968 911 q 1017 830 1015 850 q 1022 826 1019 829 q 1067 884 1042 861 q 1192 932 1119 932 q 1262 917 1230 932 q 1314 878 1295 903 q 1348 880 1338 880 q 1477 1160 1393 1023 q 1603 1228 1518 1228 q 1716 1200 1659 1228 q 1754 1141 1752 1181 q 1754 1138 1754 1140 q 1754 1136 1754 1137 q 2025 1141 1824 1141 q 2144 1141 2107 1141 q 2175 1142 2160 1141 q 2203 1145 2190 1143 q 2228 1148 2216 1146 q 2251 1152 2241 1150 q 2269 1156 2260 1154 q 2284 1160 2278 1158 q 2296 1163 2291 1162 q 2303 1166 2300 1165 l 2305 1166 q 2331 1172 2318 1172 q 2381 1150 2359 1172 q 2411 1108 2390 1141 q 2433 1075 2431 1076 q 2447 998 2462 1034 q 2429 966 2443 987 q 2492 912 2481 958 q 2493 897 2493 907 q 2522 899 2506 899 q 2620 857 2580 899 q 2678 913 2654 895 q 2822 963 2746 963 q 2926 936 2883 963 q 3011 852 2969 909 q 3046 798 3035 823 q 3057 742 3056 773 m 601 311 q 600 492 589 395 q 642 689 611 588 q 710 876 672 789 q 792 1025 749 962 q 871 1112 835 1089 q 859 1118 867 1114 q 831 1127 852 1121 q 793 1133 811 1133 q 755 1126 775 1134 q 724 1099 735 1118 q 619 899 661 998 q 559 730 576 800 q 535 596 541 661 q 531 502 529 532 q 536 449 532 471 q 494 561 509 497 q 479 680 480 624 q 482 784 479 735 q 491 861 486 833 l 496 890 q 476 910 488 899 q 437 941 463 922 q 399 955 410 959 q 360 868 389 951 q 302 679 331 785 q 205 647 248 667 q 143 604 163 626 q 110 562 122 583 q 95 529 97 542 l 92 516 q 281 595 123 562 q 256 479 261 511 q 254 382 247 420 q 278 323 261 344 q 314 292 296 302 q 346 281 332 282 l 359 279 q 336 391 336 321 q 350 530 335 460 q 384 664 366 600 q 418 768 403 728 l 434 808 q 462 555 438 669 q 490 464 472 507 q 527 395 508 422 q 562 348 545 368 q 590 320 579 328 l 601 311 m 1238 504 q 1267 456 1246 471 q 1305 442 1288 441 l 1322 443 q 1318 447 1320 444 q 1312 463 1316 450 q 1304 490 1307 475 q 1302 534 1302 506 q 1308 595 1302 562 q 1328 695 1315 642 q 1350 780 1341 749 l 1359 810 q 1337 810 1350 811 q 1296 802 1323 810 q 1261 777 1270 793 q 1201 654 1227 716 q 1146 550 1174 592 q 1111 507 1126 519 q 1086 505 1097 495 q 1088 583 1071 517 q 1138 712 1106 648 q 1197 804 1175 785 q 1261 810 1219 823 q 1240 851 1271 834 q 1158 857 1204 871 q 1115 833 1133 850 q 1060 747 1086 806 q 1019 623 1033 687 q 954 558 992 574 q 969 667 970 627 q 936 787 965 755 q 859 813 907 819 q 947 824 898 839 q 945 827 947 825 q 938 834 943 829 q 927 846 933 840 q 913 858 922 851 q 896 870 905 865 q 876 880 887 876 q 854 887 865 885 q 830 889 843 890 q 806 884 818 888 q 731 797 769 871 q 674 634 692 723 q 673 496 656 546 q 713 432 686 458 q 773 399 740 406 q 843 409 806 391 q 911 471 881 427 q 943 526 932 500 q 1010 566 978 534 q 1011 505 1007 534 q 1038 457 1017 469 q 1093 447 1059 445 q 1165 514 1122 449 q 1235 644 1207 580 l 1263 709 q 1260 701 1262 706 q 1255 681 1259 696 q 1247 651 1251 666 q 1240 615 1244 636 q 1235 576 1236 595 q 1234 538 1233 558 q 1238 504 1234 519 m 1672 428 q 1666 434 1670 430 q 1655 452 1663 437 q 1643 485 1647 467 q 1639 534 1639 503 q 1649 600 1640 564 q 1678 701 1662 652 q 1705 774 1695 751 l 1714 798 l 1649 830 q 1626 828 1636 836 q 1575 788 1603 812 q 1504 713 1548 764 q 1430 606 1460 662 q 1546 937 1468 775 q 1684 1137 1623 1098 q 1672 1143 1680 1139 q 1645 1152 1665 1146 q 1606 1159 1624 1158 q 1568 1152 1588 1160 q 1537 1124 1548 1143 q 1440 932 1475 1023 q 1379 730 1405 841 q 1355 596 1365 669 q 1348 502 1345 524 q 1366 462 1350 481 q 1396 434 1381 443 l 1410 425 q 1413 459 1411 437 q 1434 537 1415 481 q 1486 635 1453 593 q 1554 716 1522 683 q 1599 758 1586 749 l 1612 768 q 1603 744 1609 759 q 1584 688 1596 729 q 1563 610 1571 646 q 1556 534 1556 574 q 1571 472 1556 494 q 1600 437 1585 450 q 1628 421 1616 424 q 1651 420 1640 419 q 1666 425 1661 421 l 1672 428 m 1811 362 q 1795 432 1796 387 q 1806 534 1794 477 q 1837 649 1819 590 q 1880 773 1855 709 q 1927 888 1905 838 q 1971 988 1948 939 q 2190 994 2163 991 q 2242 1008 2218 996 q 2282 1035 2266 1020 q 2309 1066 2298 1050 q 2326 1091 2321 1081 l 2331 1101 q 2145 1072 2256 1073 q 2031 1071 2111 1072 q 1905 1070 1952 1071 q 1802 1068 1858 1070 q 1718 1062 1747 1066 q 1665 1044 1689 1058 q 1625 1013 1640 1030 q 1599 980 1610 996 q 1584 952 1588 963 l 1579 941 q 1638 964 1590 954 q 1735 979 1687 975 q 1864 983 1761 981 q 1802 818 1862 975 q 1720 568 1742 661 q 1716 489 1710 523 q 1737 430 1721 454 q 1769 391 1752 406 q 1799 369 1786 376 l 1811 362 m 2555 621 q 2590 697 2581 664 q 2597 747 2599 730 q 2585 785 2594 764 q 2483 821 2557 849 q 2410 775 2447 808 q 2355 716 2373 742 l 2336 690 q 2423 896 2419 894 l 2406 897 q 2315 866 2340 897 q 2309 859 2311 863 q 2220 610 2268 744 q 2212 587 2215 594 q 2139 545 2155 552 q 2185 679 2155 599 q 2237 812 2215 759 l 2258 865 q 2235 863 2249 864 q 2192 853 2221 861 q 2153 832 2163 845 q 2102 760 2146 825 q 2017 648 2057 694 q 1963 613 1978 602 q 2005 731 1947 624 q 2081 861 2064 838 q 2070 860 2077 861 q 2044 857 2063 860 q 2009 848 2025 854 q 1977 831 1994 843 q 1952 804 1960 820 q 1928 758 1938 777 q 1907 713 1919 739 q 1888 669 1895 687 q 1877 631 1882 650 q 1874 598 1872 612 q 1882 576 1875 585 q 1920 561 1893 562 q 1980 577 1946 559 q 2041 628 2014 594 l 2142 762 q 2057 507 2094 614 q 1999 473 2036 494 q 1947 441 1963 452 q 1909 411 1932 431 q 1864 362 1885 390 q 1835 308 1844 336 q 1828 259 1826 281 q 1842 222 1830 237 q 1875 202 1855 207 q 1925 205 1895 197 q 1989 239 1955 214 q 2061 326 2035 271 q 2123 490 2087 380 q 2124 496 2123 494 q 2126 502 2125 498 q 2128 508 2127 505 q 2198 547 2163 530 q 2144 371 2159 437 q 2145 333 2140 353 q 2161 295 2150 312 q 2183 263 2171 277 q 2203 240 2194 248 l 2211 232 q 2217 311 2204 254 q 2260 469 2230 367 q 2341 660 2292 576 q 2435 761 2376 718 q 2511 789 2494 803 q 2513 745 2519 780 q 2492 680 2507 711 q 2448 615 2474 642 q 2399 576 2422 588 q 2355 556 2376 564 q 2321 549 2334 549 l 2308 548 q 2317 543 2311 546 q 2339 532 2322 539 q 2372 520 2355 524 q 2414 518 2389 517 q 2460 529 2438 519 q 2508 562 2483 538 q 2555 621 2534 585 m 2797 820 q 2867 855 2833 860 q 2890 829 2889 852 q 2851 764 2890 800 q 2806 740 2831 746 q 2764 738 2780 734 l 2747 741 q 2750 735 2748 739 q 2758 723 2751 732 q 2773 708 2764 714 q 2796 696 2781 701 q 2827 693 2810 692 q 2911 732 2884 697 q 2936 813 2939 767 q 2902 867 2934 842 q 2823 893 2871 891 q 2720 857 2776 895 q 2657 791 2686 831 q 2614 708 2629 752 q 2608 620 2599 664 q 2656 545 2618 575 q 2742 525 2692 517 q 2837 558 2792 534 q 2907 611 2882 583 q 2920 636 2915 620 q 2926 665 2925 653 l 2926 677 q 2875 623 2909 650 q 2807 582 2842 597 q 2741 564 2772 567 q 2700 580 2711 561 q 2711 690 2677 616 q 2797 820 2745 764 m 779 689 q 811 591 783 637 q 882 530 839 545 q 836 438 861 459 q 779 426 811 417 q 753 470 760 431 q 752 556 747 509 q 767 646 756 604 q 779 689 773 671 m 1399 -222 q 1367 -212 1377 -222 q 1355 -182 1355 -200 q 1362 -151 1355 -166 q 1383 -128 1370 -136 q 1413 -120 1396 -120 q 1446 -131 1435 -120 q 1457 -160 1457 -142 q 1450 -191 1457 -176 q 1430 -214 1442 -206 q 1399 -222 1416 -222 m 499 -332 l 565 -3 l 2581 -3 l 2515 -332 l 499 -332 m 2314 -91 l 2308 -121 l 2359 -121 l 2334 -252 l 2370 -252 l 2397 -121 l 2448 -121 l 2454 -91 l 2314 -91 m 2106 -91 l 2074 -252 l 2110 -252 l 2131 -151 l 2190 -252 l 2221 -252 l 2253 -91 l 2216 -91 l 2197 -191 l 2136 -91 l 2106 -91 m 1857 -136 q 1844 -184 1844 -159 q 1853 -221 1844 -204 q 1881 -245 1862 -235 q 1922 -254 1898 -254 q 1974 -241 1950 -254 q 2009 -207 1996 -230 q 2022 -158 2022 -184 q 2012 -121 2022 -138 q 1985 -97 2004 -107 q 1944 -88 1968 -88 q 1891 -101 1915 -88 q 1857 -136 1870 -113 m 1685 -91 l 1653 -252 l 1691 -252 l 1702 -193 l 1776 -193 l 1782 -163 l 1708 -163 l 1716 -121 l 1800 -121 l 1807 -91 l 1685 -91 m 1330 -136 q 1318 -184 1318 -158 q 1327 -221 1318 -204 q 1354 -245 1335 -236 q 1396 -254 1371 -254 q 1447 -241 1423 -254 q 1482 -207 1470 -229 q 1495 -158 1495 -186 q 1485 -121 1495 -138 q 1458 -97 1477 -107 q 1417 -88 1441 -88 q 1365 -101 1389 -88 q 1330 -136 1343 -113 m 1084 -91 l 1053 -252 l 1087 -252 l 1107 -155 l 1139 -235 l 1156 -235 l 1217 -156 l 1198 -252 l 1233 -252 l 1265 -91 l 1233 -91 l 1155 -191 l 1115 -91 l 1084 -91 m 890 -91 l 857 -252 l 982 -252 l 988 -222 l 901 -222 l 907 -184 l 983 -184 l 988 -155 l 913 -155 l 920 -121 l 1004 -121 l 1010 -91 l 890 -91 m 659 -91 l 627 -252 l 705 -252 q 758 -240 734 -252 q 793 -207 781 -229 q 805 -158 805 -186 q 795 -123 805 -138 q 768 -99 786 -107 q 726 -91 751 -91 l 659 -91 m 1925 -222 q 1893 -212 1904 -222 q 1882 -182 1882 -200 q 1889 -151 1882 -165 q 1909 -128 1896 -136 q 1940 -120 1922 -120 q 1972 -131 1961 -120 q 1984 -160 1984 -142 q 1977 -191 1984 -178 q 1957 -214 1969 -206 q 1925 -222 1943 -222 m 760 -191 q 739 -213 753 -205 q 707 -221 725 -221 l 670 -221 l 690 -121 l 722 -121 q 756 -132 745 -121 q 768 -160 768 -141 q 760 -191 768 -176 z "},"$":{"ha":3080,"x_min":20,"x_max":3061,"o":"m 1890 347 q 2041 462 1933 412 q 1979 315 2005 363 q 1923 258 1953 268 q 1876 257 1890 248 q 1866 292 1862 267 q 1890 347 1870 317 m 830 724 q 883 711 866 779 q 892 584 897 657 q 890 562 892 570 l 890 562 q 829 634 850 583 q 830 724 808 685 m 3057 742 q 3036 642 3061 687 q 3048 603 3048 625 q 3011 488 3048 529 q 2904 412 2972 445 q 2773 378 2837 378 q 2664 414 2709 378 q 2627 454 2646 428 q 2456 372 2554 372 q 2382 385 2419 372 q 2381 380 2382 383 q 2379 374 2380 376 q 2330 174 2328 201 q 2327 131 2336 152 q 2300 97 2319 109 q 2262 87 2283 87 q 2215 105 2235 87 q 2153 181 2178 139 q 2081 106 2125 138 q 1944 55 2009 55 q 1895 67 1919 55 q 1859 91 1872 79 q 1824 127 1845 104 q 1771 203 1791 164 q 1758 280 1754 237 q 1755 284 1757 281 q 1751 288 1752 286 q 1695 275 1725 275 q 1563 360 1616 275 q 1550 389 1555 372 q 1547 391 1548 390 q 1543 395 1545 393 q 1540 398 1541 397 q 1532 347 1532 362 q 1496 288 1531 309 q 1461 279 1479 279 q 1428 288 1444 279 q 1403 304 1419 292 q 1387 298 1392 300 q 1362 296 1377 296 q 1244 358 1285 296 q 1149 302 1196 304 q 1133 301 1143 301 q 1019 353 1057 301 q 845 252 946 252 q 715 307 772 252 q 722 248 717 275 q 716 208 725 227 q 690 177 707 189 q 652 166 673 166 q 612 178 630 166 q 503 310 547 230 q 460 370 478 340 q 473 237 450 278 q 471 168 492 202 q 411 134 450 134 l 410 134 q 384 136 399 134 q 336 154 368 138 q 281 197 304 170 q 183 383 193 298 q 144 370 165 370 q 119 374 129 370 q 59 419 83 389 q 28 477 35 450 q 22 524 20 505 q 24 534 23 528 q 32 558 26 541 q 46 592 37 575 q 73 630 55 609 q 112 670 90 652 q 169 707 134 689 q 246 737 204 725 q 293 891 273 832 q 328 975 313 949 q 352 1008 344 1001 q 376 1021 361 1016 q 404 1026 388 1026 q 546 939 461 1026 q 555 928 551 935 q 664 1136 598 1029 q 791 1203 706 1203 q 903 1175 846 1203 q 956 1112 920 1166 q 993 1040 992 1059 q 960 978 995 1000 q 920 937 941 966 q 1003 866 968 911 q 1017 830 1015 850 q 1022 826 1019 829 q 1067 884 1043 862 q 1192 932 1118 932 q 1262 917 1230 932 q 1314 878 1295 903 q 1348 880 1338 880 q 1477 1161 1394 1025 q 1603 1228 1518 1228 q 1656 1221 1628 1228 q 1697 1209 1684 1215 q 1716 1200 1711 1203 q 1754 1141 1752 1181 l 1754 1136 q 2025 1141 1824 1141 q 2144 1141 2107 1141 q 2175 1142 2160 1141 q 2203 1145 2190 1143 q 2228 1148 2216 1146 q 2251 1152 2241 1150 q 2269 1156 2260 1154 q 2284 1160 2278 1158 q 2296 1163 2291 1162 q 2303 1166 2300 1165 l 2305 1166 q 2331 1172 2318 1172 q 2381 1150 2359 1172 q 2411 1108 2390 1141 q 2433 1075 2431 1076 q 2447 998 2462 1034 q 2429 966 2443 987 q 2491 912 2480 958 q 2493 897 2493 904 q 2522 899 2506 899 q 2620 857 2580 899 q 2678 913 2652 894 q 2822 963 2746 963 q 2926 936 2883 963 q 3011 852 2969 909 q 3046 798 3035 823 q 3057 742 3056 773 m 600 311 q 599 492 588 395 q 641 689 610 588 q 710 876 671 789 q 792 1025 749 962 q 871 1112 835 1089 q 859 1118 867 1114 q 831 1127 852 1121 q 793 1133 811 1133 q 755 1126 775 1134 q 724 1099 735 1118 q 618 899 661 998 q 558 730 576 800 q 534 596 541 661 q 530 502 528 532 q 536 449 532 471 q 494 561 508 497 q 479 680 479 624 q 481 784 478 735 q 490 861 485 833 l 496 890 q 475 910 488 899 q 436 941 463 922 q 399 955 410 959 q 360 868 389 951 q 302 679 331 785 q 205 647 248 667 q 143 604 163 626 q 110 562 122 583 q 95 529 97 542 l 92 516 q 281 595 123 562 q 256 479 261 511 q 254 382 247 420 q 278 323 261 344 q 314 292 296 302 q 346 281 332 282 l 359 279 q 336 391 336 321 q 350 530 335 460 q 384 664 366 600 q 418 768 403 728 l 434 808 q 462 555 438 669 q 490 464 472 507 q 526 395 508 422 q 562 348 545 368 q 589 320 578 328 l 600 311 m 1238 504 q 1267 456 1246 471 q 1305 442 1288 441 l 1322 443 q 1318 447 1320 444 q 1312 463 1316 450 q 1304 490 1307 475 q 1302 534 1302 506 q 1308 595 1302 562 q 1328 695 1315 642 q 1350 780 1341 749 l 1359 810 q 1337 810 1350 811 q 1296 802 1323 810 q 1261 777 1270 793 q 1201 654 1227 716 q 1146 550 1174 592 q 1111 507 1126 519 q 1086 505 1097 495 q 1088 583 1071 517 q 1138 712 1106 648 q 1196 804 1175 785 q 1261 810 1218 823 q 1239 851 1270 834 q 1158 857 1202 871 q 1115 833 1133 850 q 1060 747 1086 806 q 1019 623 1033 687 q 954 558 992 574 q 969 667 970 627 q 936 787 965 755 q 859 813 907 819 q 947 824 898 839 q 945 827 947 825 q 938 834 943 829 q 927 846 933 840 q 913 858 922 851 q 896 870 905 865 q 876 880 887 876 q 854 887 865 885 q 830 889 843 890 q 806 884 818 888 q 731 797 769 871 q 674 634 692 723 q 673 496 656 546 q 713 432 686 458 q 773 399 740 406 q 843 409 806 391 q 911 471 881 427 q 943 526 932 500 q 1010 566 978 534 q 1011 505 1007 534 q 1038 457 1017 469 q 1093 447 1059 445 q 1165 514 1122 449 q 1235 644 1207 580 l 1263 709 q 1260 701 1262 706 q 1255 681 1259 696 q 1247 651 1251 666 q 1240 615 1244 636 q 1235 576 1236 595 q 1234 538 1233 558 q 1238 504 1234 519 m 1672 428 q 1666 434 1670 430 q 1655 452 1663 437 q 1643 485 1647 467 q 1639 534 1639 503 q 1649 600 1640 564 q 1678 701 1662 652 q 1705 774 1695 751 l 1714 798 l 1649 830 q 1626 828 1636 836 q 1575 788 1603 812 q 1504 713 1548 764 q 1430 606 1460 662 q 1546 937 1468 775 q 1684 1137 1623 1098 q 1672 1143 1680 1139 q 1645 1152 1665 1146 q 1606 1159 1624 1158 q 1568 1152 1588 1160 q 1537 1124 1548 1143 q 1440 932 1475 1023 q 1379 730 1405 841 q 1355 596 1365 669 q 1348 502 1345 524 q 1366 462 1350 481 q 1396 434 1381 443 l 1410 425 q 1413 459 1411 437 q 1434 537 1415 481 q 1486 635 1453 593 q 1554 716 1522 683 q 1599 758 1586 749 l 1612 768 q 1603 744 1609 759 q 1584 688 1596 729 q 1563 610 1571 646 q 1556 534 1556 574 q 1571 472 1556 494 q 1600 437 1585 450 q 1628 421 1616 424 q 1651 420 1640 419 q 1666 425 1661 421 l 1672 428 m 1811 362 q 1795 432 1796 387 q 1806 534 1794 477 q 1837 649 1819 590 q 1880 773 1855 709 q 1927 888 1905 838 q 1971 988 1948 939 q 2190 994 2163 991 q 2242 1008 2218 996 q 2282 1035 2266 1020 q 2309 1066 2298 1050 q 2326 1091 2321 1081 l 2331 1101 q 2145 1072 2256 1073 q 2031 1071 2111 1072 q 1905 1070 1952 1071 q 1802 1068 1858 1070 q 1718 1062 1747 1066 q 1665 1044 1689 1058 q 1625 1013 1640 1030 q 1599 980 1610 996 q 1584 952 1588 963 l 1579 941 q 1638 964 1590 954 q 1735 979 1687 975 q 1864 983 1761 981 q 1802 819 1862 977 q 1720 568 1742 661 q 1716 489 1710 523 q 1737 430 1721 454 q 1769 391 1752 406 q 1799 369 1786 376 l 1811 362 m 2555 621 q 2590 697 2581 664 q 2597 747 2599 730 q 2585 785 2594 764 q 2483 821 2557 849 q 2410 775 2447 808 q 2355 716 2373 742 l 2336 690 q 2423 896 2419 894 l 2406 897 q 2315 866 2340 897 q 2309 859 2311 863 q 2220 610 2268 744 q 2212 587 2215 594 q 2139 545 2155 552 q 2185 679 2155 599 q 2237 812 2215 759 l 2258 865 q 2235 863 2249 864 q 2192 853 2221 861 q 2153 832 2163 845 q 2102 760 2146 825 q 2017 648 2057 694 q 1963 613 1978 602 q 2005 731 1947 624 q 2081 861 2064 838 q 2070 860 2077 861 q 2044 857 2063 860 q 2009 848 2025 854 q 1976 831 1993 843 q 1951 804 1959 820 q 1923 748 1934 771 q 1899 695 1911 725 q 1880 645 1886 665 q 1874 605 1874 624 q 1882 576 1874 586 q 1920 561 1893 562 q 1980 577 1946 559 q 2041 628 2014 594 l 2142 762 q 2057 507 2094 614 q 1999 473 2035 494 q 1947 441 1963 452 q 1908 411 1931 431 q 1864 362 1885 390 q 1830 298 1839 330 q 1831 242 1822 265 q 1860 207 1840 220 q 1914 202 1879 195 q 1989 239 1949 210 q 2061 326 2035 271 q 2123 490 2087 380 q 2124 496 2123 494 q 2126 502 2125 498 q 2128 508 2127 505 q 2198 547 2163 530 q 2144 371 2159 437 q 2145 333 2140 353 q 2161 295 2150 312 q 2183 263 2171 277 q 2203 240 2194 248 l 2211 232 q 2260 469 2200 269 q 2341 660 2290 574 q 2435 761 2376 718 q 2511 789 2494 803 q 2513 745 2519 780 q 2492 680 2507 711 q 2448 615 2474 642 q 2399 576 2422 588 q 2355 556 2376 564 q 2321 549 2334 549 l 2308 548 q 2317 543 2311 546 q 2339 532 2322 539 q 2372 520 2355 524 q 2414 518 2389 517 q 2460 529 2438 519 q 2508 562 2483 538 q 2555 621 2534 585 m 2797 820 q 2867 855 2833 860 q 2890 829 2889 852 q 2851 764 2890 800 q 2806 740 2831 746 q 2764 738 2780 734 l 2747 741 q 2750 735 2748 739 q 2758 723 2751 732 q 2773 708 2764 714 q 2796 696 2781 701 q 2827 693 2810 692 q 2911 732 2884 697 q 2936 813 2939 767 q 2902 867 2934 842 q 2823 893 2871 891 q 2720 857 2776 895 q 2657 791 2686 831 q 2614 708 2629 752 q 2608 620 2599 664 q 2656 545 2618 575 q 2742 525 2692 517 q 2837 558 2792 534 q 2907 611 2882 583 q 2920 636 2915 620 q 2925 665 2924 653 l 2926 677 q 2875 623 2909 650 q 2806 582 2841 597 q 2741 564 2772 567 q 2700 580 2711 561 q 2711 690 2677 616 q 2797 820 2745 764 m 779 689 q 811 591 783 637 q 882 530 839 545 q 836 438 861 459 q 778 426 810 417 q 753 470 759 431 q 751 556 747 509 q 767 646 756 604 q 779 689 773 671 m 1398 -222 q 1367 -212 1377 -222 q 1355 -182 1355 -200 q 1362 -151 1355 -165 q 1382 -128 1369 -136 q 1413 -120 1396 -120 q 1446 -131 1435 -120 q 1457 -160 1457 -142 q 1450 -191 1457 -176 q 1430 -214 1442 -206 q 1398 -222 1416 -222 m 499 -332 l 564 -3 l 2581 -3 l 2515 -332 l 499 -332 m 2314 -91 l 2308 -121 l 2359 -121 l 2333 -252 l 2370 -252 l 2397 -121 l 2448 -121 l 2454 -91 l 2314 -91 m 2106 -91 l 2074 -252 l 2110 -252 l 2131 -151 l 2190 -252 l 2221 -252 l 2253 -91 l 2216 -91 l 2196 -191 l 2136 -91 l 2106 -91 m 1857 -136 q 1844 -184 1844 -159 q 1853 -221 1844 -204 q 1881 -245 1862 -235 q 1922 -254 1898 -254 q 1973 -241 1950 -254 q 2009 -207 1996 -229 q 2022 -158 2022 -184 q 2012 -121 2022 -138 q 1985 -97 2004 -107 q 1943 -88 1968 -88 q 1891 -101 1915 -88 q 1857 -136 1870 -113 m 1685 -91 l 1653 -252 l 1691 -252 l 1702 -193 l 1776 -193 l 1782 -163 l 1708 -163 l 1716 -121 l 1800 -121 l 1806 -91 l 1685 -91 m 1330 -136 q 1318 -184 1318 -158 q 1326 -221 1318 -205 q 1354 -245 1335 -235 q 1396 -254 1371 -254 q 1447 -241 1423 -254 q 1482 -207 1470 -229 q 1495 -158 1495 -186 q 1485 -121 1495 -138 q 1458 -97 1477 -107 q 1417 -88 1441 -88 q 1365 -101 1389 -88 q 1330 -136 1343 -113 m 1084 -91 l 1053 -252 l 1087 -252 l 1107 -155 l 1139 -235 l 1156 -235 l 1217 -156 l 1198 -252 l 1233 -252 l 1265 -91 l 1233 -91 l 1155 -191 l 1115 -91 l 1084 -91 m 889 -91 l 857 -252 l 981 -252 l 987 -222 l 900 -222 l 907 -184 l 982 -184 l 988 -155 l 913 -155 l 920 -121 l 1004 -121 l 1010 -91 l 889 -91 m 659 -91 l 627 -252 l 705 -252 q 758 -240 734 -252 q 793 -207 781 -229 q 805 -158 805 -186 q 795 -123 805 -138 q 768 -99 786 -107 q 726 -91 751 -91 l 659 -91 m 1925 -222 q 1893 -212 1904 -222 q 1882 -182 1882 -201 q 1889 -151 1882 -165 q 1909 -128 1896 -136 q 1940 -120 1922 -120 q 1972 -131 1961 -120 q 1984 -160 1984 -142 q 1977 -191 1984 -178 q 1957 -214 1969 -206 q 1925 -222 1943 -222 m 760 -191 q 739 -213 753 -205 q 707 -221 725 -221 l 670 -221 l 690 -121 l 722 -121 q 756 -132 745 -121 q 768 -160 768 -141 q 760 -191 768 -176 z "},"%":{"ha":3080,"x_min":20,"x_max":3061,"o":"m 1890 347 q 2041 462 1933 412 q 1979 315 2005 363 q 1923 258 1953 268 q 1876 257 1890 248 q 1866 292 1862 267 q 1890 347 1870 317 m 830 724 q 883 711 866 779 q 892 584 897 657 q 890 562 892 570 l 890 562 q 829 634 850 583 q 830 724 808 685 m 3057 742 q 3036 642 3061 687 q 3048 603 3048 625 q 3011 488 3048 529 q 2904 412 2972 445 q 2773 378 2837 378 q 2664 414 2709 378 q 2627 454 2646 428 q 2456 372 2554 372 q 2382 385 2419 372 q 2381 380 2382 383 q 2379 374 2380 376 q 2330 174 2328 201 q 2327 131 2336 152 q 2300 97 2319 109 q 2262 87 2283 87 q 2215 105 2235 87 q 2153 181 2178 139 q 2081 106 2125 138 q 1944 55 2009 55 q 1895 67 1919 55 q 1859 91 1872 79 q 1824 127 1845 104 q 1772 203 1792 162 q 1758 280 1755 239 q 1755 284 1757 281 q 1751 288 1752 286 q 1695 275 1725 275 q 1563 360 1616 275 q 1550 389 1555 372 q 1547 391 1548 390 q 1543 395 1545 393 q 1540 398 1541 397 q 1532 347 1532 362 q 1496 288 1531 309 q 1461 279 1479 279 q 1428 288 1444 279 q 1403 304 1419 292 q 1387 298 1392 300 q 1362 296 1377 296 q 1244 358 1285 296 q 1149 302 1196 304 q 1133 301 1143 301 q 1019 353 1057 301 q 845 252 946 252 q 715 307 772 252 q 722 248 717 275 q 716 208 725 227 q 690 177 707 189 q 652 166 673 166 q 612 178 630 166 q 503 310 547 230 q 460 370 478 340 q 473 237 450 278 q 471 168 492 202 q 411 134 450 134 l 410 134 q 384 136 399 134 q 336 154 368 138 q 281 197 304 170 q 183 383 193 298 q 144 370 165 370 q 119 374 129 370 q 59 419 83 389 q 28 477 35 450 q 22 524 20 505 q 24 534 23 528 q 32 558 26 541 q 46 592 37 575 q 73 630 55 609 q 112 670 90 652 q 169 707 134 689 q 246 737 204 725 q 293 891 273 832 q 328 975 313 949 q 352 1008 344 1001 q 376 1021 361 1016 q 404 1026 388 1026 q 547 939 462 1026 q 555 928 549 937 q 664 1136 598 1029 q 791 1203 706 1203 q 903 1175 846 1203 q 956 1112 920 1166 q 993 1040 992 1059 q 960 978 995 1000 q 920 937 941 966 q 1003 866 968 911 q 1017 830 1015 850 q 1022 826 1019 829 q 1067 884 1043 862 q 1192 932 1118 932 q 1262 917 1230 932 q 1314 878 1295 903 q 1348 880 1338 880 q 1477 1161 1394 1025 q 1603 1228 1518 1228 q 1656 1221 1628 1228 q 1697 1209 1684 1215 q 1716 1200 1711 1203 q 1754 1141 1752 1181 l 1754 1136 q 2025 1141 1824 1141 q 2144 1141 2107 1141 q 2175 1142 2160 1141 q 2203 1145 2190 1143 q 2228 1148 2216 1146 q 2251 1152 2241 1150 q 2269 1156 2260 1154 q 2284 1160 2278 1158 q 2296 1163 2291 1162 q 2303 1166 2300 1165 l 2305 1166 q 2331 1172 2318 1172 q 2381 1150 2359 1172 q 2411 1108 2390 1141 q 2433 1075 2431 1076 q 2447 998 2462 1034 q 2429 966 2443 987 q 2491 912 2480 958 q 2493 897 2493 904 q 2522 899 2506 899 q 2620 857 2580 899 q 2678 913 2652 894 q 2822 963 2746 963 q 2926 936 2883 963 q 3011 852 2969 909 q 3046 798 3035 823 q 3057 742 3056 773 m 600 311 q 599 492 588 395 q 641 689 610 588 q 710 876 671 789 q 792 1025 749 962 q 871 1112 835 1089 q 859 1118 867 1114 q 831 1127 852 1121 q 793 1133 811 1133 q 755 1126 775 1134 q 724 1099 735 1118 q 619 899 661 998 q 559 730 576 800 q 535 596 541 661 q 531 502 529 532 q 536 449 532 471 q 494 561 509 497 q 479 680 480 624 q 482 784 479 735 q 491 861 486 833 l 496 890 q 476 910 488 899 q 437 941 463 922 q 399 955 410 959 q 360 868 389 951 q 302 679 331 785 q 205 647 248 667 q 143 604 163 626 q 110 562 122 583 q 95 529 97 542 l 92 516 q 281 595 123 562 q 256 479 261 511 q 254 382 247 420 q 278 323 261 344 q 314 292 296 302 q 346 281 332 282 l 359 279 q 336 391 336 321 q 350 530 335 460 q 384 664 366 600 q 418 768 403 728 l 434 808 q 462 555 438 669 q 490 464 472 507 q 526 395 508 422 q 562 348 545 368 q 589 320 578 328 l 600 311 m 1238 504 q 1267 456 1246 471 q 1305 442 1288 441 l 1322 443 q 1318 447 1320 444 q 1312 463 1316 450 q 1304 490 1307 475 q 1302 534 1302 506 q 1308 595 1302 562 q 1328 695 1315 642 q 1350 780 1341 749 l 1359 810 q 1337 810 1350 811 q 1296 802 1323 810 q 1261 777 1270 793 q 1201 654 1227 716 q 1146 550 1174 592 q 1111 507 1126 519 q 1086 505 1097 495 q 1088 583 1071 517 q 1138 712 1106 648 q 1196 804 1175 785 q 1261 810 1218 823 q 1239 851 1270 834 q 1158 857 1202 871 q 1115 833 1133 850 q 1060 747 1086 806 q 1019 623 1033 687 q 954 558 992 574 q 969 667 970 627 q 936 787 965 755 q 859 813 907 819 q 947 824 898 839 q 945 827 947 825 q 938 834 943 829 q 927 846 933 840 q 913 858 922 851 q 896 870 905 865 q 876 880 887 876 q 854 887 865 885 q 830 889 843 890 q 806 884 818 888 q 731 797 769 871 q 674 634 692 723 q 673 496 656 546 q 713 432 686 458 q 773 399 740 406 q 843 409 806 391 q 911 471 881 427 q 943 526 932 500 q 1010 566 978 534 q 1011 505 1007 534 q 1038 457 1017 469 q 1093 447 1059 445 q 1165 514 1122 449 q 1235 644 1207 580 l 1263 709 q 1260 701 1262 706 q 1255 681 1259 696 q 1247 651 1251 666 q 1240 615 1244 636 q 1235 576 1236 595 q 1234 538 1233 558 q 1238 504 1234 519 m 1672 428 q 1666 434 1670 430 q 1655 452 1663 437 q 1643 485 1647 467 q 1639 534 1639 503 q 1649 600 1640 564 q 1678 701 1662 652 q 1705 774 1695 751 l 1714 798 l 1649 830 q 1626 828 1636 836 q 1575 788 1603 812 q 1504 713 1548 764 q 1430 606 1460 662 q 1546 937 1468 775 q 1684 1137 1623 1098 q 1672 1143 1680 1139 q 1645 1152 1665 1146 q 1606 1159 1624 1158 q 1568 1152 1588 1160 q 1537 1124 1548 1143 q 1440 932 1475 1023 q 1379 730 1405 841 q 1355 596 1365 669 q 1348 502 1345 524 q 1366 462 1350 481 q 1396 434 1381 443 l 1410 425 q 1413 459 1411 437 q 1434 537 1415 481 q 1486 635 1453 593 q 1554 716 1522 683 q 1599 758 1586 749 l 1612 768 q 1603 744 1609 759 q 1584 688 1596 729 q 1563 610 1571 646 q 1556 534 1556 574 q 1571 472 1556 494 q 1600 437 1585 450 q 1628 421 1616 424 q 1651 420 1640 419 q 1666 425 1661 421 l 1672 428 m 1811 362 q 1795 432 1796 387 q 1806 534 1794 477 q 1837 649 1819 590 q 1880 773 1855 709 q 1927 888 1905 838 q 1971 988 1948 939 q 2190 994 2163 991 q 2242 1008 2218 996 q 2282 1035 2266 1020 q 2309 1066 2298 1050 q 2326 1091 2321 1081 l 2331 1101 q 2145 1072 2256 1073 q 2031 1071 2111 1072 q 1905 1070 1952 1071 q 1802 1068 1858 1070 q 1718 1062 1747 1066 q 1665 1044 1689 1058 q 1625 1013 1640 1030 q 1599 980 1610 996 q 1584 952 1588 963 l 1579 941 q 1638 964 1590 954 q 1735 979 1687 975 q 1864 983 1761 981 q 1802 819 1862 977 q 1720 568 1742 661 q 1716 489 1710 523 q 1737 430 1721 454 q 1769 391 1752 406 q 1799 369 1786 376 l 1811 362 m 2555 621 q 2590 697 2581 664 q 2597 747 2599 730 q 2585 785 2594 764 q 2483 821 2557 849 q 2410 775 2447 808 q 2355 716 2373 742 l 2336 690 q 2423 896 2419 894 l 2406 897 q 2315 866 2340 897 q 2309 859 2311 863 q 2220 610 2268 744 q 2212 587 2215 594 q 2139 545 2155 552 q 2185 679 2155 599 q 2237 812 2215 759 l 2258 865 q 2235 863 2249 864 q 2192 853 2221 861 q 2153 832 2163 845 q 2102 760 2146 825 q 2017 648 2057 694 q 1963 613 1978 602 q 2005 731 1947 624 q 2081 861 2064 838 q 2070 860 2077 861 q 2044 857 2063 860 q 2009 848 2025 854 q 1976 831 1993 843 q 1951 804 1959 820 q 1923 748 1934 771 q 1899 695 1911 725 q 1880 645 1886 665 q 1874 605 1874 624 q 1882 576 1874 586 q 1920 561 1893 562 q 1980 577 1946 559 q 2041 628 2014 594 l 2142 762 q 2057 507 2094 614 q 1999 473 2035 494 q 1947 441 1963 452 q 1908 411 1931 431 q 1864 362 1885 390 q 1830 298 1839 330 q 1831 242 1822 265 q 1860 207 1840 220 q 1914 202 1879 195 q 1989 239 1949 210 q 2061 326 2035 271 q 2123 490 2087 380 q 2124 496 2123 494 q 2126 502 2125 498 q 2128 508 2127 505 q 2198 547 2163 530 q 2144 371 2159 437 q 2145 333 2140 353 q 2161 295 2150 312 q 2183 263 2171 277 q 2203 240 2194 248 l 2211 232 q 2217 311 2204 254 q 2260 469 2230 367 q 2341 660 2292 576 q 2435 761 2376 718 q 2511 789 2494 803 q 2513 745 2519 780 q 2492 680 2507 711 q 2448 615 2474 642 q 2399 576 2422 588 q 2355 556 2376 564 q 2321 549 2334 549 l 2308 548 q 2317 543 2311 546 q 2339 532 2322 539 q 2372 520 2355 524 q 2414 518 2389 517 q 2460 529 2438 519 q 2508 562 2483 538 q 2555 621 2534 585 m 2797 820 q 2867 855 2833 860 q 2890 829 2889 852 q 2851 764 2890 800 q 2806 740 2831 746 q 2764 738 2780 734 l 2747 741 q 2750 735 2748 739 q 2758 723 2751 732 q 2773 708 2764 714 q 2796 696 2781 701 q 2827 693 2810 692 q 2911 732 2884 697 q 2936 813 2939 767 q 2902 867 2934 842 q 2823 893 2871 891 q 2720 857 2776 895 q 2657 791 2686 831 q 2614 708 2629 752 q 2608 620 2599 664 q 2656 545 2618 575 q 2742 525 2692 517 q 2837 558 2792 534 q 2907 611 2882 583 q 2920 636 2915 620 q 2925 665 2924 653 l 2926 677 q 2875 623 2909 650 q 2806 582 2841 597 q 2741 564 2772 567 q 2700 580 2711 561 q 2711 690 2677 616 q 2797 820 2745 764 m 779 689 q 811 591 783 637 q 882 530 839 545 q 836 438 861 459 q 778 426 810 417 q 753 470 759 431 q 751 556 747 509 q 767 646 756 604 q 779 689 773 671 m 1398 -222 q 1367 -212 1377 -222 q 1355 -182 1355 -200 q 1362 -151 1355 -165 q 1383 -128 1369 -136 q 1413 -120 1396 -120 q 1446 -131 1435 -120 q 1457 -160 1457 -142 q 1450 -191 1457 -176 q 1430 -214 1442 -206 q 1398 -222 1416 -222 m 499 -332 l 565 -3 l 2581 -3 l 2515 -332 l 499 -332 m 2314 -91 l 2308 -121 l 2359 -121 l 2333 -252 l 2370 -252 l 2397 -121 l 2448 -121 l 2454 -91 l 2314 -91 m 2106 -91 l 2074 -252 l 2110 -252 l 2131 -151 l 2190 -252 l 2221 -252 l 2253 -91 l 2216 -91 l 2196 -191 l 2136 -91 l 2106 -91 m 1857 -136 q 1844 -184 1844 -159 q 1853 -221 1844 -204 q 1881 -245 1862 -235 q 1922 -254 1898 -254 q 1974 -241 1950 -254 q 2009 -207 1996 -230 q 2022 -158 2022 -184 q 2012 -121 2022 -138 q 1985 -97 2004 -107 q 1944 -88 1968 -88 q 1891 -101 1915 -88 q 1857 -136 1870 -113 m 1685 -91 l 1653 -252 l 1691 -252 l 1702 -193 l 1776 -193 l 1782 -163 l 1708 -163 l 1716 -121 l 1800 -121 l 1806 -91 l 1685 -91 m 1330 -136 q 1317 -184 1317 -159 q 1326 -221 1317 -204 q 1354 -245 1335 -235 q 1396 -254 1371 -254 q 1447 -241 1423 -254 q 1482 -207 1470 -229 q 1495 -158 1495 -186 q 1485 -121 1495 -138 q 1458 -97 1477 -107 q 1417 -88 1441 -88 q 1365 -101 1389 -88 q 1330 -136 1343 -113 m 1084 -91 l 1053 -252 l 1087 -252 l 1107 -155 l 1139 -235 l 1156 -235 l 1217 -156 l 1198 -252 l 1233 -252 l 1265 -91 l 1233 -91 l 1155 -191 l 1115 -91 l 1084 -91 m 890 -91 l 857 -252 l 981 -252 l 988 -222 l 900 -222 l 907 -184 l 982 -184 l 988 -155 l 913 -155 l 920 -121 l 1004 -121 l 1010 -91 l 890 -91 m 659 -91 l 627 -252 l 705 -252 q 758 -240 734 -252 q 793 -207 781 -229 q 805 -158 805 -186 q 795 -123 805 -138 q 768 -99 786 -107 q 726 -91 751 -91 l 659 -91 m 1925 -222 q 1893 -212 1904 -222 q 1882 -182 1882 -200 q 1889 -151 1882 -165 q 1909 -128 1896 -136 q 1940 -120 1922 -120 q 1972 -131 1961 -120 q 1984 -160 1984 -142 q 1977 -191 1984 -178 q 1957 -214 1969 -206 q 1925 -222 1943 -222 m 760 -191 q 739 -213 753 -205 q 707 -221 725 -221 l 670 -221 l 690 -121 l 722 -121 q 756 -132 745 -121 q 768 -160 768 -141 q 760 -191 768 -176 z "},"&":{"ha":3080,"x_min":20,"x_max":3061,"o":"m 1890 347 q 2041 462 1933 412 q 1979 315 2005 363 q 1923 258 1953 268 q 1876 257 1890 248 q 1866 292 1862 267 q 1890 347 1870 317 m 830 724 q 883 711 866 779 q 892 584 897 657 q 890 562 892 570 l 890 562 q 829 634 850 583 q 830 724 808 685 m 3057 742 q 3036 642 3061 687 q 3048 603 3048 625 q 3011 488 3048 529 q 2904 412 2972 445 q 2773 378 2837 378 q 2664 414 2709 378 q 2627 454 2646 428 q 2456 372 2554 372 q 2382 385 2419 372 q 2381 380 2382 383 q 2379 374 2380 376 q 2330 174 2328 201 q 2327 131 2336 152 q 2300 97 2319 109 q 2262 87 2283 87 q 2215 105 2235 87 q 2153 181 2178 139 q 2081 106 2125 138 q 1944 55 2009 55 q 1895 67 1919 55 q 1859 91 1872 79 q 1824 127 1845 104 q 1771 203 1791 164 q 1758 280 1754 237 q 1755 284 1757 281 q 1751 288 1752 286 q 1695 275 1725 275 q 1563 360 1616 275 q 1550 389 1555 372 q 1547 391 1548 390 q 1543 395 1545 393 q 1540 398 1541 397 q 1532 347 1532 362 q 1496 288 1531 309 q 1461 279 1479 279 q 1428 288 1444 279 q 1403 304 1419 292 q 1387 298 1392 300 q 1362 296 1377 296 q 1244 358 1285 296 q 1149 302 1196 304 q 1133 301 1143 301 q 1019 353 1057 301 q 845 252 946 252 q 715 307 772 252 q 722 248 717 275 q 716 208 725 227 q 690 177 707 189 q 652 166 673 166 q 612 178 630 166 q 503 310 547 230 q 460 370 478 340 q 473 237 450 278 q 471 168 492 202 q 411 134 450 134 l 410 134 q 384 136 399 134 q 336 154 368 138 q 281 197 304 170 q 183 383 193 298 q 144 370 165 370 q 119 374 129 370 q 59 419 83 389 q 28 477 35 450 q 22 524 20 505 q 24 534 23 528 q 32 558 26 541 q 46 592 37 575 q 73 630 55 609 q 112 670 90 652 q 169 707 134 689 q 246 737 204 725 q 293 891 273 832 q 328 975 313 949 q 352 1008 344 1001 q 376 1021 361 1016 q 404 1026 388 1026 q 546 939 461 1026 q 555 928 551 935 q 664 1136 598 1029 q 791 1203 706 1203 q 903 1175 846 1203 q 956 1112 920 1166 q 993 1040 992 1059 q 960 978 995 1000 q 920 937 941 966 q 1003 866 968 911 q 1017 830 1015 850 q 1022 826 1019 829 q 1067 884 1043 862 q 1192 932 1118 932 q 1262 917 1230 932 q 1314 878 1295 903 q 1348 880 1338 880 q 1477 1161 1394 1025 q 1603 1228 1518 1228 q 1656 1221 1628 1228 q 1697 1209 1684 1215 q 1716 1200 1711 1203 q 1754 1141 1752 1181 l 1754 1136 q 2025 1141 1824 1141 q 2144 1141 2107 1141 q 2175 1142 2160 1141 q 2203 1145 2190 1143 q 2228 1148 2216 1146 q 2251 1152 2241 1150 q 2269 1156 2260 1154 q 2284 1160 2278 1158 q 2296 1163 2291 1162 q 2303 1166 2300 1165 l 2305 1166 q 2331 1172 2318 1172 q 2381 1150 2359 1172 q 2411 1108 2390 1141 q 2433 1075 2431 1076 q 2447 998 2462 1034 q 2429 966 2443 987 q 2491 912 2480 958 q 2493 897 2493 904 q 2522 899 2506 899 q 2620 857 2580 899 q 2678 913 2652 894 q 2822 963 2746 963 q 2926 936 2883 963 q 3011 852 2969 909 q 3046 798 3035 823 q 3057 742 3056 773 m 600 311 q 599 492 588 395 q 641 689 610 588 q 710 876 671 789 q 792 1025 749 962 q 871 1112 835 1089 q 859 1118 867 1114 q 831 1127 852 1121 q 793 1133 811 1133 q 755 1126 775 1134 q 724 1099 735 1118 q 618 899 661 998 q 558 730 576 800 q 534 596 541 661 q 530 502 528 532 q 536 449 532 471 q 494 561 508 497 q 479 680 479 624 q 481 784 478 735 q 490 861 485 833 l 496 890 q 475 910 488 899 q 436 941 463 922 q 399 955 410 959 q 360 868 389 951 q 302 679 331 785 q 205 647 248 667 q 143 604 163 626 q 110 562 122 583 q 95 529 97 542 l 92 516 q 281 595 123 562 q 256 479 261 511 q 254 382 247 420 q 278 323 261 344 q 314 292 296 302 q 346 281 332 282 l 359 279 q 336 391 336 321 q 350 530 335 460 q 384 664 366 600 q 418 768 403 728 l 434 808 q 462 555 438 669 q 490 464 472 507 q 526 395 508 422 q 562 348 545 368 q 589 320 578 328 l 600 311 m 1238 504 q 1267 456 1246 471 q 1305 442 1288 441 l 1322 443 q 1318 447 1320 444 q 1312 463 1316 450 q 1304 490 1307 475 q 1302 534 1302 506 q 1308 595 1302 562 q 1328 695 1315 642 q 1350 780 1341 749 l 1359 810 q 1337 810 1350 811 q 1296 802 1323 810 q 1261 777 1270 793 q 1201 654 1227 716 q 1146 550 1174 592 q 1111 507 1126 519 q 1086 505 1097 495 q 1088 583 1071 517 q 1138 712 1106 648 q 1196 804 1175 785 q 1261 810 1218 823 q 1239 851 1270 834 q 1158 857 1202 871 q 1115 833 1133 850 q 1060 747 1086 806 q 1019 623 1033 687 q 954 558 992 574 q 969 667 970 627 q 936 787 965 755 q 859 813 907 819 q 947 824 898 839 q 945 827 947 825 q 938 834 943 829 q 927 846 933 840 q 913 858 922 851 q 896 870 905 865 q 876 880 887 876 q 854 887 865 885 q 830 889 843 890 q 806 884 818 888 q 731 797 769 871 q 674 634 692 723 q 673 496 656 546 q 713 432 686 458 q 773 399 740 406 q 843 409 806 391 q 911 471 881 427 q 943 526 932 500 q 1010 566 978 534 q 1011 505 1007 534 q 1038 457 1017 469 q 1093 447 1059 445 q 1165 514 1122 449 q 1235 644 1207 580 l 1263 709 q 1260 701 1262 706 q 1255 681 1259 696 q 1247 651 1251 666 q 1240 615 1244 636 q 1235 576 1236 595 q 1234 538 1233 558 q 1238 504 1234 519 m 1672 428 q 1666 434 1670 430 q 1655 452 1663 437 q 1643 485 1647 467 q 1639 534 1639 503 q 1649 600 1640 564 q 1678 701 1662 652 q 1705 774 1695 751 l 1714 798 l 1649 830 q 1626 828 1636 836 q 1575 788 1603 812 q 1504 713 1548 764 q 1430 606 1460 662 q 1546 937 1468 775 q 1684 1137 1623 1098 q 1672 1143 1680 1139 q 1645 1152 1665 1146 q 1606 1159 1624 1158 q 1568 1152 1588 1160 q 1537 1124 1548 1143 q 1440 932 1475 1023 q 1379 730 1405 841 q 1355 596 1365 669 q 1348 502 1345 524 q 1366 462 1350 481 q 1396 434 1381 443 l 1410 425 q 1413 459 1411 437 q 1434 537 1415 481 q 1486 635 1453 593 q 1554 716 1522 683 q 1599 758 1586 749 l 1612 768 q 1603 744 1609 759 q 1584 688 1596 729 q 1563 610 1571 646 q 1556 534 1556 574 q 1571 472 1556 494 q 1600 437 1585 450 q 1628 421 1616 424 q 1651 420 1640 419 q 1666 425 1661 421 l 1672 428 m 1811 362 q 1795 432 1796 387 q 1806 534 1794 477 q 1837 649 1819 590 q 1880 773 1855 709 q 1927 888 1905 838 q 1971 988 1948 939 q 2190 994 2163 991 q 2242 1008 2218 996 q 2282 1035 2266 1020 q 2309 1066 2298 1050 q 2326 1091 2321 1081 l 2331 1101 q 2145 1072 2256 1073 q 2031 1071 2111 1072 q 1905 1070 1952 1071 q 1802 1068 1858 1070 q 1718 1062 1747 1066 q 1665 1044 1689 1058 q 1625 1013 1640 1030 q 1599 980 1610 996 q 1584 952 1588 963 l 1579 941 q 1638 964 1590 954 q 1735 979 1687 975 q 1864 983 1761 981 q 1802 819 1862 977 q 1720 568 1742 661 q 1716 489 1710 523 q 1737 430 1721 454 q 1769 391 1752 406 q 1799 369 1786 376 l 1811 362 m 2555 621 q 2590 697 2581 664 q 2597 747 2599 730 q 2585 785 2594 764 q 2483 821 2557 849 q 2410 775 2447 808 q 2355 716 2373 742 l 2336 690 q 2423 896 2419 894 l 2406 897 q 2315 866 2340 897 q 2309 859 2311 863 q 2220 610 2268 744 q 2212 587 2215 594 q 2139 545 2155 552 q 2185 679 2155 599 q 2237 812 2215 759 l 2258 865 q 2235 863 2249 864 q 2192 853 2221 861 q 2153 832 2163 845 q 2102 760 2146 825 q 2017 648 2057 694 q 1963 613 1978 602 q 2005 731 1947 624 q 2081 861 2064 838 q 2070 860 2077 861 q 2044 857 2063 860 q 2009 848 2025 854 q 1976 831 1993 843 q 1951 804 1959 820 q 1923 748 1934 771 q 1899 695 1911 725 q 1880 645 1886 665 q 1874 605 1874 624 q 1882 576 1874 586 q 1920 561 1893 562 q 1980 577 1946 559 q 2041 628 2014 594 l 2142 762 q 2057 507 2094 614 q 1999 473 2035 494 q 1947 441 1963 452 q 1908 411 1931 431 q 1864 362 1885 390 q 1830 298 1839 330 q 1831 242 1822 265 q 1860 207 1840 220 q 1914 202 1879 195 q 1989 239 1949 210 q 2061 326 2035 271 q 2123 490 2087 380 q 2124 496 2123 494 q 2126 502 2125 498 q 2128 508 2127 505 q 2198 547 2163 530 q 2144 371 2159 437 q 2145 333 2140 353 q 2161 295 2150 312 q 2183 263 2171 277 q 2203 240 2194 248 l 2211 232 q 2260 469 2200 269 q 2341 660 2290 574 q 2435 761 2376 718 q 2511 789 2494 803 q 2513 745 2519 780 q 2492 680 2507 711 q 2448 615 2474 642 q 2399 576 2422 588 q 2355 556 2376 564 q 2321 549 2334 549 l 2308 548 q 2317 543 2311 546 q 2339 532 2322 539 q 2372 520 2355 524 q 2414 518 2389 517 q 2460 529 2438 519 q 2508 562 2483 538 q 2555 621 2534 585 m 2797 820 q 2867 855 2833 860 q 2890 829 2889 852 q 2851 764 2890 800 q 2806 740 2831 746 q 2764 738 2780 734 l 2747 741 q 2750 735 2748 739 q 2758 723 2751 732 q 2773 708 2764 714 q 2796 696 2781 701 q 2827 693 2810 692 q 2911 732 2884 697 q 2936 813 2939 767 q 2902 867 2934 842 q 2823 893 2871 891 q 2720 857 2776 895 q 2657 791 2686 831 q 2614 708 2629 752 q 2608 620 2599 664 q 2656 545 2618 575 q 2742 525 2692 517 q 2837 558 2792 534 q 2907 611 2882 583 q 2920 636 2915 620 q 2925 665 2924 653 l 2926 677 q 2875 623 2909 650 q 2806 582 2841 597 q 2741 564 2772 567 q 2700 580 2711 561 q 2711 690 2677 616 q 2797 820 2745 764 m 779 689 q 811 591 783 637 q 882 530 839 545 q 836 438 861 459 q 778 426 810 417 q 753 470 759 431 q 751 556 747 509 q 767 646 756 604 q 779 689 773 671 m 1398 -222 q 1367 -212 1377 -222 q 1355 -182 1355 -200 q 1362 -151 1355 -165 q 1382 -128 1369 -136 q 1413 -120 1396 -120 q 1446 -131 1435 -120 q 1457 -160 1457 -142 q 1450 -191 1457 -176 q 1430 -214 1442 -206 q 1398 -222 1416 -222 m 499 -332 l 564 -3 l 2581 -3 l 2515 -332 l 499 -332 m 2314 -91 l 2308 -121 l 2359 -121 l 2333 -252 l 2370 -252 l 2397 -121 l 2448 -121 l 2454 -91 l 2314 -91 m 2106 -91 l 2074 -252 l 2110 -252 l 2130 -151 l 2190 -252 l 2221 -252 l 2253 -91 l 2216 -91 l 2196 -191 l 2136 -91 l 2106 -91 m 1857 -136 q 1844 -184 1844 -159 q 1853 -221 1844 -204 q 1881 -245 1862 -235 q 1922 -254 1898 -254 q 1974 -241 1950 -254 q 2009 -207 1996 -230 q 2022 -158 2022 -184 q 2012 -121 2022 -138 q 1985 -97 2004 -107 q 1943 -88 1968 -88 q 1891 -101 1915 -88 q 1857 -136 1870 -113 m 1685 -91 l 1653 -252 l 1691 -252 l 1702 -193 l 1776 -193 l 1782 -163 l 1708 -163 l 1716 -121 l 1800 -121 l 1806 -91 l 1685 -91 m 1330 -136 q 1318 -184 1318 -158 q 1326 -221 1318 -205 q 1354 -245 1335 -235 q 1396 -254 1371 -254 q 1447 -241 1423 -254 q 1482 -207 1470 -229 q 1495 -158 1495 -186 q 1485 -121 1495 -138 q 1458 -97 1477 -107 q 1417 -88 1441 -88 q 1365 -101 1389 -88 q 1330 -136 1343 -113 m 1084 -91 l 1053 -252 l 1087 -252 l 1107 -155 l 1139 -235 l 1156 -235 l 1217 -156 l 1198 -252 l 1233 -252 l 1265 -91 l 1233 -91 l 1155 -191 l 1115 -91 l 1084 -91 m 890 -91 l 857 -252 l 981 -252 l 987 -222 l 900 -222 l 907 -184 l 982 -184 l 988 -155 l 913 -155 l 920 -121 l 1004 -121 l 1010 -91 l 890 -91 m 659 -91 l 627 -252 l 705 -252 q 758 -240 734 -252 q 793 -207 781 -229 q 805 -158 805 -186 q 795 -123 805 -138 q 768 -99 786 -107 q 726 -91 751 -91 l 659 -91 m 1925 -222 q 1893 -212 1904 -222 q 1882 -182 1882 -201 q 1889 -151 1882 -165 q 1909 -128 1896 -136 q 1940 -120 1922 -120 q 1972 -131 1961 -120 q 1984 -160 1984 -142 q 1977 -191 1984 -178 q 1957 -214 1969 -206 q 1925 -222 1943 -222 m 760 -191 q 739 -213 753 -205 q 707 -221 725 -221 l 670 -221 l 690 -121 l 722 -121 q 756 -132 745 -121 q 768 -160 768 -141 q 760 -191 768 -176 z "},"'":{"ha":3080,"x_min":21,"x_max":3061,"o":"m 1890 347 q 2041 460 1933 410 q 1979 314 2005 361 q 1923 256 1953 267 q 1876 256 1890 246 q 1866 291 1862 266 q 1890 347 1870 316 m 830 722 q 883 710 866 777 q 892 583 897 656 q 890 561 892 568 l 890 560 q 829 633 850 582 q 830 722 808 684 m 3057 741 q 3036 640 3061 686 q 3048 602 3048 623 q 3011 487 3048 528 q 2904 410 2972 444 q 2773 377 2837 377 q 2664 413 2709 377 q 2627 452 2646 427 q 2456 371 2555 371 q 2382 383 2417 371 q 2381 378 2382 381 q 2379 373 2380 374 q 2330 172 2328 200 q 2327 130 2336 151 q 2300 96 2319 109 q 2262 85 2281 85 q 2215 104 2235 85 q 2153 180 2178 138 q 2081 105 2125 137 q 1944 54 2009 54 q 1895 65 1919 54 q 1859 90 1872 77 q 1824 126 1845 102 q 1772 201 1792 161 q 1758 279 1754 237 q 1755 283 1757 281 q 1751 286 1752 285 q 1695 273 1725 273 q 1563 359 1616 273 q 1550 387 1555 371 q 1547 390 1548 389 q 1543 393 1545 391 q 1540 397 1541 395 q 1532 345 1532 361 q 1496 287 1531 307 q 1461 278 1480 278 q 1428 287 1443 278 q 1403 303 1419 291 q 1387 298 1399 300 q 1362 295 1373 295 q 1244 357 1285 295 q 1149 300 1196 302 q 1133 300 1143 300 q 1019 352 1057 300 q 845 251 947 251 q 715 305 772 251 q 722 246 717 273 q 716 206 725 225 q 690 176 707 187 q 652 165 673 165 q 612 178 631 165 q 503 309 547 230 q 460 368 478 338 q 473 236 450 277 q 471 166 492 201 q 411 132 450 132 l 410 132 q 384 135 399 132 q 336 153 368 137 q 281 195 304 168 q 183 382 193 297 q 144 369 165 369 q 119 374 131 369 q 71 405 92 385 q 40 448 50 425 q 25 489 30 470 q 22 522 21 509 q 24 533 23 526 q 32 557 26 540 q 46 591 37 574 q 73 629 55 608 q 112 669 90 650 q 169 706 134 688 q 246 736 204 724 q 293 889 273 831 q 328 974 313 948 q 352 1007 344 1000 q 376 1020 361 1015 q 404 1025 388 1025 q 547 938 462 1025 q 555 927 549 935 q 664 1135 598 1027 q 791 1202 706 1202 q 903 1173 846 1202 q 956 1111 920 1164 q 993 1038 992 1057 q 960 977 995 999 q 920 936 941 964 q 1003 865 968 910 q 1017 829 1015 848 q 1022 825 1019 827 q 1067 883 1043 861 q 1192 930 1118 930 q 1262 916 1230 930 q 1314 877 1295 902 q 1348 879 1332 879 q 1477 1160 1394 1023 q 1603 1227 1518 1227 q 1716 1198 1658 1227 q 1754 1139 1752 1180 q 1754 1137 1754 1139 q 1754 1135 1754 1135 q 2025 1140 1834 1140 q 2064 1140 2039 1140 q 2108 1140 2089 1140 q 2144 1140 2128 1140 q 2175 1141 2160 1140 q 2203 1143 2190 1142 q 2228 1147 2216 1145 q 2251 1151 2241 1149 q 2269 1155 2260 1153 q 2284 1159 2278 1158 q 2296 1162 2291 1161 q 2303 1165 2300 1164 l 2305 1166 q 2331 1171 2317 1171 q 2381 1149 2360 1171 q 2411 1108 2390 1140 q 2433 1074 2431 1076 q 2447 998 2462 1033 q 2429 964 2441 982 q 2491 911 2480 956 q 2493 895 2493 903 q 2522 898 2506 898 q 2620 857 2580 898 q 2678 911 2650 891 q 2822 962 2746 962 q 2926 935 2883 962 q 3011 851 2969 908 q 3046 797 3035 822 q 3057 741 3056 772 m 600 311 q 606 539 584 408 q 673 785 629 670 q 771 990 717 899 q 871 1111 826 1082 q 859 1116 867 1113 q 831 1125 852 1120 q 793 1132 811 1131 q 755 1125 775 1133 q 724 1098 735 1117 q 619 898 661 997 q 559 729 576 798 q 535 595 541 660 q 530 500 528 531 q 536 448 532 470 q 494 559 509 496 q 479 678 480 623 q 482 783 479 734 q 491 860 486 831 l 496 889 q 476 909 488 897 q 437 940 463 922 q 399 954 410 958 q 360 867 389 950 q 302 677 332 784 q 205 645 248 666 q 143 603 163 625 q 110 561 122 581 q 95 528 97 541 l 92 515 q 281 593 123 560 q 256 478 261 510 q 254 381 247 419 q 278 321 261 342 q 314 291 296 300 q 346 279 332 281 l 359 277 q 336 389 336 319 q 350 529 335 459 q 384 663 366 599 q 418 767 403 727 l 434 807 q 462 553 438 668 q 490 463 472 505 q 526 394 508 420 q 562 347 545 367 q 589 319 578 328 l 600 311 m 1238 503 q 1267 455 1246 470 q 1305 441 1288 439 l 1322 441 q 1318 446 1320 443 q 1312 461 1316 449 q 1304 489 1307 473 q 1302 533 1302 505 q 1308 594 1302 561 q 1328 694 1315 640 q 1350 779 1341 747 l 1359 809 q 1337 809 1350 810 q 1296 801 1323 809 q 1261 777 1270 793 q 1201 652 1227 715 q 1146 549 1174 590 q 1111 506 1126 518 q 1086 503 1097 494 q 1088 582 1071 516 q 1138 711 1106 648 q 1163 759 1154 743 q 1184 790 1173 776 q 1205 809 1195 804 q 1229 813 1216 813 q 1261 808 1242 814 q 1239 850 1270 833 q 1158 856 1202 869 q 1115 831 1133 848 q 1060 746 1086 805 q 1019 622 1033 686 q 954 557 991 573 q 969 665 970 625 q 936 786 965 754 q 859 812 907 818 q 947 823 896 838 q 945 826 947 824 q 938 833 943 827 q 927 844 933 839 q 913 857 922 850 q 896 869 905 864 q 876 880 887 875 q 854 887 865 884 q 830 888 843 889 q 806 884 818 888 q 731 797 769 871 q 674 633 692 722 q 673 495 656 545 q 713 431 686 456 q 773 398 740 406 q 843 409 806 391 q 911 470 881 427 q 943 526 932 499 q 1010 566 978 534 q 1011 504 1007 533 q 1038 455 1017 467 q 1093 446 1059 444 q 1165 513 1122 448 q 1235 643 1207 578 l 1263 708 q 1260 701 1262 705 q 1255 681 1259 696 q 1247 650 1251 665 q 1240 615 1244 635 q 1235 575 1236 594 q 1234 537 1233 557 q 1238 503 1234 517 m 1672 427 q 1666 432 1670 429 q 1655 451 1663 436 q 1643 485 1647 467 q 1639 533 1639 503 q 1649 599 1640 564 q 1678 701 1662 651 q 1705 773 1695 750 l 1714 797 l 1649 829 q 1626 827 1636 834 q 1575 787 1602 810 q 1504 712 1548 763 q 1430 606 1460 661 q 1546 936 1468 774 q 1684 1137 1623 1097 q 1672 1142 1680 1139 q 1645 1151 1665 1145 q 1606 1158 1624 1157 q 1568 1150 1588 1158 q 1537 1123 1548 1142 q 1440 931 1475 1022 q 1379 729 1405 840 q 1355 595 1365 668 q 1348 500 1345 522 q 1366 461 1350 480 q 1396 433 1381 441 l 1410 423 q 1413 458 1411 436 q 1434 536 1415 480 q 1486 633 1453 591 q 1554 715 1522 682 q 1599 757 1586 748 l 1612 766 q 1603 743 1609 758 q 1584 686 1596 728 q 1563 609 1571 645 q 1556 534 1556 574 q 1571 471 1556 494 q 1600 436 1585 449 q 1628 421 1616 423 q 1651 419 1640 418 q 1666 423 1661 420 l 1672 427 m 1811 361 q 1795 431 1796 386 q 1806 532 1794 476 q 1837 648 1819 589 q 1880 772 1855 707 q 1927 887 1905 836 q 1971 987 1948 937 q 2190 992 2163 990 q 2242 1006 2218 994 q 2282 1034 2266 1019 q 2309 1065 2298 1050 q 2326 1090 2321 1080 l 2331 1101 q 2307 1093 2323 1097 q 2243 1079 2292 1088 q 2145 1070 2195 1071 q 2031 1069 2108 1069 q 1905 1069 1953 1069 q 1802 1067 1857 1069 q 1718 1061 1747 1065 q 1665 1043 1689 1057 q 1625 1013 1640 1029 q 1599 979 1610 996 q 1584 951 1588 962 l 1579 940 q 1638 963 1590 953 q 1735 977 1686 974 q 1864 982 1776 980 q 1822 870 1852 948 q 1764 713 1791 792 q 1720 566 1736 635 q 1716 487 1710 522 q 1737 429 1721 453 q 1769 390 1752 405 q 1799 368 1786 375 l 1811 361 m 2555 620 q 2590 696 2581 663 q 2597 746 2599 729 q 2585 784 2594 763 q 2483 820 2557 848 q 2410 774 2447 806 q 2355 715 2373 741 l 2336 690 q 2423 895 2419 892 l 2406 896 q 2315 865 2340 896 q 2309 857 2311 861 q 2220 609 2268 743 q 2212 585 2215 593 q 2139 543 2155 551 q 2185 678 2155 597 q 2237 811 2215 758 l 2258 864 q 2235 862 2249 863 q 2192 852 2221 861 q 2153 831 2163 844 q 2102 759 2146 824 q 2017 647 2057 693 q 1963 612 1978 601 q 2005 730 1947 623 q 2081 859 2064 837 q 2070 859 2077 859 q 2044 856 2063 859 q 2009 848 2025 853 q 1977 831 1994 842 q 1952 804 1960 819 q 1928 757 1938 776 q 1907 712 1919 738 q 1888 668 1895 686 q 1877 630 1882 649 q 1874 597 1872 611 q 1882 574 1875 583 q 1920 559 1893 560 q 1980 575 1946 558 q 2041 627 2014 593 l 2142 761 q 2057 506 2094 612 q 1999 471 2035 492 q 1947 440 1963 450 q 1908 409 1931 430 q 1864 361 1885 389 q 1830 296 1839 329 q 1831 241 1822 264 q 1860 206 1840 218 q 1914 201 1879 193 q 1989 237 1949 209 q 2061 325 2035 270 q 2123 489 2087 379 q 2124 495 2123 493 q 2126 500 2125 497 q 2128 507 2127 504 q 2198 547 2168 532 q 2144 370 2159 437 q 2145 331 2140 352 q 2161 293 2150 311 q 2183 261 2171 276 q 2203 239 2194 247 l 2211 231 q 2217 309 2204 253 q 2260 468 2230 366 q 2341 659 2292 574 q 2435 759 2376 717 q 2511 788 2494 802 q 2513 744 2519 779 q 2492 679 2507 710 q 2448 614 2474 642 q 2399 575 2422 587 q 2355 555 2376 562 q 2321 547 2334 548 l 2308 547 q 2317 541 2311 545 q 2339 530 2322 538 q 2372 519 2355 523 q 2414 517 2389 515 q 2460 527 2438 518 q 2508 560 2483 536 q 2555 620 2534 584 m 2797 819 q 2867 854 2833 859 q 2890 829 2889 850 q 2851 762 2892 799 q 2806 739 2831 745 q 2764 736 2780 733 l 2747 739 q 2750 734 2748 737 q 2758 722 2751 730 q 2773 706 2764 713 q 2796 695 2781 700 q 2827 692 2810 690 q 2911 731 2884 696 q 2936 812 2939 766 q 2902 865 2934 841 q 2823 892 2871 890 q 2720 855 2776 894 q 2657 790 2686 829 q 2614 707 2629 751 q 2608 618 2599 663 q 2656 543 2618 574 q 2742 524 2692 515 q 2837 557 2792 532 q 2907 610 2882 581 q 2920 635 2915 618 q 2925 665 2924 652 l 2926 677 q 2875 623 2909 649 q 2806 581 2841 596 q 2741 563 2772 566 q 2700 579 2711 560 q 2711 689 2677 616 q 2797 819 2745 762 m 779 688 q 811 590 783 635 q 882 529 839 544 q 836 437 861 458 q 778 425 810 416 q 753 469 759 430 q 751 556 747 508 q 766 646 755 604 q 779 688 770 659 m 1398 -224 q 1367 -213 1377 -224 q 1355 -184 1355 -201 q 1362 -152 1355 -165 q 1383 -130 1369 -138 q 1413 -121 1396 -121 q 1446 -132 1435 -121 q 1457 -161 1457 -144 q 1450 -193 1457 -178 q 1430 -215 1443 -207 q 1398 -224 1415 -224 m 499 -334 l 565 -5 l 2581 -5 l 2515 -334 l 499 -334 m 2314 -92 l 2308 -122 l 2359 -122 l 2333 -252 l 2370 -252 l 2397 -122 l 2448 -122 l 2454 -92 l 2314 -92 m 2106 -92 l 2074 -252 l 2110 -252 l 2131 -152 l 2190 -252 l 2221 -252 l 2253 -92 l 2216 -92 l 2196 -193 l 2136 -92 l 2106 -92 m 1857 -136 q 1844 -186 1844 -160 q 1853 -222 1844 -205 q 1881 -247 1862 -237 q 1922 -255 1896 -255 q 1974 -243 1952 -255 q 2009 -208 1996 -231 q 2022 -159 2022 -184 q 2012 -123 2022 -140 q 1985 -98 2004 -109 q 1944 -90 1968 -90 q 1891 -102 1914 -90 q 1857 -136 1870 -113 m 1685 -92 l 1653 -252 l 1691 -252 l 1702 -194 l 1776 -194 l 1782 -164 l 1708 -164 l 1716 -122 l 1800 -122 l 1807 -92 l 1685 -92 m 1330 -136 q 1318 -186 1318 -159 q 1327 -222 1318 -205 q 1354 -247 1336 -237 q 1396 -255 1369 -255 q 1447 -243 1425 -255 q 1482 -208 1470 -231 q 1495 -159 1495 -186 q 1485 -123 1495 -140 q 1458 -98 1477 -109 q 1417 -90 1441 -90 q 1365 -102 1388 -90 q 1330 -136 1343 -114 m 1084 -92 l 1053 -252 l 1087 -252 l 1107 -157 l 1139 -235 l 1156 -235 l 1217 -157 l 1198 -252 l 1233 -252 l 1265 -92 l 1233 -92 l 1155 -192 l 1115 -92 l 1084 -92 m 890 -92 l 857 -252 l 981 -252 l 988 -222 l 900 -222 l 907 -186 l 982 -186 l 988 -157 l 913 -157 l 920 -122 l 1004 -122 l 1010 -92 l 890 -92 m 659 -92 l 627 -252 l 705 -252 q 758 -241 734 -252 q 793 -208 781 -229 q 805 -159 805 -187 q 795 -123 805 -139 q 768 -100 787 -109 q 726 -92 751 -92 l 659 -92 m 1925 -224 q 1893 -213 1904 -224 q 1882 -184 1882 -201 q 1889 -152 1882 -165 q 1909 -130 1896 -138 q 1940 -121 1922 -121 q 1972 -132 1961 -121 q 1984 -161 1984 -144 q 1977 -193 1984 -179 q 1957 -215 1969 -207 q 1925 -224 1942 -224 m 739 -214 q 707 -222 726 -222 l 670 -222 l 690 -123 l 722 -123 q 756 -133 745 -123 q 768 -161 768 -142 q 760 -193 768 -178 q 739 -214 753 -206 z "},"(":{"ha":3080,"x_min":21,"x_max":3061,"o":"m 1890 347 q 2041 460 1934 411 q 1979 314 2005 361 q 1923 256 1953 267 q 1876 256 1890 246 q 1866 291 1862 266 q 1890 347 1870 316 m 830 722 q 883 710 866 777 q 892 583 897 656 q 890 561 892 568 l 890 560 q 829 633 850 582 q 830 722 808 684 m 3057 741 q 3036 640 3061 686 q 3048 602 3048 623 q 3011 488 3048 528 q 2904 411 2972 444 q 2773 377 2837 377 q 2664 413 2709 377 q 2627 452 2646 427 q 2456 371 2555 371 q 2382 383 2416 371 q 2380 378 2381 381 q 2379 373 2380 374 q 2330 172 2328 200 q 2327 130 2336 151 q 2299 96 2319 109 q 2262 85 2281 85 q 2215 104 2235 85 q 2153 180 2178 138 q 2081 105 2125 137 q 1944 54 2009 54 q 1895 65 1919 54 q 1859 90 1872 77 q 1824 126 1845 102 q 1771 201 1791 163 q 1758 279 1754 236 q 1755 283 1757 281 q 1751 286 1752 285 q 1695 273 1725 273 q 1563 359 1616 273 q 1550 387 1555 371 q 1547 390 1548 389 q 1543 393 1545 391 q 1540 397 1541 395 q 1532 345 1532 361 q 1496 287 1531 307 q 1461 278 1480 278 q 1428 287 1443 278 q 1403 303 1419 291 q 1387 298 1399 300 q 1362 295 1373 295 q 1297 310 1329 295 q 1244 357 1265 326 q 1149 300 1196 302 q 1133 300 1143 300 q 1019 352 1057 300 q 845 251 947 251 q 715 305 772 251 q 722 247 717 274 q 716 207 725 226 q 690 176 707 187 q 652 165 673 165 q 612 178 631 165 q 503 309 547 230 q 460 368 478 338 q 473 236 450 277 q 471 166 492 201 q 411 132 450 132 l 410 132 q 384 135 399 132 q 336 153 368 137 q 281 195 304 168 q 183 382 193 297 q 144 369 165 369 q 119 374 131 369 q 71 405 92 385 q 40 448 50 425 q 25 489 30 470 q 22 522 21 509 q 24 533 23 526 q 32 557 26 540 q 46 591 37 574 q 73 629 55 608 q 112 669 90 650 q 169 706 134 688 q 246 736 204 724 q 293 889 273 831 q 328 974 313 948 q 352 1007 344 1000 q 376 1020 361 1015 q 404 1025 388 1025 q 546 938 461 1025 q 555 928 552 932 q 664 1135 597 1026 q 791 1202 706 1202 q 903 1173 846 1202 q 956 1111 920 1164 q 993 1039 992 1058 q 960 977 995 999 q 920 936 941 964 q 1003 865 968 910 q 1017 829 1015 848 q 1022 825 1019 827 q 1067 883 1043 861 q 1192 931 1119 931 q 1262 917 1230 931 q 1314 877 1295 902 q 1348 879 1332 879 q 1477 1160 1394 1023 q 1603 1227 1518 1227 q 1716 1198 1658 1227 q 1754 1139 1752 1180 l 1754 1135 q 2025 1140 1834 1140 q 2064 1140 2039 1140 q 2108 1140 2089 1140 q 2144 1140 2128 1140 q 2175 1141 2160 1140 q 2203 1143 2190 1142 q 2228 1147 2216 1145 q 2251 1151 2241 1149 q 2269 1155 2260 1153 q 2284 1159 2278 1158 q 2296 1162 2291 1161 q 2303 1165 2300 1164 l 2305 1166 q 2331 1171 2317 1171 q 2381 1149 2360 1171 q 2411 1108 2390 1140 q 2433 1074 2431 1076 q 2447 998 2462 1033 q 2429 964 2441 982 q 2491 911 2480 956 q 2493 895 2493 903 q 2522 898 2506 898 q 2620 857 2580 898 q 2678 911 2650 891 q 2822 962 2746 962 q 2926 935 2883 962 q 3011 851 2969 908 q 3046 797 3035 822 q 3057 741 3056 772 m 600 311 q 606 539 584 408 q 673 785 629 670 q 771 990 717 899 q 871 1111 826 1082 q 859 1116 867 1113 q 831 1125 852 1120 q 793 1132 811 1131 q 755 1125 775 1133 q 724 1098 735 1117 q 618 898 661 997 q 558 729 576 798 q 534 595 541 660 q 530 500 528 531 q 536 448 532 470 q 494 559 508 496 q 479 678 479 623 q 481 783 478 734 q 490 860 485 831 l 496 889 q 475 909 488 897 q 436 940 463 922 q 399 954 410 958 q 360 867 389 950 q 302 677 332 784 q 205 645 248 666 q 143 603 163 625 q 110 561 122 581 q 95 528 97 541 l 92 515 q 281 593 123 560 q 256 478 261 510 q 254 381 247 419 q 278 321 261 342 q 314 291 296 300 q 346 279 332 281 l 359 277 q 336 389 336 319 q 350 529 335 459 q 384 663 366 599 q 418 767 403 727 l 434 807 q 462 553 438 668 q 490 463 472 505 q 526 394 508 420 q 562 347 545 367 q 589 319 578 328 l 600 311 m 1238 503 q 1267 455 1246 470 q 1305 441 1288 439 l 1322 441 q 1318 446 1320 443 q 1312 461 1316 449 q 1304 489 1307 473 q 1302 533 1302 505 q 1308 594 1302 561 q 1328 694 1315 640 q 1350 779 1341 747 l 1359 809 q 1337 809 1350 810 q 1296 801 1323 809 q 1261 777 1270 793 q 1201 652 1227 715 q 1146 549 1174 590 q 1111 506 1126 518 q 1086 503 1097 494 q 1088 582 1071 516 q 1138 711 1106 648 q 1163 759 1154 743 q 1184 790 1173 776 q 1205 809 1195 804 q 1229 813 1216 813 q 1261 808 1242 814 q 1239 850 1270 833 q 1158 856 1202 869 q 1115 831 1133 848 q 1060 746 1086 805 q 1019 622 1033 686 q 954 557 991 573 q 969 665 970 625 q 936 786 965 754 q 859 812 907 818 q 947 823 896 838 q 945 826 947 824 q 938 833 943 827 q 927 844 933 839 q 913 857 922 850 q 896 869 905 864 q 876 880 887 875 q 854 887 865 884 q 830 888 843 889 q 806 884 818 888 q 731 797 769 871 q 674 633 692 722 q 673 495 656 545 q 713 431 686 456 q 773 398 740 406 q 843 409 806 391 q 911 470 881 427 q 943 526 932 499 q 1010 566 978 534 q 1011 504 1007 533 q 1038 455 1017 467 q 1093 446 1059 444 q 1165 513 1122 448 q 1235 643 1207 578 l 1263 708 q 1260 701 1262 705 q 1255 681 1259 696 q 1247 650 1251 665 q 1240 615 1244 635 q 1235 575 1236 594 q 1234 537 1233 557 q 1238 503 1234 517 m 1672 427 q 1666 432 1670 429 q 1655 451 1663 436 q 1643 485 1647 467 q 1639 533 1639 503 q 1649 599 1640 564 q 1678 701 1662 651 q 1705 773 1695 750 l 1714 797 l 1649 829 q 1626 827 1636 834 q 1575 787 1602 810 q 1504 712 1548 763 q 1430 606 1460 661 q 1546 936 1468 774 q 1684 1137 1623 1097 q 1672 1142 1680 1139 q 1645 1151 1665 1145 q 1606 1158 1624 1157 q 1568 1150 1588 1158 q 1537 1123 1548 1142 q 1440 931 1475 1022 q 1379 729 1405 840 q 1355 595 1365 668 q 1348 500 1345 522 q 1366 461 1350 480 q 1396 433 1381 441 l 1410 423 q 1413 458 1411 436 q 1434 536 1415 480 q 1486 633 1453 591 q 1554 715 1522 682 q 1599 757 1586 748 l 1612 766 q 1603 743 1609 758 q 1584 686 1596 728 q 1563 609 1571 645 q 1556 534 1556 574 q 1571 471 1556 494 q 1600 436 1585 449 q 1628 421 1616 423 q 1651 419 1640 418 q 1666 423 1661 420 l 1672 427 m 1811 361 q 1795 431 1796 386 q 1806 532 1794 476 q 1837 648 1819 589 q 1880 772 1855 707 q 1927 887 1905 836 q 1971 987 1948 937 q 2190 992 2163 990 q 2242 1006 2218 994 q 2282 1034 2266 1019 q 2309 1065 2298 1050 q 2326 1090 2321 1080 l 2331 1101 q 2307 1093 2323 1097 q 2243 1079 2292 1088 q 2145 1070 2195 1071 q 2031 1069 2108 1069 q 1905 1069 1953 1069 q 1802 1067 1857 1069 q 1718 1061 1747 1065 q 1665 1043 1689 1057 q 1625 1013 1640 1029 q 1599 979 1610 996 q 1584 951 1588 962 l 1579 940 q 1638 963 1590 953 q 1735 977 1686 974 q 1864 982 1776 980 q 1822 870 1852 948 q 1764 713 1791 792 q 1720 566 1736 635 q 1716 487 1710 522 q 1737 429 1721 453 q 1769 390 1752 405 q 1799 368 1786 375 l 1811 361 m 2555 620 q 2590 696 2581 663 q 2597 746 2599 729 q 2585 784 2594 763 q 2483 820 2557 848 q 2410 774 2447 806 q 2355 715 2373 741 l 2336 690 q 2423 895 2419 892 l 2406 896 q 2315 865 2340 896 q 2309 857 2311 861 q 2220 609 2268 743 q 2216 596 2219 604 q 2212 585 2212 587 q 2139 543 2150 549 q 2185 678 2155 597 q 2237 811 2215 758 l 2258 864 q 2235 862 2249 863 q 2192 852 2221 861 q 2153 831 2163 844 q 2102 759 2146 824 q 2017 647 2057 693 q 1962 612 1977 601 q 2005 729 1946 623 q 2081 859 2064 836 q 2070 859 2077 859 q 2044 856 2063 859 q 2009 848 2025 853 q 1976 831 1993 842 q 1951 804 1959 819 q 1884 657 1905 715 q 1882 574 1864 599 q 1920 559 1893 560 q 1980 575 1946 558 q 2041 627 2014 593 l 2142 761 q 2057 506 2094 612 q 1999 471 2035 492 q 1947 440 1963 450 q 1908 409 1931 430 q 1864 361 1885 389 q 1830 296 1839 329 q 1831 241 1822 264 q 1860 206 1840 218 q 1914 201 1879 193 q 1989 237 1949 209 q 2061 325 2035 270 q 2123 489 2087 379 q 2124 495 2123 493 q 2126 500 2125 497 q 2128 507 2127 504 q 2198 547 2168 532 q 2144 370 2159 437 q 2145 331 2140 352 q 2161 293 2150 311 q 2183 261 2171 276 q 2203 239 2194 247 l 2211 231 q 2260 468 2200 267 q 2341 659 2290 572 q 2435 759 2376 717 q 2511 788 2494 802 q 2513 744 2519 779 q 2492 679 2507 710 q 2448 614 2474 642 q 2399 575 2422 587 q 2355 555 2376 562 q 2321 547 2334 548 l 2308 547 q 2317 541 2311 545 q 2339 530 2322 538 q 2372 519 2355 523 q 2414 517 2389 515 q 2460 527 2438 518 q 2508 560 2483 536 q 2555 620 2534 584 m 2797 819 q 2867 854 2833 859 q 2890 828 2889 850 q 2851 762 2890 798 q 2806 739 2831 745 q 2764 736 2780 733 l 2747 739 q 2750 734 2748 737 q 2758 722 2751 730 q 2773 706 2764 713 q 2796 695 2781 700 q 2827 692 2810 690 q 2911 731 2884 696 q 2936 812 2939 766 q 2902 865 2934 841 q 2823 892 2871 890 q 2720 855 2776 894 q 2657 790 2686 829 q 2614 707 2629 751 q 2608 618 2599 663 q 2656 543 2618 574 q 2742 524 2692 515 q 2837 557 2792 532 q 2907 610 2882 581 q 2920 635 2915 618 q 2926 665 2925 652 l 2926 677 q 2875 623 2909 649 q 2807 581 2842 596 q 2741 563 2772 566 q 2700 579 2711 560 q 2711 689 2677 616 q 2797 819 2745 762 m 779 688 q 811 590 783 635 q 882 529 839 544 q 836 437 861 458 q 778 425 810 416 q 753 469 759 430 q 751 556 747 508 q 767 646 756 604 q 779 688 772 667 m 1399 -224 q 1367 -213 1377 -224 q 1355 -184 1355 -201 q 1362 -152 1355 -165 q 1383 -130 1369 -138 q 1413 -121 1396 -121 q 1446 -132 1435 -121 q 1457 -161 1457 -144 q 1450 -193 1457 -178 q 1430 -215 1443 -207 q 1399 -224 1415 -224 m 499 -334 l 564 -5 l 2581 -5 l 2515 -334 l 499 -334 m 2314 -92 l 2308 -122 l 2359 -122 l 2333 -252 l 2370 -252 l 2397 -122 l 2448 -122 l 2454 -92 l 2314 -92 m 2106 -92 l 2074 -252 l 2110 -252 l 2131 -152 l 2190 -252 l 2221 -252 l 2253 -92 l 2216 -92 l 2196 -193 l 2136 -92 l 2106 -92 m 1857 -136 q 1844 -186 1844 -160 q 1853 -222 1844 -205 q 1881 -247 1862 -237 q 1922 -255 1896 -255 q 1974 -243 1952 -255 q 2009 -208 1996 -231 q 2022 -159 2022 -184 q 2012 -123 2022 -140 q 1985 -98 2004 -109 q 1943 -90 1968 -90 q 1891 -102 1914 -90 q 1857 -136 1870 -113 m 1685 -92 l 1653 -252 l 1691 -252 l 1702 -194 l 1776 -194 l 1782 -164 l 1708 -164 l 1716 -122 l 1800 -122 l 1806 -92 l 1685 -92 m 1330 -136 q 1318 -186 1318 -159 q 1326 -222 1318 -206 q 1354 -247 1335 -237 q 1396 -255 1369 -255 q 1447 -243 1425 -255 q 1482 -208 1470 -231 q 1495 -159 1495 -186 q 1485 -123 1495 -140 q 1458 -98 1477 -109 q 1417 -90 1441 -90 q 1365 -102 1388 -90 q 1330 -136 1343 -114 m 1084 -92 l 1053 -252 l 1087 -252 l 1107 -157 l 1139 -235 l 1156 -235 l 1217 -157 l 1198 -252 l 1233 -252 l 1265 -92 l 1233 -92 l 1155 -192 l 1115 -92 l 1084 -92 m 890 -92 l 857 -252 l 981 -252 l 988 -222 l 901 -222 l 907 -186 l 982 -186 l 988 -157 l 913 -157 l 920 -122 l 1004 -122 l 1010 -92 l 890 -92 m 659 -92 l 627 -252 l 705 -252 q 758 -241 734 -252 q 793 -208 781 -229 q 805 -159 805 -187 q 795 -123 805 -139 q 768 -100 787 -109 q 726 -92 751 -92 l 659 -92 m 1925 -224 q 1893 -213 1904 -224 q 1882 -184 1882 -201 q 1889 -152 1882 -165 q 1909 -130 1896 -138 q 1940 -121 1922 -121 q 1972 -132 1961 -121 q 1984 -161 1984 -144 q 1977 -193 1984 -179 q 1957 -215 1969 -207 q 1925 -224 1942 -224 m 739 -214 q 707 -222 726 -222 l 670 -222 l 690 -123 l 722 -123 q 756 -133 745 -123 q 768 -161 768 -142 q 760 -193 768 -178 q 739 -214 753 -206 z "}}}
